<?xml version="1.0" standalone="no"?>
<!DOCTYPE svg PUBLIC "-//W3C//DTD SVG 1.1//EN" "http://www.w3.org/Graphics/SVG/1.1/DTD/svg11.dtd" >
<svg xmlns="http://www.w3.org/2000/svg" xmlns:xlink="http://www.w3.org/1999/xlink" version="1.1">
<metadata>
Created by FontForge 20170731 at Thu Aug 26 02:09:23 2021
 By Aleksey,,,
Copyright 2019 The Big Shoulders Project Authors (https://github.com/xotypeco/big_shoulders)
</metadata>
<defs>
<font id="BigShouldersDisplay-Bold" horiz-adv-x="797" >
  <font-face 
    font-family="Big Shoulders Display"
    font-weight="700"
    font-stretch="normal"
    units-per-em="2000"
    panose-1="0 0 0 0 0 0 0 0 0 0"
    ascent="1600"
    descent="-400"
    x-height="1200"
    cap-height="1600"
    bbox="-511 -418 2155 2355"
    underline-thickness="40"
    underline-position="-140"
    unicode-range="U+0020-FB02"
  />
<missing-glyph horiz-adv-x="1272" 
d="M93 0v1600h1087v-1600h-1087zM442 192h389l-194 390zM309 401l201 398l-201 397v-795zM963 402v793l-200 -397zM637 1016l196 392h-393z" />
    <glyph glyph-name="fi" unicode="fi" horiz-adv-x="978" 
d="M132 0v1034h-114v166h114v120q-1 160 79 229.5t249 69.5q31 0 66.5 -4t66.5 -10v-160q-31 2 -64.5 3t-67.5 1q-58 0 -86 -27t-27 -86v-136h204v-166h-204v-1034h-216zM647 1407v193h255v-193h-255zM666 0v1200h216v-1200h-216z" />
    <glyph glyph-name="fl" unicode="fl" horiz-adv-x="982" 
d="M132 0v1034h-114v166h114v120q-1 160 79 229.5t249 69.5q31 0 66.5 -4t66.5 -10v-160q-31 2 -64.5 3t-67.5 1q-58 0 -86 -27t-27 -86v-136h204v-166h-204v-1034h-216zM671 0v1600h216v-1600h-216z" />
    <glyph glyph-name="f_f" unicode="ff" horiz-adv-x="1126" 
d="M132 0l-1 1034h-113v166h113v120q0 160 80 229.5t249 69.5q31 0 66.5 -4t66.5 -10v-160q-31 2 -64.5 3t-67.5 1q-58 0 -86 -27t-28 -86v-136h336v118q0 161 79.5 230t248.5 69q32 0 67.5 -3.5t66.5 -9.5v-160q-32 2 -65 2.5t-67 0.5q-58 0 -86 -26.5t-28 -86.5v-134h205
v-166h-205l1 -1036h-217v1036h-336l1 -1034h-216z" />
    <glyph glyph-name="f_f_i" unicode="ffi" horiz-adv-x="1530" 
d="M132 0l-1 1034h-113v166h113v120q0 160 80 229.5t249 69.5q31 0 66.5 -4t66.5 -10v-160q-31 2 -64.5 3t-67.5 1q-58 0 -86 -27t-28 -86v-136h336v118q0 161 79.5 230t248.5 69q32 0 67.5 -3.5t66.5 -9.5v-160q-32 2 -65 2.5t-67 0.5q-58 0 -86 -26.5t-28 -86.5v-134h205
v-166h-205l1 -1036h-217v1036h-336l1 -1034h-216zM1199 1407v193h255v-193h-255zM1218 0v1200h216v-1200h-216z" />
    <glyph glyph-name="f_f_l" unicode="ffl" horiz-adv-x="1534" 
d="M132 0l-1 1034h-113v166h113v120q0 160 80 229.5t249 69.5q31 0 66.5 -4t66.5 -10v-160q-31 2 -64.5 3t-67.5 1q-58 0 -86 -27t-28 -86v-136h336v118q0 161 79.5 230t248.5 69q32 0 67.5 -3.5t66.5 -9.5v-160q-32 2 -65 2.5t-67 0.5q-58 0 -86 -26.5t-28 -86.5v-134h205
v-166h-205l1 -1036h-217v1036h-336l1 -1034h-216zM1222 0v1600h216v-1600h-216z" />
    <glyph glyph-name=".notdef" horiz-adv-x="1272" 
d="M93 0v1600h1087v-1600h-1087zM442 192h389l-194 390zM309 401l201 398l-201 397v-795zM963 402v793l-200 -397zM637 1016l196 392h-393z" />
    <glyph glyph-name=".null" horiz-adv-x="0" 
 />
    <glyph glyph-name="nonmarkingreturn" horiz-adv-x="666" 
 />
    <glyph glyph-name="space" unicode=" " horiz-adv-x="427" 
 />
    <glyph glyph-name="exclam" unicode="!" horiz-adv-x="455" 
d="M149 378l-31 831v391h219v-391l-30 -831h-158zM86 0v229h282v-229h-282z" />
    <glyph glyph-name="quotedbl" unicode="&#x22;" horiz-adv-x="672" 
d="M126 1111l-40 250v239h183v-239l-39 -250h-104zM442 1111l-39 250v239h182v-239l-39 -250h-104z" />
    <glyph glyph-name="numbersign" unicode="#" horiz-adv-x="1297" 
d="M144 0l104 432h-188l44 178h180l95 365h-188l43 179h182l110 446h215l-110 -446h200l111 446h215l-111 -446h189l-41 -179h-184l-95 -365h186l-44 -178h-179l-103 -432h-215l103 432h-201l-103 -432h-215zM499 610h201l95 365h-201z" />
    <glyph glyph-name="dollar" unicode="$" horiz-adv-x="815" 
d="M312 -202v192q-125 18 -180.5 96t-61.5 230q-1 47 -1.5 91.5t1 89.5t5.5 92h204q-4 -80 -4.5 -160t4.5 -151q4 -59 35 -87.5t95 -28.5q63 0 91 28.5t34 87.5q3 45 4 84t0 79t-4 88q-4 59 -24 101t-73 56l-134 34q-90 23 -141 67.5t-73 113.5t-25 165q-1 54 -0.5 110
t1.5 111q6 152 61.5 228.5t185.5 94.5v209h190v-209q122 -18 179 -95.5t63 -228.5q2 -49 1 -120.5t-4 -142.5h-208q3 75 3.5 150.5t-2.5 150.5q-1 58 -33 86.5t-93 28.5q-64 0 -93 -28.5t-34 -86.5q-5 -64 -4.5 -129t4.5 -129t25 -103t76 -53l121 -29q95 -22 148 -68.5
t75 -117t25 -166.5q2 -42 2 -76t-1 -66.5t-2 -70.5q-6 -153 -63 -231.5t-185 -96.5v-190h-190z" />
    <glyph glyph-name="percent" unicode="%" horiz-adv-x="1178" 
d="M103 0l830 1600h152l-831 -1600h-151zM853 -10q-97 0 -151 52.5t-58 149.5q-2 54 -2.5 110.5t0 114.5t2.5 114q4 95 57.5 147t151.5 52t152 -52t59 -147q2 -42 2.5 -85.5t0.5 -86.5t-0.5 -85t-2.5 -82q-5 -96 -59 -149t-152 -53zM853 117q26 0 39 14t15 35q3 36 4 86
t1 105.5t-1 107.5t-4 91q-1 20 -14.5 33.5t-39.5 13.5q-24 0 -38 -13.5t-15 -33.5q-3 -53 -4.5 -126t0 -144t4.5 -120q2 -18 15.5 -33.5t37.5 -15.5zM293 868q-97 0 -151 52.5t-58 149.5q-1 54 -1.5 110.5t0 114.5t1.5 114q4 95 57.5 147t151.5 52q99 0 152.5 -52t58.5 -147
q2 -42 2.5 -85.5t0.5 -86.5t-0.5 -85t-2.5 -82q-5 -96 -58.5 -149t-152.5 -53zM293 995q26 0 39 14t15 35q3 36 4 86t1 105.5t-1 107.5t-4 91q-1 20 -14.5 33.5t-39.5 13.5q-24 0 -37.5 -13.5t-15.5 -33.5q-3 -53 -4.5 -126t0 -144t4.5 -120q2 -18 15.5 -33.5t37.5 -15.5z
" />
    <glyph glyph-name="ampersand" unicode="&#x26;" horiz-adv-x="1087" 
d="M453 -17q-183 0 -265 77.5t-89 254.5q-1 62 -1 106t2 81.5t6 79.5q6 106 50 173.5t102 118.5q-45 105 -73 206t-35 191q-17 159 57 252.5t244 93.5q166 0 239 -85t59 -249q-7 -114 -57.5 -217t-139.5 -194q-10 -11 -21 -22.5t-23 -24.5q32 -63 68 -125.5t73 -123.5
q-1 53 -6 112.5t-12 120.5l175 1q8 -66 13 -147t6 -163.5t-4 -152.5q51 -67 95.5 -122.5t78.5 -96.5l-141 -132q-26 31 -52 63.5t-54 66.5q-26 -50 -66 -81.5t-96.5 -46.5t-132.5 -15zM459 159q51 0 81.5 15t46 46.5t21.5 79.5q-66 91 -129 187.5t-119 195.5
q-16 -22 -28.5 -49.5t-16.5 -62.5q-4 -39 -6.5 -73t-2.5 -77t2 -112q4 -75 40 -112.5t111 -37.5zM418 996q50 50 80 99t44.5 96t18.5 92q12 89 -12 137t-98 48q-62 0 -87 -45.5t-22 -117.5q1 -68 22 -147t54 -162z" />
    <glyph glyph-name="quotesingle" unicode="'" horiz-adv-x="356" 
d="M126 1111l-40 250v239h183v-239l-39 -250h-104z" />
    <glyph glyph-name="parenleft" unicode="(" horiz-adv-x="525" 
d="M308 -400q-76 121 -131.5 282t-86 346t-30.5 379q0 176 27 357.5t82 346t139 289.5h157q-91 -228 -138 -486.5t-47 -513.5q0 -170 21.5 -344t62.5 -340.5t101 -315.5h-157z" />
    <glyph glyph-name="parenright" unicode=")" horiz-adv-x="525" 
d="M217 -400h-157q60 149 101.5 315.5t62 340.5t20.5 344q0 255 -46.5 513.5t-137.5 486.5h157q84 -125 139 -289.5t82 -346t27 -357.5q0 -194 -30 -379t-86 -346t-132 -282z" />
    <glyph glyph-name="asterisk" unicode="*" horiz-adv-x="509" 
d="M44 1325l137 67l-137 67l47 82l126 -85l-10 152h95l-11 -151l127 84l48 -82l-137 -67l137 -67l-48 -82l-127 86l11 -153h-95l10 151l-126 -84z" />
    <glyph glyph-name="plus" unicode="+" horiz-adv-x="975" 
d="M406 350v313h-313v164h313v313h164v-313h312v-164h-312v-313h-164z" />
    <glyph glyph-name="comma" unicode="," horiz-adv-x="456" 
d="M121 -244l100 244h-135v232h284v-210l-130 -266h-119z" />
    <glyph glyph-name="hyphen" unicode="-" horiz-adv-x="763" 
d="M60 642v192h643v-192h-643z" />
    <glyph glyph-name="period" unicode="." horiz-adv-x="455" 
d="M86 0v229h282v-229h-282z" />
    <glyph glyph-name="slash" unicode="/" horiz-adv-x="736" 
d="M60 -400l400 2000h216l-400 -2000h-216z" />
    <glyph glyph-name="zero" unicode="0" horiz-adv-x="879" 
d="M439 -17q-163 0 -251 86t-92 245q-2 157 -3 322t0 330t3 321q4 160 92 245t251 85q161 0 249 -85t92 -245q3 -118 5 -241t2 -247t-2 -246t-5 -239q-4 -159 -92 -245t-249 -86zM439 162q120 0 125 114q6 181 7.5 363t0 356t-7.5 330q-3 114 -125 114q-123 0 -126 -114
q-4 -134 -5.5 -269.5t-1.5 -269.5t1.5 -262.5t5.5 -247.5q3 -114 126 -114z" />
    <glyph glyph-name="one" unicode="1" horiz-adv-x="473" 
d="M164 0v1395h-85l-6 80l136 125h171v-1600h-216z" />
    <glyph glyph-name="two" unicode="2" horiz-adv-x="848" 
d="M98 0q-1 40 -1.5 70t-1 55t-0.5 51v59t1 78q3 121 33.5 209t86.5 152t136 113l111 70q62 44 80.5 99.5t20.5 107.5q4 65 4 130t-4 130q-3 58 -34 86.5t-97 28.5q-61 0 -90.5 -28.5t-31.5 -86.5q-2 -75 -2 -150.5t3 -150.5h-214q-1 45 -2.5 92t-1.5 91t1 80
q7 177 85.5 254t253.5 77q123 0 197.5 -33.5t109 -106t39.5 -190.5q1 -25 2 -53.5t1 -58t-0.5 -58t-1.5 -53.5q-4 -96 -31.5 -167.5t-79 -127.5t-127.5 -105l-124 -77q-38 -26 -61 -71t-33.5 -98.5t-10.5 -104.5v-121h452v-192h-668z" />
    <glyph glyph-name="three" unicode="3" horiz-adv-x="873" 
d="M428 -17q-185 0 -268 77.5t-88 255.5q-1 39 -1.5 72t0 69t1.5 85h216v-253q0 -64 34 -95.5t101 -31.5q66 0 98.5 31.5t33.5 95.5q3 72 3 154t-3 150q-3 69 -33 110t-117 39l-150 -1l-7 182l272 485h-436v192h684l-3 -183l-281 -487q147 -11 213.5 -89.5t73.5 -245.5
q2 -43 2.5 -81t0.5 -72t-0.5 -65.5t-2.5 -60.5q-7 -178 -86.5 -255.5t-256.5 -77.5z" />
    <glyph glyph-name="four" unicode="4" horiz-adv-x="896" 
d="M479 0v446h-419v179l327 975h295v-964h156v-190h-156v-446h-203zM268 636h211l27 401l25 371h-47l-98 -371z" />
    <glyph glyph-name="five" unicode="5" horiz-adv-x="892" 
d="M450 -17q-185 0 -268 77.5t-88 255.5q-2 64 -2 116.5t3 109.5h216q-3 -39 -3.5 -84.5t0 -90t2.5 -78.5q5 -64 36.5 -95.5t97.5 -31.5t97 31.5t35 95.5q8 108 8.5 209.5t-6.5 204.5q-3 59 -33 87.5t-88 28.5q-42 0 -72 -14.5t-47 -40.5t-18 -63h-206v899h662v-192h-446
v-508h38q22 42 70.5 71t115.5 29q118 0 176 -77.5t65 -215.5q3 -71 3.5 -137.5t-1 -130t-4.5 -123.5q-10 -119 -46 -192.5t-107.5 -107t-189.5 -33.5z" />
    <glyph glyph-name="six" unicode="6" horiz-adv-x="865" 
d="M434 -17q-179 0 -257.5 77t-80.5 255q-2 139 -3 276t-1 264t1 236.5t3 193.5q7 170 93.5 250.5t242.5 80.5q165 0 251 -82.5t92 -248.5v-58t-0.5 -68.5t-1.5 -61.5h-214q2 36 2.5 69.5t0 71t-2.5 85.5q-2 56 -31 85.5t-93 29.5q-60 0 -90.5 -28.5t-32.5 -86.5
q-3 -97 -4.5 -207t-1.5 -232h42q23 43 74.5 71t118.5 28q136 0 188 -67.5t55 -224.5q2 -70 2.5 -133t-0.5 -123t-3 -120q-8 -178 -88 -255t-261 -77zM436 161q64 0 97 29t34 87q2 56 2.5 109.5t0.5 104.5t-0.5 99.5t-1.5 95.5q-1 59 -32 88t-89 29q-63 0 -101 -29.5
t-40 -84.5q1 -96 2 -198.5t4 -213.5q2 -58 33 -87t91 -29z" />
    <glyph glyph-name="seven" unicode="7" horiz-adv-x="816" 
d="M147 0l393 1408h-487v192h703v-194l-384 -1406h-225z" />
    <glyph glyph-name="eight" unicode="8" horiz-adv-x="866" 
d="M432 -17q-175 0 -255 77.5t-88 255.5q-1 34 -1 71.5t1 80.5t3 96q8 97 43 152.5t106 85.5v37q-52 20 -88 64.5t-47 116.5q-5 44 -7.5 92t-3 93t0.5 80q8 178 86 255t250 77q173 0 250.5 -77t85.5 -255q2 -35 1 -80t-3.5 -93t-6.5 -92q-12 -72 -47.5 -116.5t-87.5 -63.5
v-38q65 -31 102 -87t46 -151q5 -79 5.5 -137.5t-2.5 -110.5q-7 -178 -87 -255.5t-256 -77.5zM432 162q66 0 96.5 31.5t30.5 95.5q1 51 1 99.5v97.5t-1 99q-1 66 -31.5 98.5t-95.5 32.5q-64 0 -95 -32.5t-32 -98.5q-1 -76 -1 -148t1 -148q1 -64 32 -95.5t95 -31.5zM432 922
q65 0 95.5 32.5t31.5 98.5q0 67 0.5 129.5t-0.5 129.5q-1 64 -31 95.5t-96 31.5q-64 0 -95 -31.5t-32 -95.5q0 -34 -0.5 -66t-0.5 -64t0.5 -64t0.5 -65q1 -66 32 -98.5t95 -32.5z" />
    <glyph glyph-name="nine" unicode="9" horiz-adv-x="864" 
d="M436 -17q-178 0 -256 77t-79 254v58t0.5 69t1.5 61h214q-1 -54 -1.5 -108.5t1.5 -117.5q3 -56 28 -85.5t88 -29.5q60 0 87.5 28.5t29.5 86.5q3 90 5.5 200.5t3.5 232.5h-36q-21 -43 -67 -71.5t-115 -28.5q-71 0 -130.5 31t-95.5 98.5t-37 175.5q0 41 -0.5 88t-0.5 96
t0.5 97t1.5 89q5 178 87 255t262 77t257.5 -77t80.5 -255q4 -174 4.5 -336t-0.5 -319t-4 -315q-3 -177 -81.5 -254t-248.5 -77zM424 790q59 0 94 26.5t41 75.5q-1 106 -3.5 213.5t-5.5 216.5q-1 59 -32 87.5t-92 28.5q-63 0 -96.5 -28.5t-33.5 -87.5q0 -46 -0.5 -98
t-1 -106.5t-1 -108.5t0.5 -103q2 -58 37 -87t93 -29z" />
    <glyph glyph-name="colon" unicode=":" horiz-adv-x="455" 
d="M86 600v229h282v-229h-282zM86 0v229h282v-229h-282z" />
    <glyph glyph-name="semicolon" unicode=";" horiz-adv-x="456" 
d="M121 -244l100 244h-135v232h284v-210l-130 -266h-119zM86 602v229h282v-229h-282z" />
    <glyph glyph-name="less" unicode="&#x3c;" horiz-adv-x="997" 
d="M904 488l-811 128v269l811 132v-178l-398 -50l-251 -14v-48l251 -14l398 -47v-178z" />
    <glyph glyph-name="equal" unicode="=" horiz-adv-x="935" 
d="M93 820v165h749v-165h-749zM93 508v165h749v-165h-749z" />
    <glyph glyph-name="greater" unicode="&#x3e;" horiz-adv-x="997" 
d="M93 488v178l398 47l251 14v48l-250 14l-399 50v178l811 -132v-269z" />
    <glyph glyph-name="question" unicode="?" horiz-adv-x="803" 
d="M297 380l-6 186q-3 72 7.5 122t41.5 87t89 71l37 19q25 14 37 39t15.5 62.5t3.5 86.5v272q0 58 -31 86.5t-93 28.5q-58 0 -87.5 -28.5t-32.5 -86.5q-4 -76 -4 -151t3 -150h-210q-1 40 -1.5 83.5t-1 89t1.5 90.5q7 178 83.5 254.5t246.5 76.5q183 0 262.5 -76.5
t79.5 -253.5q0 -67 0.5 -109t0.5 -70.5v-55.5q-1 -97 -16 -157.5t-38.5 -95.5t-53.5 -54.5t-61 -34.5l-43 -22q-40 -19 -48 -54t-11 -70l-8 -185h-163zM238 0v229h282v-229h-282z" />
    <glyph glyph-name="at" unicode="@" horiz-adv-x="1213" 
d="M606 -279q-177 0 -288.5 38t-164.5 120.5t-55 216.5q-2 129 -3.5 248t-1.5 236.5t1 241.5t4 263q2 140 55 226t164.5 125.5t288.5 39.5q174 0 285.5 -40t166 -126t58.5 -227q2 -108 2.5 -202.5t0.5 -179.5t-1 -166.5t-3 -165.5q-3 -88 -61.5 -131.5t-162.5 -43.5
q-101 0 -149 25.5t-64 68.5h-36q-22 -44 -48.5 -70t-79.5 -26q-71 0 -106 47.5t-43 158.5q-3 66 -4 141t0.5 147.5t3.5 131.5q6 110 44 158t108 48q49 0 75 -23t50 -72h23v82h169l1 -638q0 -33 14.5 -50t41.5 -17q25 0 38.5 17t15.5 52q3 68 4.5 148t2 171t-0.5 191t-4 208
q-5 126 -83 181.5t-258 55.5q-177 0 -255 -54.5t-82 -182.5q-4 -130 -5.5 -256.5t-1.5 -250.5t1.5 -248.5t5.5 -251.5q4 -118 82 -169t255 -51q175 0 253.5 50t79.5 170v22.5t-1 27.5h167q1 -20 1.5 -29.5t-0.5 -20.5q-1 -132 -52.5 -212.5t-161 -116.5t-286.5 -36zM584 315
q23 0 48 19t34 48l-1 453q-10 30 -35.5 47t-45.5 17q-25 0 -37 -16.5t-14 -49.5q-3 -76 -4 -148.5t0.5 -147t5.5 -154.5q2 -38 13.5 -53t35.5 -15z" />
    <glyph glyph-name="A" unicode="A" horiz-adv-x="816" 
d="M32 0l196 1600h360l196 -1600h-221l-38 399h-234l-37 -399h-222zM312 591h193l-34 352l-35 465h-56l-34 -465z" />
    <glyph glyph-name="B" unicode="B" horiz-adv-x="819" 
d="M93 0v1600h304q180 0 262.5 -75t83.5 -249q1 -64 1 -114.5t-2 -98.5q-5 -96 -40 -152t-110 -82v-42q77 -26 113 -82.5t39 -154.5q2 -61 2 -112.5t-2 -113.5q-7 -173 -87 -248.5t-260 -75.5h-304zM309 192h88q65 0 97.5 33.5t33.5 101.5q1 56 1 106.5t-1 106.5
q-1 94 -32.5 134t-102.5 40h-84v-522zM309 906h87q65 0 97.5 41t33.5 121q2 58 2 110t-2 109q-1 61 -33.5 91t-96.5 30h-88v-502z" />
    <glyph glyph-name="C" unicode="C" horiz-adv-x="839" 
d="M425 -17q-182 0 -259.5 77t-80.5 255q-2 112 -3 235t-1 250t1 250.5t3 236.5q2 156 82 242.5t257 86.5q176 0 255 -76.5t85 -254.5q1 -35 1 -83.5t-1 -96t-2 -83.5h-216q1 44 1.5 97t0.5 106.5t-1 97.5q-1 59 -31.5 87t-91.5 28t-91 -28t-32 -87q-4 -127 -5.5 -258.5
t-1.5 -264.5t1.5 -265t5.5 -258q2 -59 32.5 -87.5t91.5 -28.5q65 0 97 28.5t33 87.5q1 45 1.5 100.5t-0.5 110.5t-2 100h217q2 -66 2.5 -136.5t-1.5 -136.5q-6 -178 -86.5 -255t-260.5 -77z" />
    <glyph glyph-name="D" unicode="D" horiz-adv-x="855" 
d="M93 0v1600h331q181 0 262 -78.5t84 -259.5q3 -165 4 -313t0 -296.5t-4 -313.5q-3 -181 -84 -260t-263 -79h-330zM309 192h114q66 0 98 30.5t33 92.5q3 122 4 243.5t1 242.5t-1 242.5t-4 243.5q-1 61 -33 91t-97 30h-115v-1216z" />
    <glyph glyph-name="E" unicode="E" horiz-adv-x="709" 
d="M93 0v1600h571v-192h-355v-502h335v-192h-335v-522h355v-192h-571z" />
    <glyph glyph-name="F" unicode="F" horiz-adv-x="700" 
d="M93 0v1600h571v-192h-355v-502h335v-192h-335v-714h-216z" />
    <glyph glyph-name="G" unicode="G" horiz-adv-x="842" 
d="M428 -17q-122 0 -195.5 33.5t-108 107t-38.5 192.5q-3 110 -4 232.5t-1 248t1 247t4 230.5q5 124 40 199.5t108.5 109.5t192.5 34q171 0 249.5 -77t88.5 -254q3 -62 3 -131.5t-3 -131.5h-216q3 68 3 150.5t-3 150.5q-3 58 -33.5 86.5t-88.5 28.5q-61 0 -91.5 -28.5
t-33.5 -86.5q-4 -125 -6.5 -257t-2.5 -266t2.5 -266t6.5 -257q3 -59 33.5 -87.5t92.5 -28.5t96 28.5t37 87.5q1 38 1.5 84.5t0 92t-1.5 84.5h-122v189h333q3 -84 2.5 -190t-4.5 -222q-7 -178 -86.5 -255.5t-255.5 -77.5z" />
    <glyph glyph-name="H" unicode="H" horiz-adv-x="851" 
d="M93 0v1600h216v-694h233v694h216v-1600h-216v714h-233v-714h-216z" />
    <glyph glyph-name="I" unicode="I" horiz-adv-x="402" 
d="M93 0v1600h216v-1600h-216z" />
    <glyph glyph-name="J" unicode="J" horiz-adv-x="781" 
d="M373 -17q-119 0 -189.5 33.5t-102 107t-34.5 192.5q-2 66 -2 136.5t2 136.5h204q-2 -45 -2.5 -100.5t0 -110.5t2.5 -100q2 -59 30.5 -87.5t91.5 -28.5t90 28.5t27 87.5v1322h216v-1284q0 -178 -75 -255.5t-258 -77.5z" />
    <glyph glyph-name="K" unicode="K" horiz-adv-x="842" 
d="M93 0v1600h230l-3 -383l-36 -384h43l112 402l127 365h237l-252 -687l270 -913h-220l-192 668l-96 -226v-442h-220z" />
    <glyph glyph-name="L" unicode="L" horiz-adv-x="691" 
d="M93 0v1600h216v-1408h357v-192h-573z" />
    <glyph glyph-name="M" unicode="M" horiz-adv-x="1272" 
d="M93 0v1600h362l114 -630l45 -775h45l43 775l116 630h362v-1600h-217v479l41 929h-50l-95 -942l-98 -463h-250l-96 463l-97 942h-47l38 -929v-479h-216z" />
    <glyph glyph-name="N" unicode="N" horiz-adv-x="946" 
d="M93 0v1600h330l104 -508l123 -900h49l-40 782l-16 626h210v-1600h-345l-110 549l-98 860h-52l37 -803l17 -606h-209z" />
    <glyph glyph-name="O" unicode="O" horiz-adv-x="856" 
d="M428 -17q-180 0 -259.5 76.5t-82.5 254.5q-3 120 -4 242t-1 244.5t1 244t4 242.5q3 177 82.5 253.5t259.5 76.5t258.5 -76.5t82.5 -253.5q4 -122 5.5 -244t1.5 -244t-1.5 -243.5t-5.5 -241.5q-4 -178 -82.5 -254.5t-258.5 -76.5zM428 162q64 0 94 27.5t31 86.5
q5 124 6.5 257.5t1.5 269.5t-2 268t-6 254q-1 59 -31.5 86.5t-93.5 27.5t-93.5 -27.5t-32.5 -86.5q-4 -122 -6.5 -254t-2 -268t2.5 -269.5t6 -257.5q2 -59 32.5 -86.5t93.5 -27.5z" />
    <glyph glyph-name="P" unicode="P" horiz-adv-x="806" 
d="M93 0v1600h315q179 0 259.5 -75t86.5 -249q4 -109 4 -198t-4 -187q-6 -173 -86.5 -248.5t-260.5 -75.5h-98v-567h-216zM309 759h98q65 0 96.5 30.5t34.5 90.5q3 64 4 134t0 139.5t-4 133.5q-3 61 -34 91t-96 30h-99v-649z" />
    <glyph glyph-name="Q" unicode="Q" horiz-adv-x="856" 
d="M745 -218q-140 -10 -216.5 37.5t-101.5 163.5q-179 0 -258.5 76.5t-82.5 254.5q-3 120 -4 242t-1 244.5t1 244t4 242.5q3 177 82.5 253.5t259.5 76.5t258.5 -76.5t82.5 -253.5q4 -122 5.5 -244t1.5 -244t-1.5 -243.5t-5.5 -241.5q-2 -114 -36 -184.5t-105 -104.5
q10 -41 39 -57.5t78 -11.5v-174zM428 162q64 0 94 27.5t31 86.5q5 124 6.5 257.5t1.5 269.5t-2 268t-6 254q-1 59 -31 86.5t-94 27.5q-63 0 -93.5 -27.5t-32.5 -86.5q-4 -122 -6.5 -254t-2 -268t2.5 -269.5t6 -257.5q2 -59 32.5 -86.5t93.5 -27.5z" />
    <glyph glyph-name="R" unicode="R" horiz-adv-x="825" 
d="M93 0v1600h315q179 0 259.5 -75t86.5 -249q3 -73 3.5 -133.5t0 -119t-3.5 -123.5q-3 -113 -38.5 -183.5t-109.5 -104.5l175 -612h-230l-149 576h-93v-576h-216zM309 767h98q65 0 96.5 30.5t34.5 91.5q3 64 4 131.5t0 135t-4 131.5q-3 61 -34 91t-96 30h-99v-641z" />
    <glyph glyph-name="S" unicode="S" horiz-adv-x="815" 
d="M410 -17q-179 0 -256 77.5t-84 255.5q-1 47 -1.5 91.5t1 89.5t5.5 92h204q-4 -80 -4.5 -160t4.5 -151q4 -59 35 -87.5t95 -28.5q63 0 91 28.5t34 87.5q3 45 4 84t0 79t-4 88q-4 59 -24 101t-73 56l-134 34q-90 23 -141 67.5t-73 113.5t-25 165q-1 54 -0.5 110t1.5 111
q4 118 38.5 190.5t109 106t196.5 33.5q173 0 250.5 -77t84.5 -254q2 -49 1 -120.5t-4 -142.5h-208q3 75 3.5 150.5t-2.5 150.5q-1 58 -33 86.5t-93 28.5q-64 0 -93 -28.5t-34 -86.5q-5 -64 -4.5 -129t4.5 -129t25 -103t76 -53l121 -29q95 -22 148 -68.5t75 -117t25 -166.5
q2 -42 2 -76t-1 -66.5t-2 -70.5q-7 -178 -84.5 -255.5t-255.5 -77.5z" />
    <glyph glyph-name="T" unicode="T" horiz-adv-x="699" 
d="M241 0v1408h-230v192h677v-192h-230v-1408h-217z" />
    <glyph glyph-name="U" unicode="U" horiz-adv-x="839" 
d="M420 -17q-182 0 -260.5 76.5t-80.5 254.5q-4 320 -4 643.5t4 642.5h216q-3 -213 -4 -437.5t0 -449t3 -437.5q0 -57 32 -85.5t94 -28.5q63 0 93.5 28.5t30.5 85.5q2 213 3 437.5t0.5 449t-3.5 437.5h216q5 -319 5 -642.5t-5 -643.5q-2 -178 -80.5 -254.5t-259.5 -76.5z
" />
    <glyph glyph-name="V" unicode="V" horiz-adv-x="837" 
d="M236 0l-201 1600h224l103 -847l29 -561h55l29 561l103 847h225l-201 -1600h-366z" />
    <glyph glyph-name="W" unicode="W" horiz-adv-x="1331" 
d="M180 0l-131 1600h218l44 -667l36 -741h49l20 741l97 657h306l98 -657l17 -741h48l38 741l44 667h217l-131 -1600h-365l-60 486l-34 919h-51l-35 -919l-60 -486h-365z" />
    <glyph glyph-name="X" unicode="X" horiz-adv-x="800" 
d="M35 0l214 824l-207 776h211l88 -376l41 -313h39l40 313l86 376h211l-199 -783l206 -817h-211l-91 395l-42 324h-39l-42 -324l-94 -395h-211z" />
    <glyph glyph-name="Y" unicode="Y" horiz-adv-x="791" 
d="M287 0v400v2l-259 1198h221l81 -420l42 -464h46l41 464l82 420h222l-260 -1199v-2v-399h-216z" />
    <glyph glyph-name="Z" unicode="Z" horiz-adv-x="716" 
d="M34 0v179l416 1229h-393v192h624v-183l-430 -1225h397v-192h-614z" />
    <glyph glyph-name="bracketleft" unicode="[" horiz-adv-x="604" 
d="M93 -400v2000h451v-108h-235v-1784h235v-108h-451z" />
    <glyph glyph-name="backslash" unicode="\" horiz-adv-x="736" 
d="M676 -400h-216l-400 2000h216z" />
    <glyph glyph-name="bracketright" unicode="]" horiz-adv-x="604" 
d="M525 -400h-451v108h235v1784h-235v108h451v-2000z" />
    <glyph glyph-name="asciicircum" unicode="^" horiz-adv-x="782" 
d="M93 897l226 482h144l226 -482h-143l-154 333l-155 -333h-144z" />
    <glyph glyph-name="underscore" unicode="_" horiz-adv-x="1312" 
d="M60 -120v40h1192v-40h-1192z" />
    <glyph glyph-name="grave" unicode="`" horiz-adv-x="490" 
d="M255 1280l-160 252h145l154 -252h-139z" />
    <glyph glyph-name="a" unicode="a" horiz-adv-x="823" 
d="M302 -14q-115 0 -169.5 60.5t-65.5 196.5q-1 22 -1.5 48t0.5 47q6 76 31.5 133t79.5 102t145 86q48 22 96.5 40.5t98.5 34.5v205q0 57 -22 85t-84 28q-53 0 -76.5 -23.5t-26.5 -82.5q-1 -19 -1.5 -53t0 -69.5t1.5 -58.5h-210q-1 25 -2 73t0 85q4 103 36 168t101 95.5
t184 30.5q120 0 188.5 -33.5t97.5 -105.5t29 -188l-1 -890h-216v119h-30q-29 -67 -69.5 -100t-113.5 -33zM387 144q45 0 77.5 26t51.5 72v342q-35 -11 -70 -25.5t-71 -38.5q-55 -33 -73.5 -78.5t-21.5 -103.5q-1 -19 -1 -39t1 -40q5 -56 32.5 -85.5t74.5 -29.5z" />
    <glyph glyph-name="b" unicode="b" horiz-adv-x="861" 
d="M541 -17q-82 0 -124 34.5t-78 100.5h-27v-118h-216v1600h216v-518h40q36 66 78.5 100.5t123.5 34.5q110 0 164.5 -66.5t60.5 -221.5q2 -71 3.5 -157t1.5 -176t-1.5 -174.5t-3.5 -150.5q-6 -154 -67.5 -221t-170.5 -67zM466 144q50 0 72.5 26t24.5 83q4 74 5.5 159.5
t1.5 177t-1.5 182.5t-5.5 175q-2 57 -24.5 83t-72.5 26q-48 0 -91.5 -26t-62.5 -78v-704q19 -51 62.5 -77.5t91.5 -26.5z" />
    <glyph glyph-name="c" unicode="c" horiz-adv-x="799" 
d="M519 765q1 25 1.5 60t0 68t-0.5 53q-2 59 -27.5 82.5t-83.5 23.5t-83.5 -23.5t-27.5 -82.5q-2 -89 -3 -174.5t-1 -169.5t1 -168.5t3 -172.5q2 -63 28 -88t86 -25q56 0 81 25t27 88q1 31 1 76.5t-2 101.5h211q2 -28 3 -74t-1 -82q-7 -160 -81 -230t-239 -70
q-169 0 -246 70t-85 230q-2 57 -3 139.5t-1 173t1 174.5t3 144q11 163 86.5 233t241.5 70q167 0 242 -68.5t81 -226.5q1 -36 0.5 -82.5t-2.5 -74.5h-211z" />
    <glyph glyph-name="d" unicode="d" horiz-adv-x="861" 
d="M311 -17q-110 0 -166.5 67t-63.5 221q-2 66 -3 150.5t-1 174.5t1 176t3 157q7 155 65.5 221.5t167.5 66.5q82 0 124 -34.5t78 -100.5h33v518h216v-1600h-216v118h-34q-36 -65 -79 -100t-125 -35zM395 144q49 0 92 26.5t62 77.5v704q-19 52 -62 78t-92 26t-72 -26t-25 -83
q-5 -112 -6 -235t0 -241.5t6 -217.5q2 -57 24.5 -83t72.5 -26z" />
    <glyph glyph-name="e" unicode="e" horiz-adv-x="801" 
d="M413 -17q-170 0 -246.5 70t-85.5 230q-2 57 -3 139.5t-1 173t1 174.5t3 144q11 163 87 233t243 70q164 0 238.5 -68.5t82.5 -225.5q1 -27 1.5 -84.5t0 -131t-3.5 -146.5h-436q0 -73 1.5 -147.5t2.5 -152.5q2 -63 28.5 -88t85.5 -25q56 0 80 25t27 88q2 30 2 76t-2 102
h211q2 -27 3 -73.5t-1 -82.5q-8 -160 -80.5 -230t-238.5 -70zM294 716h227q1 49 1 96t-1 82.5t-2 51.5q-3 57 -27.5 81.5t-80.5 24.5q-59 0 -85 -24.5t-28 -81.5q-1 -61 -2 -118t-2 -112z" />
    <glyph glyph-name="f" unicode="f" horiz-adv-x="575" 
d="M132 0v1034h-114v166h114v120q-1 160 79 229.5t249 69.5q31 0 66.5 -4t66.5 -10v-160q-31 2 -64.5 3t-67.5 1q-58 0 -86 -27t-27 -86v-136h204v-166h-204v-1034h-216z" />
    <glyph glyph-name="g" unicode="g" horiz-adv-x="865" 
d="M403 -364q-154 0 -235.5 44t-94.5 132q-2 11 -3.5 27t-0.5 32q5 51 39.5 86t88.5 42v34q-49 11 -77.5 38.5t-34.5 71.5q-1 12 -1 23.5t1 25.5q5 43 40 70.5t86 34.5v34q-70 32 -103.5 97t-40.5 170q-1 49 -2 87t-1 72.5t1 72.5t2 84q6 106 39.5 172.5t105 98.5t190.5 32
q116 0 183.5 -30.5t102.5 -96.5h34q7 57 41 83.5t100 26.5v-166h-32q-45 0 -70 -27.5t-26 -91.5l-1 -84q1 -31 1 -58v-53.5t-0.5 -55.5t-2.5 -66q-6 -109 -40.5 -176t-104.5 -96.5t-187 -29.5q-85 1 -118.5 -15t-33.5 -52v-9q0 -23 10.5 -36.5t43 -19.5t99.5 -8
q176 -4 261 -56.5t100 -165.5q2 -17 2 -35t-2 -40q-8 -80 -51 -129t-120 -71.5t-188 -22.5zM408 -211q52 0 89.5 8.5t59 27.5t26.5 49q4 14 3.5 26.5t-4.5 25.5q-6 32 -27.5 49t-58 24t-87.5 8q-78 2 -117 -16.5t-47 -64.5q-3 -13 -3 -26.5t2 -25.5q5 -32 24.5 -50.5
t54.5 -26.5t85 -8zM400 460q67 0 91.5 27.5t28.5 82.5q2 37 3 84.5t1 98.5t-1 100t-3 88q-4 59 -30 85t-90 26q-65 0 -92 -26t-29 -87q-2 -53 -3 -103t-1 -96t1 -87.5t3 -78.5q3 -54 27.5 -84t93.5 -30z" />
    <glyph glyph-name="h" unicode="h" horiz-adv-x="873" 
d="M96 0v1600h216v-518h40q36 66 78.5 100.5t123.5 34.5q110 0 169 -66.5t59 -221.5v-929h-216v947q0 57 -25 83t-75 26q-48 0 -91.5 -26t-62.5 -78v-952h-216z" />
    <glyph glyph-name="i" unicode="i" horiz-adv-x="408" 
d="M77 1407v193h255v-193h-255zM96 0v1200h216v-1200h-216z" />
    <glyph glyph-name="j" unicode="j" horiz-adv-x="410" 
d="M78 1407v193h255v-193h-255zM-17 -418q-30 0 -66 4t-67 9v163q26 -3 64.5 -4.5t67.5 -1.5q58 0 86.5 27t28.5 86v1335h216v-1319q0 -159 -80 -229t-250 -70z" />
    <glyph glyph-name="k" unicode="k" horiz-adv-x="776" 
d="M96 0v1600h202v-367l-24 -532h37l85 240l111 259h224l-224 -473l267 -727h-222l-181 506l-68 -125v-381h-207z" />
    <glyph glyph-name="l" unicode="l" horiz-adv-x="408" 
d="M96 0v1600h216v-1600h-216z" />
    <glyph glyph-name="m" unicode="m" horiz-adv-x="1333" 
d="M96 0v1200h216v-118h39q36 66 78.5 100.5t124.5 34.5q81 0 133 -35t75 -114h37q36 67 85 108t132 41q109 0 167.5 -66.5t58.5 -221.5v-929h-216v947q0 57 -24 83t-74 26q-46 0 -86.5 -29.5t-60.5 -78.5v-948h-216v947q-1 57 -25 83t-74 26q-48 0 -91.5 -26t-62.5 -78
v-952h-216z" />
    <glyph glyph-name="n" unicode="n" horiz-adv-x="873" 
d="M96 0v1200h216v-118h40q35 65 78.5 100t123.5 35q110 0 168.5 -66.5t59.5 -221.5v-929h-216v947q-1 57 -25.5 83t-74.5 26q-46 0 -90.5 -27.5t-63.5 -76.5v-952h-216z" />
    <glyph glyph-name="o" unicode="o" horiz-adv-x="835" 
d="M418 -17q-120 0 -191.5 33t-104.5 106t-40 192q-2 57 -3.5 131t-1.5 153t1.5 154t3.5 135q7 118 40 190.5t104.5 106t191.5 33.5q122 0 192.5 -33.5t103.5 -106t39 -190.5q2 -58 3 -131.5t1 -153t-1 -154t-3 -134.5q-6 -118 -39 -191t-103.5 -106.5t-192.5 -33.5z
M418 148q63 0 90 27t28 87q3 88 4.5 172t1.5 167t-1.5 166.5t-4.5 171.5q-1 59 -27.5 86t-90.5 27q-62 0 -90 -27t-30 -86q-2 -88 -3.5 -172t-1.5 -167t1.5 -167t3.5 -171q2 -60 30 -87t90 -27z" />
    <glyph glyph-name="p" unicode="p" horiz-adv-x="861" 
d="M96 -400v1600h216v-118h34q35 66 77 100.5t124 34.5q110 0 168 -66.5t64 -221.5q2 -57 3.5 -142.5t1.5 -180t-1.5 -183t-3.5 -152.5q-6 -154 -69.5 -221t-173.5 -67q-63 0 -107 31.5t-83 103.5h-34v-518h-216zM452 144q51 0 80 26t31 83q4 85 5.5 174t1.5 179.5t-2 177
t-5 163.5q-2 57 -24.5 83t-72.5 26q-48 0 -91.5 -26t-62.5 -78v-704q21 -56 54 -80t86 -24z" />
    <glyph glyph-name="q" unicode="q" horiz-adv-x="861" 
d="M549 -400v518h-31q-38 -72 -82 -103.5t-109 -31.5q-109 0 -174 67t-72 221q-1 57 -2.5 142t-1.5 179.5t1 183t3 153.5q7 155 65.5 221.5t166.5 66.5q83 0 124.5 -34.5t77.5 -100.5h34v118h216v-1600h-216zM408 144q54 0 87 24t54 80v704q-19 52 -62 78t-92 26
q-50 0 -72.5 -26t-24.5 -83q-5 -116 -6.5 -238t0 -239.5t6.5 -216.5q2 -57 31.5 -83t78.5 -26z" />
    <glyph glyph-name="r" unicode="r" horiz-adv-x="598" 
d="M96 0v1200h216v-132h40q13 77 52.5 107t104.5 30q21 0 41.5 -1t32.5 -2v-168h-72q-99 0 -142.5 -33t-56.5 -98v-903h-216z" />
    <glyph glyph-name="s" unicode="s" horiz-adv-x="759" 
d="M373 -17q-161 0 -229.5 70t-74.5 230q-1 36 -0.5 82t2.5 74h190q-1 -56 -1 -101.5t1 -76.5q2 -63 29 -88t83 -25q65 0 93.5 25t29.5 88v40.5t0.5 26t-0.5 37.5q0 52 -16 82.5t-59 43.5l-118 36q-79 25 -132 61.5t-79.5 94.5t-27.5 146v42t1 42q1 163 71.5 233.5
t247.5 70.5q163 0 229.5 -68.5t73.5 -226.5q1 -36 0.5 -82.5t-2.5 -74.5h-197q1 25 1.5 60t0 68t-1.5 53q-2 59 -24.5 82.5t-79.5 23.5q-60 0 -83 -23.5t-25 -82.5q-1 -29 -2 -46.5t0 -53.5q0 -56 14 -92t66 -52l106 -29q119 -30 178 -97.5t59 -199.5q0 -23 -0.5 -49
t-1.5 -50q-1 -157 -74.5 -225.5t-247.5 -68.5z" />
    <glyph glyph-name="t" unicode="t" horiz-adv-x="588" 
d="M473 -17q-184 0 -260.5 70t-76.5 230v751h-98v166h100v340h217v-340h191v-166h-194v-775q0 -63 22.5 -87.5t99.5 -24.5q26 0 46 1t46 3v-158q-21 -5 -44.5 -7.5t-48.5 -2.5z" />
    <glyph glyph-name="u" unicode="u" horiz-adv-x="867" 
d="M321 -17q-109 0 -171 67t-62 221v929h216v-947q0 -57 23.5 -83t73.5 -26q47 0 91.5 27.5t62.5 76.5v952h216v-1200h-216v118h-32q-38 -70 -86.5 -102.5t-115.5 -32.5z" />
    <glyph glyph-name="v" unicode="v" horiz-adv-x="752" 
d="M191 0l-163 1200h220l66 -604l29 -434h62l30 434l69 604h220l-167 -1200h-366z" />
    <glyph glyph-name="w" unicode="w" horiz-adv-x="1288" 
d="M171 0l-140 1200h217l50 -604l24 -434h66l18 434l54 601h365l52 -601l18 -434h66l25 434l52 604h218l-143 -1200h-377l-35 464l-24 571h-70l-25 -571l-35 -464h-376z" />
    <glyph glyph-name="x" unicode="x" horiz-adv-x="712" 
d="M20 0l180 626l-176 574h209l67 -254l32 -232h48l33 232l67 254h209l-178 -579l182 -621h-209l-74 307l-30 248h-47l-29 -248l-75 -307h-209z" />
    <glyph glyph-name="y" unicode="y" horiz-adv-x="769" 
d="M197 -414q-30 0 -69 3.5t-70 8.5v163q26 -2 67.5 -4t70.5 -2q77 0 105.5 25.5t36.5 88.5l17 131h-129l-190 1200h220l61 -564l52 -474h61l37 474l53 564h219l-185 -1315q-15 -106 -52.5 -172t-110.5 -96.5t-194 -30.5z" />
    <glyph glyph-name="z" unicode="z" horiz-adv-x="681" 
d="M38 0v138l375 900l-367 -1v162l598 1v-142l-380 -896h373v-162h-599z" />
    <glyph glyph-name="braceleft" unicode="{" horiz-adv-x="677" 
d="M617 -403q-112 0 -202.5 34.5t-144 110t-53.5 198.5q0 24 1.5 69.5t3.5 100.5t4 108t3 94t1 58q0 81 -26.5 104t-75.5 23h-68v201h68q49 1 75.5 23.5t26.5 103.5q0 17 -1 58t-2.5 94.5t-3.5 109t-3 101.5t-1 69q0 124 53 199.5t143 109.5t202 34v-110q-50 0 -92.5 -31.5
t-68 -84t-25.5 -117.5q0 -20 1 -56.5t2.5 -80.5t3 -89t2.5 -82.5t1 -59.5q0 -108 -40.5 -181.5t-124.5 -90.5v-36q84 -17 124.5 -91t40.5 -181q0 -23 -1 -60.5t-2.5 -82.5t-3 -89t-2.5 -80.5t-1 -56.5q0 -65 25.5 -117.5t68 -83.5t92.5 -31v-111z" />
    <glyph glyph-name="bar" unicode="|" horiz-adv-x="402" 
d="M93 1820h216v-2060h-216v2060z" />
    <glyph glyph-name="braceright" unicode="}" horiz-adv-x="664" 
d="M47 -403v111q51 0 93 31t67.5 83.5t25.5 117.5q0 20 -1 56.5t-2.5 80.5t-3 89t-2.5 82.5t-1 60.5q0 107 41 181t124 91v36q-83 17 -124 90.5t-41 181.5q0 22 1 59.5t2.5 82.5t3 89t2.5 80.5t1 56.5q0 65 -25.5 117.5t-67.5 84t-93 31.5v110q111 0 201.5 -34t143.5 -109.5
t53 -199.5q0 -23 -1 -69t-2.5 -101.5t-3.5 -109t-3.5 -94.5t-1.5 -58q0 -81 27.5 -103.5t75.5 -23.5h68v-201h-68q-49 0 -76 -23t-27 -104q0 -17 1.5 -58t3.5 -94t4 -108t3 -100.5t1 -69.5q0 -123 -53 -198.5t-144 -110t-202 -34.5z" />
    <glyph glyph-name="asciitilde" unicode="~" horiz-adv-x="992" 
d="M650 610q-56 1 -97 20.5t-74.5 44.5t-66.5 45.5t-72 23.5q-53 4 -86.5 -27.5t-39.5 -90.5h-121q11 149 80.5 214.5t173.5 60.5q62 -3 103.5 -22.5t73 -44.5t62 -44t69.5 -20q55 -3 87.5 25.5t35.5 79.5h121q-7 -141 -74 -205t-175 -60z" />
    <glyph glyph-name="uni00A0" unicode="&#xa0;" horiz-adv-x="427" 
 />
    <glyph glyph-name="exclamdown" unicode="&#xa1;" horiz-adv-x="455" 
d="M149 822h158l30 -831v-391h-219v391zM86 1200h282v-229h-282v229z" />
    <glyph glyph-name="cent" unicode="&#xa2;" horiz-adv-x="799" 
d="M311 0v192q-116 17 -169.5 87t-60.5 204q-2 57 -3 139.5t-1 173t1 174.5t3 144q7 137 61 207t169 88v191h189v-190q118 -15 172.5 -84t59.5 -204q1 -36 0.5 -82.5t-2.5 -74.5h-211q1 25 1.5 60t0 68t-1.5 53q-2 59 -27.5 82.5t-82.5 23.5q-58 0 -83.5 -23.5t-27.5 -82.5
q-2 -89 -3 -174.5t-1 -169.5t1 -168.5t3 -172.5q2 -63 28 -88t86 -25q56 0 80.5 25t26.5 88q2 31 2 76.5t-2 101.5h211q2 -28 3 -74t-1 -82q-6 -137 -60.5 -207t-171.5 -87v-189h-189z" />
    <glyph glyph-name="sterling" unicode="&#xa3;" horiz-adv-x="913" 
d="M132 0v186q33 20 54 76t32 139.5t11 185.5q0 51 -4 94.5t-10 82.5h-120v110h93q-15 60 -29.5 120t-24 131t-9.5 162q2 156 82.5 242.5t257.5 86.5q176 0 255 -76.5t84 -254.5q1 -35 1 -83.5t-1 -96t-2 -83.5h-216q1 33 1.5 72t1 79t0.5 78.5t-1 71.5q-1 59 -31.5 87
t-91.5 28t-91.5 -28t-32.5 -87q0 -81 12 -153.5t29 -144.5t32 -151h177v-110h-163q5 -34 7.5 -70t2.5 -75q0 -139 -28 -236t-75 -154v-37h485v-192h-688z" />
    <glyph glyph-name="currency" unicode="&#xa4;" horiz-adv-x="1096" 
d="M191 53l-93 79l146 172q-19 37 -28.5 86t-13.5 110q-2 58 -3.5 131.5t-1.5 153t1.5 154.5t3.5 135q4 63 14.5 113.5t30.5 87.5l-151 175l89 78l145 -167q74 42 208 42q147 0 222 -51l155 173l88 -81l-168 -185q17 -35 26 -81t11 -104q3 -58 4 -132t1 -153t-1 -154
t-4 -135q-2 -57 -11.5 -103.5t-26.5 -83.5l154 -180l-90 -80l-141 165q-72 -48 -219 -48q-138 0 -212 45zM538 335q63 0 90 27t28 87q3 88 4.5 171.5t1.5 166.5t-1.5 167t-4.5 171q-1 60 -27.5 87t-90.5 27q-63 0 -90.5 -27t-29.5 -87q-2 -87 -3.5 -171.5t-1.5 -167
t1.5 -166.5t3.5 -171q2 -60 30 -87t90 -27z" />
    <glyph glyph-name="yen" unicode="&#xa5;" horiz-adv-x="791" 
d="M287 0v147h-181v83h181v55h-181v83h181v30v2l-259 1200h222l81 -420l41 -464h46l42 464l81 420h222l-259 -1200v-2v-30h182v-83h-182v-55h182v-83h-182v-147h-217z" />
    <glyph glyph-name="brokenbar" unicode="&#xa6;" horiz-adv-x="402" 
d="M93 1820h216v-804h-216v804zM93 536h216v-776h-216v776z" />
    <glyph glyph-name="section" unicode="&#xa7;" horiz-adv-x="824" 
d="M405 -417q-108 0 -173.5 25t-96 85.5t-35.5 167.5q-1 24 -1 59t1 67.5t2 51.5h191q-1 -37 -1.5 -70t-0.5 -60t1 -48q3 -63 30 -88t83 -25q65 0 93 25t29 88q1 37 1.5 77.5t-0.5 75.5q-1 53 -13.5 84t-61.5 43l-108 29q-116 30 -180.5 90.5t-68.5 177.5q-2 71 -2 129
t2 136q2 87 37.5 141.5t87.5 77.5v37q-53 21 -87 63t-39 131q-2 42 -1.5 93.5t2.5 85.5q9 108 39 167t96 81.5t185 22.5q162 0 229 -68.5t73 -225.5q2 -36 1.5 -79.5t-3.5 -91.5h-197q1 32 2 70t0.5 71.5t-1.5 52.5q-3 60 -25.5 76.5t-78.5 16.5q-60 0 -82 -16.5t-27 -76.5
q-2 -28 -3 -85.5t0 -93.5q3 -56 15.5 -89t65.5 -45l106 -26q112 -26 171 -100.5t66 -195.5q4 -81 3.5 -136t-4.5 -123q-5 -74 -38 -122t-83 -71v-31q57 -23 89 -76t35 -131q1 -34 0 -75t-3 -71q-7 -104 -38.5 -164.5t-99.5 -87t-184 -26.5zM419 330q63 0 86 33t28 81
q3 38 4 84t0 92.5t-4 82.5q-5 48 -27.5 80t-86.5 32q-63 0 -89 -32t-31 -80q-4 -54 -3.5 -129t3.5 -130q7 -49 32 -81.5t88 -32.5z" />
    <glyph glyph-name="dieresis" unicode="&#xa8;" horiz-adv-x="626" 
d="M373 1310v154h154v-154h-154zM127 1310v154h153v-154h-153z" />
    <glyph glyph-name="copyright" unicode="&#xa9;" horiz-adv-x="1273" 
d="M637 -10q-180 0 -301 68t-182 203.5t-61 338.5t61 338.5t182 203.5t301 68q270 0 406.5 -152.5t136.5 -457.5q0 -203 -60.5 -338.5t-181.5 -203.5t-301 -68zM637 98q210 0 316 125t106 377t-106 377t-316 125q-211 0 -317 -124.5t-106 -377.5q0 -252 106 -377t317 -125z
M640 206q-114 0 -165 48t-58 159q-1 32 -2 79.5t-1 100t1 102t2 84.5q6 113 57 161.5t165 48.5q115 0 164 -48t55 -156q2 -20 1 -37.5t-3 -32.5h-133q2 20 1 43.5t-1 39.5q0 48 -19.5 66t-64.5 18q-44 0 -63.5 -18t-21.5 -66q-2 -74 -2 -138t1 -127t1 -135q1 -49 21.5 -67.5
t64.5 -18.5t62.5 18.5t20.5 67.5q2 20 2 37.5t-2 50.5h133q2 -17 3 -34.5t-1 -38.5q-7 -110 -55.5 -158.5t-162.5 -48.5z" />
    <glyph glyph-name="ordfeminine" unicode="&#xaa;" horiz-adv-x="717" 
d="M281 754q-90 0 -131.5 42.5t-54.5 144.5q-1 15 -1.5 31.5t0.5 33.5q8 83 51.5 133.5t153.5 91.5q38 15 75.5 27t81.5 23q0 34 -1 67t-3 65q-1 36 -16.5 55.5t-67.5 19.5q-42 0 -60.5 -15.5t-23.5 -56.5q-1 -8 -1 -34.5t1 -52.5t1 -35h-166q-1 8 -1.5 29.5t-0.5 43.5v33
q7 112 61.5 164.5t194.5 52.5q96 0 149.5 -25t75.5 -78.5t25 -139.5q1 -34 1 -91v-126.5t-0.5 -141.5t-0.5 -137v-113h-172q0 22 0.5 43t1.5 43h-25q-23 -47 -54.5 -72t-92.5 -25zM348 878q35 0 63.5 17.5t44.5 50.5v109.5v108.5q-29 -6 -59 -16t-58 -25
q-44 -20 -58.5 -49.5t-18.5 -67.5q0 -9 0.5 -25.5t0.5 -25.5q1 -39 25.5 -58t59.5 -19z" />
    <glyph glyph-name="guillemotleft" unicode="&#xab;" horiz-adv-x="673" 
d="M306 843l-286 -321v207l286 320v-206zM306 202l-286 320v207l286 -320v-207zM574 843l-286 -321v207l286 320v-206zM574 202l-286 320v207l286 -320v-207z" />
    <glyph glyph-name="logicalnot" unicode="&#xac;" horiz-adv-x="935" 
d="M678 476v344h-585v165h749v-509h-164z" />
    <glyph glyph-name="uni00AD" unicode="&#xad;" horiz-adv-x="763" 
d="M60 642v192h643v-192h-643z" />
    <glyph glyph-name="registered" unicode="&#xae;" horiz-adv-x="863" 
d="M434 1001q-168 0 -254.5 95t-86.5 279q0 187 86.5 281.5t254.5 94.5q166 0 251.5 -94.5t85.5 -281.5q0 -184 -85.5 -279t-251.5 -95zM434 1070q137 0 202.5 74t65.5 231q0 159 -65.5 233t-202.5 74q-139 0 -205.5 -74t-66.5 -233q0 -157 66.5 -231t205.5 -74zM333 1176
v424h106q58 0 84.5 -23t29.5 -79v-22v-23q-1 -31 -15 -49.5t-43 -25.5v-12q29 -6 42 -24t14 -51q1 -17 2 -34.5t1 -37t-1 -43.5h-77q1 32 0.5 65.5t-2.5 60.5q-2 40 -35 40h-29v-166h-77zM410 1410h30q17 0 26 8.5t9 26.5q1 14 1 28t-1 30q0 29 -36 29h-29v-122z" />
    <glyph glyph-name="macron" unicode="&#xaf;" horiz-adv-x="829" 
d="M127 1373h556v-104h-556v104z" />
    <glyph glyph-name="degree" unicode="&#xb0;" horiz-adv-x="624" 
d="M313 1182q-60 0 -110 30t-80 79.5t-30 108.5q0 60 30 110t80 80t110 30q59 0 108.5 -30t79.5 -80t30 -110q0 -59 -30 -108.5t-79.5 -79.5t-108.5 -30zM313 1275q52 0 88.5 37t36.5 88q0 53 -36.5 90t-88.5 37q-53 0 -90 -37t-37 -90q0 -51 37 -88t90 -37z" />
    <glyph glyph-name="plusminus" unicode="&#xb1;" horiz-adv-x="975" 
d="M406 511v152h-313v164h313v193h164v-193h312v-164h-312v-152h-164zM93 286v135h789v-135h-789z" />
    <glyph glyph-name="uni00B2" unicode="&#xb2;" horiz-adv-x="535" 
d="M63 879q-1 46 -1 77t1 75q1 76 42 126t107 84l66 34q27 16 34.5 33.5t10.5 45.5q2 22 2 42t-2 42q-1 19 -13.5 31.5t-39.5 12.5q-48 0 -50 -43q-3 -32 -2 -64t2 -53h-154q-1 22 -2 48t0 49q3 95 56.5 142.5t148.5 47.5q104 0 157 -48.5t54 -141.5q0 -10 0.5 -20t0.5 -21
v-24q-1 -73 -37 -117t-104 -78l-79 -37q-14 -10 -25 -29t-11 -44v-32h240v-138h-402z" />
    <glyph glyph-name="uni00B3" unicode="&#xb3;" horiz-adv-x="546" 
d="M276 870q-105 0 -162 45t-58 134q0 11 -0.5 20t0 20.5t1.5 26.5h156q-1 -18 -1.5 -35t0.5 -31q1 -24 15 -38.5t44 -14.5t44.5 13t14.5 36q0 22 0.5 44t-0.5 45q0 28 -15 42t-46 14h-99l-4 115l119 156h-215v138h407l-2 -134l-136 -154q70 -10 109 -52.5t40 -121.5v-30.5
v-32v-26.5q-1 -86 -54.5 -132.5t-157.5 -46.5z" />
    <glyph glyph-name="acute" unicode="&#xb4;" horiz-adv-x="483" 
d="M85 1280l167 252h146l-174 -252h-139z" />
    <glyph glyph-name="uni00B5" unicode="&#xb5;" horiz-adv-x="899" 
d="M96 -400l-3 1600h216l2 -947q0 -57 24 -83t74 -26q47 0 90 27.5t61 76.5v952h216v-980q0 -72 7.5 -129.5t22.5 -90.5h-216q-9 21 -15 51t-11 67h-36q-24 -47 -54 -76.5t-69 -42.5q-50 -14 -93 -4v-395h-216z" />
    <glyph glyph-name="paragraph" unicode="&#xb6;" horiz-adv-x="1008" 
d="M498 -200v950h-67q-120 0 -191 33.5t-104.5 106t-40.5 191.5q-1 28 -1.5 62.5t0 68t1.5 60.5q6 118 39.5 190t104.5 105t192 33h484v-121h-82v-1679h-135v1679h-66v-1679h-134z" />
    <glyph glyph-name="periodcentered" unicode="&#xb7;" horiz-adv-x="340" 
d="M86 751v167h168v-167h-168z" />
    <glyph glyph-name="cedilla" unicode="&#xb8;" horiz-adv-x="436" 
d="M76 -299v107h61q54 0 76.5 22.5t14.5 74.5l-16 95h116l15 -95q16 -107 -34.5 -155.5t-171.5 -48.5h-61z" />
    <glyph glyph-name="uni00B9" unicode="&#xb9;" horiz-adv-x="370" 
d="M128 882v587h-84l-2 54l121 79h123v-720h-158z" />
    <glyph glyph-name="ordmasculine" unicode="&#xba;" horiz-adv-x="726" 
d="M362 753q-139 0 -198.5 55.5t-65.5 191.5q-1 19 -2 55t-1.5 80.5t-0.5 89.5t1 83.5t3 62.5q7 90 33.5 144t81 78t146.5 24q149 0 206.5 -59t64.5 -187q1 -24 2 -62.5t1.5 -83.5t0 -89.5t-1 -80.5t-2.5 -55q-7 -85 -31.5 -140t-80.5 -81t-156 -26zM364 881q52 0 73 18.5
t22 58.5q3 68 4 124.5t1 109t-1.5 106t-3.5 115.5q-1 39 -22 57.5t-73 18.5q-49 0 -71 -18.5t-24 -57.5q-4 -82 -5.5 -151.5t0 -141t5.5 -162.5q2 -40 24 -58.5t71 -18.5z" />
    <glyph glyph-name="guillemotright" unicode="&#xbb;" horiz-adv-x="673" 
d="M368 843v206l285 -320v-207zM368 202v207l285 320v-207zM99 843v206l286 -320v-207zM99 202v207l286 320v-207z" />
    <glyph glyph-name="onequarter" unicode="&#xbc;" horiz-adv-x="931" 
d="M128 881v587h-84l-2 54l121 79h123v-720h-158zM-141 0l884 1600h166l-886 -1600h-164zM808 720v-413h80v-136h-80v-171h-148v171h-239v131l186 418h201zM660 307l21 156l18 119h-28l-41 -119l-54 -156h84z" />
    <glyph glyph-name="onehalf" unicode="&#xbd;" horiz-adv-x="948" 
d="M128 881v587h-84l-2 54l121 79h123v-720h-158zM-141 0l884 1600h166l-886 -1600h-164zM476 0q-1 46 -1 77t1 75q1 76 42 126t107 84l66 34q27 16 34.5 33.5t10.5 45.5q2 22 2 42t-2 42q-1 19 -13.5 31.5t-39.5 12.5q-48 0 -50 -43q-3 -32 -2 -64t2 -53h-154q-1 22 -2 48
t0 49q3 95 56.5 142.5t148.5 47.5q104 0 157 -48.5t54 -141.5q0 -10 0.5 -20t0.5 -21v-24q-1 -73 -37 -117t-104 -78l-79 -37q-14 -10 -25 -29t-11 -44v-32h240v-138h-402z" />
    <glyph glyph-name="threequarters" unicode="&#xbe;" horiz-adv-x="1161" 
d="M276 870q-105 0 -162 45t-58 134q0 11 -0.5 20t0 20.5t1.5 26.5h156q-1 -18 -1.5 -35t0.5 -31q1 -24 15 -38.5t44 -14.5t44.5 13t14.5 36q0 22 0.5 44t-0.5 45q0 28 -15 42t-46 14h-99l-4 115l119 156h-215v138h407l-2 -134l-136 -154q70 -10 109 -52.5t40 -121.5v-30.5
v-32v-26.5q-1 -86 -54.5 -132.5t-157.5 -46.5zM90 0l884 1600h166l-886 -1600h-164zM1038 720v-413h80v-136h-80v-171h-148v171h-239v131l186 418h201zM890 307l21 156l18 119h-28l-41 -119l-54 -156h84z" />
    <glyph glyph-name="questiondown" unicode="&#xbf;" horiz-adv-x="803" 
d="M407 -418q-182 0 -262 76.5t-80 253.5v109t-0.5 71t0.5 55q1 97 15.5 157.5t38.5 95.5t53.5 54.5t60.5 34.5l43 22q40 20 48.5 54.5t11.5 69.5l7 185h164l5 -186q4 -72 -6.5 -122t-41.5 -87t-89 -71l-37 -19q-25 -14 -37 -39t-16 -62.5t-4 -86.5v-272q0 -58 31.5 -86.5
t92.5 -28.5q59 0 88 28.5t32 86.5q5 76 5 151t-3 150h209q1 -40 2 -83.5t1 -88.5t-1 -91q-7 -177 -83.5 -254t-247.5 -77zM284 971v229h282v-229h-282z" />
    <glyph glyph-name="Agrave" unicode="&#xc0;" horiz-adv-x="816" 
d="M32 0l196 1600h360l196 -1600h-221l-38 399h-234l-37 -399h-222zM312 591h193l-34 352l-35 465h-56l-34 -465zM318 1680l-160 252h145l154 -252h-139z" />
    <glyph glyph-name="Aacute" unicode="&#xc1;" horiz-adv-x="816" 
d="M32 0l196 1600h360l196 -1600h-221l-38 399h-234l-37 -399h-222zM312 591h193l-34 352l-35 465h-56l-34 -465zM345 1680l167 252h146l-174 -252h-139z" />
    <glyph glyph-name="Acircumflex" unicode="&#xc2;" horiz-adv-x="816" 
d="M32 0l196 1600h360l196 -1600h-221l-38 399h-234l-37 -399h-222zM312 591h193l-34 352l-35 465h-56l-34 -465zM196 1682l147 252h130l146 -252h-145l-66 126l-67 -126h-145z" />
    <glyph glyph-name="Atilde" unicode="&#xc3;" horiz-adv-x="816" 
d="M32 0l196 1600h360l196 -1600h-221l-38 399h-234l-37 -399h-222zM312 591h193l-34 352l-35 465h-56l-34 -465zM543 1862h88q-3 -92 -36 -136.5t-94 -44.5q-38 0 -60.5 13t-38 29.5t-32 29t-43.5 12.5q-26 0 -36.5 -19.5t-14.5 -54.5h-88q8 98 42.5 143t96.5 45
q39 0 62.5 -12.5t39.5 -29t31.5 -29t39.5 -12.5t33 17t10 49z" />
    <glyph glyph-name="Adieresis" unicode="&#xc4;" horiz-adv-x="816" 
d="M32 0l196 1600h360l196 -1600h-221l-38 399h-234l-37 -399h-222zM312 591h193l-34 352l-35 465h-56l-34 -465zM455 1710v154h154v-154h-154zM209 1710v154h153v-154h-153z" />
    <glyph glyph-name="Aring" unicode="&#xc5;" horiz-adv-x="816" 
d="M32 0l196 1600h360l196 -1600h-221l-38 399h-234l-37 -399h-222zM312 591h193l-34 352l-35 465h-56l-34 -465zM408 1672q-71 0 -122.5 51t-51.5 124q0 72 51.5 123t122.5 51q73 0 124 -51t51 -123q0 -73 -51 -124t-124 -51zM408 1789q25 0 42 16.5t17 41.5q0 24 -17 41
t-42 17q-24 0 -40.5 -17t-16.5 -41q0 -25 16.5 -41.5t40.5 -16.5z" />
    <glyph glyph-name="AE" unicode="&#xc6;" horiz-adv-x="1159" 
d="M32 0l297 1600h785v-192h-356v-502h336v-192h-336v-522h356v-192h-572v399h-202l-73 -399h-235zM379 591h163v817h-48l-59 -520z" />
    <glyph glyph-name="Ccedilla" unicode="&#xc7;" horiz-adv-x="839" 
d="M425 -17q-182 0 -259.5 77t-80.5 255q-2 112 -3 235t-1 250t1 250.5t3 236.5q2 156 82 242.5t257 86.5q176 0 255 -76.5t85 -254.5q1 -35 1 -83.5t-1 -96t-2 -83.5h-216q1 44 1.5 97t0.5 106.5t-1 97.5q-1 59 -31.5 87t-91.5 28t-91 -28t-32 -87q-4 -127 -5.5 -258.5
t-1.5 -264.5t1.5 -265t5.5 -258q2 -59 32.5 -87.5t91.5 -28.5q65 0 97 28.5t33 87.5q1 45 1.5 100.5t-0.5 110.5t-2 100h217q2 -66 2.5 -136.5t-1.5 -136.5q-6 -178 -86.5 -255t-260.5 -77zM225 -285v107h61q54 0 76.5 22.5t14.5 74.5l-16 95h116l15 -95
q16 -107 -34.5 -155.5t-171.5 -48.5h-61z" />
    <glyph glyph-name="Egrave" unicode="&#xc8;" horiz-adv-x="709" 
d="M93 0v1600h571v-192h-355v-502h335v-192h-335v-522h355v-192h-571zM274 1680l-160 252h145l154 -252h-139z" />
    <glyph glyph-name="Eacute" unicode="&#xc9;" horiz-adv-x="709" 
d="M93 0v1600h571v-192h-355v-502h335v-192h-335v-522h355v-192h-571zM301 1680l167 252h146l-174 -252h-139z" />
    <glyph glyph-name="Ecircumflex" unicode="&#xca;" horiz-adv-x="709" 
d="M93 0v1600h571v-192h-355v-502h335v-192h-335v-522h355v-192h-571zM152 1682l147 252h130l146 -252h-145l-66 126l-67 -126h-145z" />
    <glyph glyph-name="Edieresis" unicode="&#xcb;" horiz-adv-x="709" 
d="M93 0v1600h571v-192h-355v-502h335v-192h-335v-522h355v-192h-571zM411 1710v154h154v-154h-154zM165 1710v154h153v-154h-153z" />
    <glyph glyph-name="Igrave" unicode="&#xcc;" horiz-adv-x="402" 
d="M93 0v1600h216v-1600h-216zM110 1680l-160 252h145l154 -252h-139z" />
    <glyph glyph-name="Iacute" unicode="&#xcd;" horiz-adv-x="402" 
d="M93 0v1600h216v-1600h-216zM137 1680l167 252h146l-174 -252h-139z" />
    <glyph glyph-name="Icircumflex" unicode="&#xce;" horiz-adv-x="402" 
d="M93 0v1600h216v-1600h-216zM-12 1682l147 252h130l146 -252h-145l-66 126l-67 -126h-145z" />
    <glyph glyph-name="Idieresis" unicode="&#xcf;" horiz-adv-x="402" 
d="M93 0v1600h216v-1600h-216zM247 1710v154h154v-154h-154zM1 1710v154h153v-154h-153z" />
    <glyph glyph-name="Eth" unicode="&#xd0;" horiz-adv-x="940" 
d="M59 946h468v-110h-468v110zM178 0v1600h331q181 0 262 -78.5t84 -259.5q3 -165 4 -313t0 -296.5t-4 -313.5q-3 -181 -84 -260t-263 -79h-330zM394 192h114q66 0 98 30.5t33 92.5q3 122 4 243.5t1 242.5t-1 242.5t-4 243.5q-1 61 -33 91t-97 30h-115v-1216z" />
    <glyph glyph-name="Ntilde" unicode="&#xd1;" horiz-adv-x="946" 
d="M93 0v1600h330l104 -508l123 -900h49l-40 782l-16 626h210v-1600h-345l-110 549l-98 860h-52l37 -803l17 -606h-209zM611 1862h88q-3 -92 -36 -136.5t-94 -44.5q-38 0 -60.5 13t-38 29.5t-32 29t-43.5 12.5q-26 0 -36.5 -19.5t-14.5 -54.5h-88q8 98 42.5 143t96.5 45
q39 0 62.5 -12.5t39.5 -29t31.5 -29t39.5 -12.5t33 17t10 49z" />
    <glyph glyph-name="Ograve" unicode="&#xd2;" horiz-adv-x="856" 
d="M428 -17q-180 0 -259.5 76.5t-82.5 254.5q-3 120 -4 242t-1 244.5t1 244t4 242.5q3 177 82.5 253.5t259.5 76.5t258.5 -76.5t82.5 -253.5q4 -122 5.5 -244t1.5 -244t-1.5 -243.5t-5.5 -241.5q-4 -178 -82.5 -254.5t-258.5 -76.5zM428 162q64 0 94 27.5t31 86.5
q5 124 6.5 257.5t1.5 269.5t-2 268t-6 254q-1 59 -31.5 86.5t-93.5 27.5t-93.5 -27.5t-32.5 -86.5q-4 -122 -6.5 -254t-2 -268t2.5 -269.5t6 -257.5q2 -59 32.5 -86.5t93.5 -27.5zM339 1680l-160 252h145l154 -252h-139z" />
    <glyph glyph-name="Oacute" unicode="&#xd3;" horiz-adv-x="856" 
d="M428 -17q-180 0 -259.5 76.5t-82.5 254.5q-3 120 -4 242t-1 244.5t1 244t4 242.5q3 177 82.5 253.5t259.5 76.5t258.5 -76.5t82.5 -253.5q4 -122 5.5 -244t1.5 -244t-1.5 -243.5t-5.5 -241.5q-4 -178 -82.5 -254.5t-258.5 -76.5zM428 162q64 0 94 27.5t31 86.5
q5 124 6.5 257.5t1.5 269.5t-2 268t-6 254q-1 59 -31.5 86.5t-93.5 27.5t-93.5 -27.5t-32.5 -86.5q-4 -122 -6.5 -254t-2 -268t2.5 -269.5t6 -257.5q2 -59 32.5 -86.5t93.5 -27.5zM366 1680l167 252h146l-174 -252h-139z" />
    <glyph glyph-name="Ocircumflex" unicode="&#xd4;" horiz-adv-x="856" 
d="M428 -17q-180 0 -259.5 76.5t-82.5 254.5q-3 120 -4 242t-1 244.5t1 244t4 242.5q3 177 82.5 253.5t259.5 76.5t258.5 -76.5t82.5 -253.5q4 -122 5.5 -244t1.5 -244t-1.5 -243.5t-5.5 -241.5q-4 -178 -82.5 -254.5t-258.5 -76.5zM428 162q64 0 94 27.5t31 86.5
q5 124 6.5 257.5t1.5 269.5t-2 268t-6 254q-1 59 -31.5 86.5t-93.5 27.5t-93.5 -27.5t-32.5 -86.5q-4 -122 -6.5 -254t-2 -268t2.5 -269.5t6 -257.5q2 -59 32.5 -86.5t93.5 -27.5zM217 1682l147 252h130l146 -252h-145l-66 126l-67 -126h-145z" />
    <glyph glyph-name="Otilde" unicode="&#xd5;" horiz-adv-x="856" 
d="M428 -17q-180 0 -259.5 76.5t-82.5 254.5q-3 120 -4 242t-1 244.5t1 244t4 242.5q3 177 82.5 253.5t259.5 76.5t258.5 -76.5t82.5 -253.5q4 -122 5.5 -244t1.5 -244t-1.5 -243.5t-5.5 -241.5q-4 -178 -82.5 -254.5t-258.5 -76.5zM428 162q64 0 94 27.5t31 86.5
q5 124 6.5 257.5t1.5 269.5t-2 268t-6 254q-1 59 -31.5 86.5t-93.5 27.5t-93.5 -27.5t-32.5 -86.5q-4 -122 -6.5 -254t-2 -268t2.5 -269.5t6 -257.5q2 -59 32.5 -86.5t93.5 -27.5zM564 1862h88q-3 -92 -36 -136.5t-94 -44.5q-38 0 -60.5 13t-38 29.5t-32 29t-43.5 12.5
q-26 0 -36.5 -19.5t-14.5 -54.5h-88q8 98 42.5 143t96.5 45q39 0 62.5 -12.5t39.5 -29t31.5 -29t39.5 -12.5t33 17t10 49z" />
    <glyph glyph-name="Odieresis" unicode="&#xd6;" horiz-adv-x="856" 
d="M428 -17q-180 0 -259.5 76.5t-82.5 254.5q-3 120 -4 242t-1 244.5t1 244t4 242.5q3 177 82.5 253.5t259.5 76.5t258.5 -76.5t82.5 -253.5q4 -122 5.5 -244t1.5 -244t-1.5 -243.5t-5.5 -241.5q-4 -178 -82.5 -254.5t-258.5 -76.5zM428 162q64 0 94 27.5t31 86.5
q5 124 6.5 257.5t1.5 269.5t-2 268t-6 254q-1 59 -31.5 86.5t-93.5 27.5t-93.5 -27.5t-32.5 -86.5q-4 -122 -6.5 -254t-2 -268t2.5 -269.5t6 -257.5q2 -59 32.5 -86.5t93.5 -27.5zM476 1710v154h154v-154h-154zM230 1710v154h153v-154h-153z" />
    <glyph glyph-name="multiply" unicode="&#xd7;" horiz-adv-x="861" 
d="M209 407l-116 117l222 221l-222 222l116 115l221 -221l222 221l116 -115l-221 -222l221 -221l-116 -117l-222 222z" />
    <glyph glyph-name="Oslash" unicode="&#xd8;" horiz-adv-x="856" 
d="M428 -17q-180 0 -259.5 76.5t-82.5 254.5q-3 120 -4 242t-1 244.5t1 244t4 242.5q3 177 82.5 253.5t259.5 76.5t258.5 -76.5t82.5 -253.5q4 -122 5.5 -244t1.5 -244t-1.5 -243.5t-5.5 -241.5q-4 -178 -82.5 -254.5t-258.5 -76.5zM428 162q64 0 94 27.5t31 86.5
q4 95 5.5 191t2 193.5t-0.5 197.5l-262 -395q0 -46 1.5 -93t2.5 -94q2 -59 32.5 -86.5t93.5 -27.5zM294 705l265 391q-1 57 -2.5 114t-3.5 115q-1 59 -31.5 86.5t-93.5 27.5t-93.5 -27.5t-32.5 -86.5q-3 -98 -5 -200.5t-3 -207.5t0 -212z" />
    <glyph glyph-name="Ugrave" unicode="&#xd9;" horiz-adv-x="839" 
d="M420 -17q-182 0 -260.5 76.5t-80.5 254.5q-4 320 -4 643.5t4 642.5h216q-3 -213 -4 -437.5t0 -449t3 -437.5q0 -57 32 -85.5t94 -28.5q63 0 93.5 28.5t30.5 85.5q2 213 3 437.5t0.5 449t-3.5 437.5h216q5 -319 5 -642.5t-5 -643.5q-2 -178 -80.5 -254.5t-259.5 -76.5z
M329 1680l-160 252h145l154 -252h-139z" />
    <glyph glyph-name="Uacute" unicode="&#xda;" horiz-adv-x="839" 
d="M420 -17q-182 0 -260.5 76.5t-80.5 254.5q-4 320 -4 643.5t4 642.5h216q-3 -213 -4 -437.5t0 -449t3 -437.5q0 -57 32 -85.5t94 -28.5q63 0 93.5 28.5t30.5 85.5q2 213 3 437.5t0.5 449t-3.5 437.5h216q5 -319 5 -642.5t-5 -643.5q-2 -178 -80.5 -254.5t-259.5 -76.5z
M356 1680l167 252h146l-174 -252h-139z" />
    <glyph glyph-name="Ucircumflex" unicode="&#xdb;" horiz-adv-x="839" 
d="M420 -17q-182 0 -260.5 76.5t-80.5 254.5q-4 320 -4 643.5t4 642.5h216q-3 -213 -4 -437.5t0 -449t3 -437.5q0 -57 32 -85.5t94 -28.5q63 0 93.5 28.5t30.5 85.5q2 213 3 437.5t0.5 449t-3.5 437.5h216q5 -319 5 -642.5t-5 -643.5q-2 -178 -80.5 -254.5t-259.5 -76.5z
M207 1682l147 252h130l146 -252h-145l-66 126l-67 -126h-145z" />
    <glyph glyph-name="Udieresis" unicode="&#xdc;" horiz-adv-x="839" 
d="M420 -17q-182 0 -260.5 76.5t-80.5 254.5q-4 320 -4 643.5t4 642.5h216q-3 -213 -4 -437.5t0 -449t3 -437.5q0 -57 32 -85.5t94 -28.5q63 0 93.5 28.5t30.5 85.5q2 213 3 437.5t0.5 449t-3.5 437.5h216q5 -319 5 -642.5t-5 -643.5q-2 -178 -80.5 -254.5t-259.5 -76.5z
M466 1710v154h154v-154h-154zM220 1710v154h153v-154h-153z" />
    <glyph glyph-name="Yacute" unicode="&#xdd;" horiz-adv-x="791" 
d="M287 0v400v2l-259 1198h221l81 -420l42 -464h46l41 464l82 420h222l-260 -1199v-2v-399h-216zM324 1680l167 252h146l-174 -252h-139z" />
    <glyph glyph-name="Thorn" unicode="&#xde;" horiz-adv-x="804" 
d="M93 0v1600h216v-266h99q179 0 259.5 -75t86.5 -249q4 -109 4 -198t-4 -187q-6 -173 -86.5 -248.5t-260.5 -75.5h-98v-301h-216zM309 493h98q65 0 96.5 30.5t34.5 90.5q3 65 4.5 134.5t0 139t-4.5 133.5q-3 61 -34 91t-96 30h-99v-649z" />
    <glyph glyph-name="germandbls" unicode="&#xdf;" horiz-adv-x="842" 
d="M93 0v1271q0 118 35.5 190t111 105.5t195.5 33.5q180 0 257 -75t78 -249q1 -64 1 -114.5t-2 -98.5q-5 -96 -40 -151.5t-110 -81.5v-40q81 -25 119.5 -82t41.5 -158q2 -41 2.5 -76.5t0 -72t-2.5 -77.5q-4 -115 -40.5 -186.5t-111 -104.5t-194.5 -33h-39v192h39
q64 0 96.5 33.5t33.5 101.5q2 56 2 106.5t-2 106.5q-1 94 -32.5 134t-101.5 40h-27v192h20q65 0 97.5 41t33.5 121q1 47 1 81.5t-0.5 69.5t-1.5 81q-1 61 -30 91.5t-93 30.5q-63 0 -90.5 -31t-28.5 -90l-2 -1301h-216z" />
    <glyph glyph-name="agrave" unicode="&#xe0;" horiz-adv-x="823" 
d="M302 -14q-115 0 -169.5 60.5t-65.5 196.5q-1 22 -1.5 48t0.5 47q6 76 31.5 133t79.5 102t145 86q48 22 96.5 40.5t98.5 34.5v205q0 57 -22 85t-84 28q-53 0 -76.5 -23.5t-26.5 -82.5q-1 -19 -1.5 -53t0 -69.5t1.5 -58.5h-210q-1 25 -2 73t0 85q4 103 36 168t101 95.5
t184 30.5q120 0 188.5 -33.5t97.5 -105.5t29 -188l-1 -890h-216v119h-30q-29 -67 -69.5 -100t-113.5 -33zM387 144q45 0 77.5 26t51.5 72v342q-35 -11 -70 -25.5t-71 -38.5q-55 -33 -73.5 -78.5t-21.5 -103.5q-1 -19 -1 -39t1 -40q5 -56 32.5 -85.5t74.5 -29.5zM325 1280
l-160 252h145l154 -252h-139z" />
    <glyph glyph-name="aacute" unicode="&#xe1;" horiz-adv-x="823" 
d="M302 -14q-115 0 -169.5 60.5t-65.5 196.5q-1 22 -1.5 48t0.5 47q6 76 31.5 133t79.5 102t145 86q48 22 96.5 40.5t98.5 34.5v205q0 57 -22 85t-84 28q-53 0 -76.5 -23.5t-26.5 -82.5q-1 -19 -1.5 -53t0 -69.5t1.5 -58.5h-210q-1 25 -2 73t0 85q4 103 36 168t101 95.5
t184 30.5q120 0 188.5 -33.5t97.5 -105.5t29 -188l-1 -890h-216v119h-30q-29 -67 -69.5 -100t-113.5 -33zM387 144q45 0 77.5 26t51.5 72v342q-35 -11 -70 -25.5t-71 -38.5q-55 -33 -73.5 -78.5t-21.5 -103.5q-1 -19 -1 -39t1 -40q5 -56 32.5 -85.5t74.5 -29.5zM352 1280
l167 252h146l-174 -252h-139z" />
    <glyph glyph-name="acircumflex" unicode="&#xe2;" horiz-adv-x="823" 
d="M302 -14q-115 0 -169.5 60.5t-65.5 196.5q-1 22 -1.5 48t0.5 47q6 76 31.5 133t79.5 102t145 86q48 22 96.5 40.5t98.5 34.5v205q0 57 -22 85t-84 28q-53 0 -76.5 -23.5t-26.5 -82.5q-1 -19 -1.5 -53t0 -69.5t1.5 -58.5h-210q-1 25 -2 73t0 85q4 103 36 168t101 95.5
t184 30.5q120 0 188.5 -33.5t97.5 -105.5t29 -188l-1 -890h-216v119h-30q-29 -67 -69.5 -100t-113.5 -33zM387 144q45 0 77.5 26t51.5 72v342q-35 -11 -70 -25.5t-71 -38.5q-55 -33 -73.5 -78.5t-21.5 -103.5q-1 -19 -1 -39t1 -40q5 -56 32.5 -85.5t74.5 -29.5zM203 1282
l147 252h130l146 -252h-145l-66 126l-67 -126h-145z" />
    <glyph glyph-name="atilde" unicode="&#xe3;" horiz-adv-x="823" 
d="M302 -14q-115 0 -169.5 60.5t-65.5 196.5q-1 22 -1.5 48t0.5 47q6 76 31.5 133t79.5 102t145 86q48 22 96.5 40.5t98.5 34.5v205q0 57 -22 85t-84 28q-53 0 -76.5 -23.5t-26.5 -82.5q-1 -19 -1.5 -53t0 -69.5t1.5 -58.5h-210q-1 25 -2 73t0 85q4 103 36 168t101 95.5
t184 30.5q120 0 188.5 -33.5t97.5 -105.5t29 -188l-1 -890h-216v119h-30q-29 -67 -69.5 -100t-113.5 -33zM387 144q45 0 77.5 26t51.5 72v342q-35 -11 -70 -25.5t-71 -38.5q-55 -33 -73.5 -78.5t-21.5 -103.5q-1 -19 -1 -39t1 -40q5 -56 32.5 -85.5t74.5 -29.5zM550 1462h88
q-3 -92 -36 -136.5t-94 -44.5q-38 0 -60.5 13t-38 29.5t-32 29t-43.5 12.5q-26 0 -36.5 -19.5t-14.5 -54.5h-88q8 98 42.5 143t96.5 45q39 0 62.5 -12.5t39.5 -29t31.5 -29t39.5 -12.5t33 17t10 49z" />
    <glyph glyph-name="adieresis" unicode="&#xe4;" horiz-adv-x="823" 
d="M302 -14q-115 0 -169.5 60.5t-65.5 196.5q-1 22 -1.5 48t0.5 47q6 76 31.5 133t79.5 102t145 86q48 22 96.5 40.5t98.5 34.5v205q0 57 -22 85t-84 28q-53 0 -76.5 -23.5t-26.5 -82.5q-1 -19 -1.5 -53t0 -69.5t1.5 -58.5h-210q-1 25 -2 73t0 85q4 103 36 168t101 95.5
t184 30.5q120 0 188.5 -33.5t97.5 -105.5t29 -188l-1 -890h-216v119h-30q-29 -67 -69.5 -100t-113.5 -33zM387 144q45 0 77.5 26t51.5 72v342q-35 -11 -70 -25.5t-71 -38.5q-55 -33 -73.5 -78.5t-21.5 -103.5q-1 -19 -1 -39t1 -40q5 -56 32.5 -85.5t74.5 -29.5zM462 1310
v154h154v-154h-154zM216 1310v154h153v-154h-153z" />
    <glyph glyph-name="aring" unicode="&#xe5;" horiz-adv-x="823" 
d="M302 -14q-115 0 -169.5 60.5t-65.5 196.5q-1 22 -1.5 48t0.5 47q6 76 31.5 133t79.5 102t145 86q48 22 96.5 40.5t98.5 34.5v205q0 57 -22 85t-84 28q-53 0 -76.5 -23.5t-26.5 -82.5q-1 -19 -1.5 -53t0 -69.5t1.5 -58.5h-210q-1 25 -2 73t0 85q4 103 36 168t101 95.5
t184 30.5q120 0 188.5 -33.5t97.5 -105.5t29 -188l-1 -890h-216v119h-30q-29 -67 -69.5 -100t-113.5 -33zM387 144q45 0 77.5 26t51.5 72v342q-35 -11 -70 -25.5t-71 -38.5q-55 -33 -73.5 -78.5t-21.5 -103.5q-1 -19 -1 -39t1 -40q5 -56 32.5 -85.5t74.5 -29.5zM416 1272
q-71 0 -122.5 51t-51.5 124q0 72 51.5 123t122.5 51q73 0 124 -51t51 -123q0 -73 -51 -124t-124 -51zM416 1389q25 0 42 16.5t17 41.5q0 24 -17 41t-42 17q-24 0 -40.5 -17t-16.5 -41q0 -25 16.5 -41.5t40.5 -16.5z" />
    <glyph glyph-name="ae" unicode="&#xe6;" horiz-adv-x="1239" 
d="M302 -14q-105 0 -165.5 60.5t-69.5 196.5q-1 22 -1.5 48t0.5 47q9 105 69 174.5t187 123.5q48 23 96.5 42.5t98.5 35.5v75.5v74.5v75t-9 63t-32.5 37.5t-64.5 12.5q-53 0 -76.5 -23.5t-26.5 -82.5q-1 -19 -1.5 -53t0 -69.5t1.5 -58.5h-210q-1 16 -2 44t-1 58.5t1 55.5
q4 103 36 168t101 95.5t184 30.5q73 0 125.5 -12.5t87.5 -39.5q39 28 93.5 40t125.5 12q164 0 238.5 -68.5t81.5 -225.5q1 -20 1.5 -57t1 -85t-0.5 -102t-4 -109h-436v-154.5v-154.5q0 -63 29.5 -88t89.5 -25q56 0 80.5 25t27.5 88q2 30 1.5 76t-2.5 102h210
q3 -27 3.5 -73.5t-1.5 -82.5q-7 -160 -80 -230t-238 -70q-117 0 -190.5 32.5t-108.5 103.5h-18q-30 -68 -91.5 -100.5t-140.5 -32.5zM387 144q29 0 59.5 14t51.5 56.5t21 126.5q0 50 -1 106t-1 114q-31 -11 -67.5 -26t-74.5 -40q-50 -29 -70.5 -66t-24.5 -91
q-1 -18 -1 -38.5t1 -40.5q5 -56 32.5 -85.5t74.5 -29.5zM731 724h228q1 64 0.5 126.5t-1.5 95.5q-2 57 -28 81.5t-81 24.5q-60 0 -89 -24.5t-29 -81.5v-114v-108z" />
    <glyph glyph-name="ccedilla" unicode="&#xe7;" horiz-adv-x="799" 
d="M519 765q1 25 1.5 60t0 68t-0.5 53q-2 59 -27.5 82.5t-83.5 23.5t-83.5 -23.5t-27.5 -82.5q-2 -89 -3 -174.5t-1 -169.5t1 -168.5t3 -172.5q2 -63 28 -88t86 -25q56 0 81 25t27 88q1 31 1 76.5t-2 101.5h211q2 -28 3 -74t-1 -82q-7 -160 -81 -230t-239 -70
q-169 0 -246 70t-85 230q-2 57 -3 139.5t-1 173t1 174.5t3 144q11 163 86.5 233t241.5 70q167 0 242 -68.5t81 -226.5q1 -36 0.5 -82.5t-2.5 -74.5h-211zM206 -285v107h61q54 0 76.5 22.5t14.5 74.5l-16 95h116l15 -95q16 -107 -34.5 -155.5t-171.5 -48.5h-61z" />
    <glyph glyph-name="egrave" unicode="&#xe8;" horiz-adv-x="801" 
d="M413 -17q-170 0 -246.5 70t-85.5 230q-2 57 -3 139.5t-1 173t1 174.5t3 144q11 163 87 233t243 70q164 0 238.5 -68.5t82.5 -225.5q1 -27 1.5 -84.5t0 -131t-3.5 -146.5h-436q0 -73 1.5 -147.5t2.5 -152.5q2 -63 28.5 -88t85.5 -25q56 0 80 25t27 88q2 30 2 76t-2 102
h211q2 -27 3 -73.5t-1 -82.5q-8 -160 -80.5 -230t-238.5 -70zM294 716h227q1 49 1 96t-1 82.5t-2 51.5q-3 57 -27.5 81.5t-80.5 24.5q-59 0 -85 -24.5t-28 -81.5q-1 -61 -2 -118t-2 -112zM316 1280l-160 252h145l154 -252h-139z" />
    <glyph glyph-name="eacute" unicode="&#xe9;" horiz-adv-x="801" 
d="M413 -17q-170 0 -246.5 70t-85.5 230q-2 57 -3 139.5t-1 173t1 174.5t3 144q11 163 87 233t243 70q164 0 238.5 -68.5t82.5 -225.5q1 -27 1.5 -84.5t0 -131t-3.5 -146.5h-436q0 -73 1.5 -147.5t2.5 -152.5q2 -63 28.5 -88t85.5 -25q56 0 80 25t27 88q2 30 2 76t-2 102
h211q2 -27 3 -73.5t-1 -82.5q-8 -160 -80.5 -230t-238.5 -70zM294 716h227q1 49 1 96t-1 82.5t-2 51.5q-3 57 -27.5 81.5t-80.5 24.5q-59 0 -85 -24.5t-28 -81.5q-1 -61 -2 -118t-2 -112zM343 1280l167 252h146l-174 -252h-139z" />
    <glyph glyph-name="ecircumflex" unicode="&#xea;" horiz-adv-x="801" 
d="M413 -17q-170 0 -246.5 70t-85.5 230q-2 57 -3 139.5t-1 173t1 174.5t3 144q11 163 87 233t243 70q164 0 238.5 -68.5t82.5 -225.5q1 -27 1.5 -84.5t0 -131t-3.5 -146.5h-436q0 -73 1.5 -147.5t2.5 -152.5q2 -63 28.5 -88t85.5 -25q56 0 80 25t27 88q2 30 2 76t-2 102
h211q2 -27 3 -73.5t-1 -82.5q-8 -160 -80.5 -230t-238.5 -70zM294 716h227q1 49 1 96t-1 82.5t-2 51.5q-3 57 -27.5 81.5t-80.5 24.5q-59 0 -85 -24.5t-28 -81.5q-1 -61 -2 -118t-2 -112zM194 1282l147 252h130l146 -252h-145l-66 126l-67 -126h-145z" />
    <glyph glyph-name="edieresis" unicode="&#xeb;" horiz-adv-x="801" 
d="M413 -17q-170 0 -246.5 70t-85.5 230q-2 57 -3 139.5t-1 173t1 174.5t3 144q11 163 87 233t243 70q164 0 238.5 -68.5t82.5 -225.5q1 -27 1.5 -84.5t0 -131t-3.5 -146.5h-436q0 -73 1.5 -147.5t2.5 -152.5q2 -63 28.5 -88t85.5 -25q56 0 80 25t27 88q2 30 2 76t-2 102
h211q2 -27 3 -73.5t-1 -82.5q-8 -160 -80.5 -230t-238.5 -70zM294 716h227q1 49 1 96t-1 82.5t-2 51.5q-3 57 -27.5 81.5t-80.5 24.5q-59 0 -85 -24.5t-28 -81.5q-1 -61 -2 -118t-2 -112zM453 1310v154h154v-154h-154zM207 1310v154h153v-154h-153z" />
    <glyph glyph-name="igrave" unicode="&#xec;" horiz-adv-x="408" 
d="M96 0v1200h216v-1200h-216zM113 1280l-160 252h145l154 -252h-139z" />
    <glyph glyph-name="iacute" unicode="&#xed;" horiz-adv-x="408" 
d="M96 0v1200h216v-1200h-216zM140 1280l167 252h146l-174 -252h-139z" />
    <glyph glyph-name="icircumflex" unicode="&#xee;" horiz-adv-x="408" 
d="M96 0v1200h216v-1200h-216zM-9 1282l147 252h130l146 -252h-145l-66 126l-67 -126h-145z" />
    <glyph glyph-name="idieresis" unicode="&#xef;" horiz-adv-x="408" 
d="M96 0v1200h216v-1200h-216zM250 1310v154h154v-154h-154zM4 1310v154h153v-154h-153z" />
    <glyph glyph-name="eth" unicode="&#xf0;" horiz-adv-x="860" 
d="M439 -17q-180 0 -260 77t-89 255q-2 60 -3 136.5t0 163t2 174.5q3 136 70 212.5t173 76.5q68 0 116 -26t70 -69h21q-14 67 -39.5 126.5t-60.5 111.5l-132 -65l-38 76l113 57q-32 43 -72.5 78t-86.5 66l116 183q72 -48 131 -100t106 -115l128 63l38 -77l-115 -56
q74 -117 110 -263t42 -328q2 -62 2 -137.5v-150.5t-2 -137q-4 -119 -39 -192t-108 -106.5t-193 -33.5zM437 161q60 0 92 29t34 87q2 80 3 165.5t0.5 175t-4.5 183.5q-2 49 -39 74.5t-96 25.5q-58 0 -89 -28.5t-33 -87.5q-1 -82 -1.5 -171t0.5 -175t3 -162q2 -58 34.5 -87
t95.5 -29z" />
    <glyph glyph-name="ntilde" unicode="&#xf1;" horiz-adv-x="873" 
d="M96 0v1200h216v-118h40q35 65 78.5 100t123.5 35q110 0 168.5 -66.5t59.5 -221.5v-929h-216v947q-1 57 -25.5 83t-74.5 26q-46 0 -90.5 -27.5t-63.5 -76.5v-952h-216zM575 1462h88q-3 -92 -36 -136.5t-94 -44.5q-38 0 -60.5 13t-38 29.5t-32 29t-43.5 12.5
q-26 0 -36.5 -19.5t-14.5 -54.5h-88q8 98 42.5 143t96.5 45q39 0 62.5 -12.5t39.5 -29t31.5 -29t39.5 -12.5t33 17t10 49z" />
    <glyph glyph-name="ograve" unicode="&#xf2;" horiz-adv-x="835" 
d="M418 -17q-120 0 -191.5 33t-104.5 106t-40 192q-2 57 -3.5 131t-1.5 153t1.5 154t3.5 135q7 118 40 190.5t104.5 106t191.5 33.5q122 0 192.5 -33.5t103.5 -106t39 -190.5q2 -58 3 -131.5t1 -153t-1 -154t-3 -134.5q-6 -118 -39 -191t-103.5 -106.5t-192.5 -33.5z
M418 148q63 0 90 27t28 87q3 88 4.5 172t1.5 167t-1.5 166.5t-4.5 171.5q-1 59 -27.5 86t-90.5 27q-62 0 -90 -27t-30 -86q-2 -88 -3.5 -172t-1.5 -167t1.5 -167t3.5 -171q2 -60 30 -87t90 -27zM328 1280l-160 252h145l154 -252h-139z" />
    <glyph glyph-name="oacute" unicode="&#xf3;" horiz-adv-x="835" 
d="M418 -17q-120 0 -191.5 33t-104.5 106t-40 192q-2 57 -3.5 131t-1.5 153t1.5 154t3.5 135q7 118 40 190.5t104.5 106t191.5 33.5q122 0 192.5 -33.5t103.5 -106t39 -190.5q2 -58 3 -131.5t1 -153t-1 -154t-3 -134.5q-6 -118 -39 -191t-103.5 -106.5t-192.5 -33.5z
M418 148q63 0 90 27t28 87q3 88 4.5 172t1.5 167t-1.5 166.5t-4.5 171.5q-1 59 -27.5 86t-90.5 27q-62 0 -90 -27t-30 -86q-2 -88 -3.5 -172t-1.5 -167t1.5 -167t3.5 -171q2 -60 30 -87t90 -27zM354 1280l167 252h146l-174 -252h-139z" />
    <glyph glyph-name="ocircumflex" unicode="&#xf4;" horiz-adv-x="835" 
d="M418 -17q-120 0 -191.5 33t-104.5 106t-40 192q-2 57 -3.5 131t-1.5 153t1.5 154t3.5 135q7 118 40 190.5t104.5 106t191.5 33.5q122 0 192.5 -33.5t103.5 -106t39 -190.5q2 -58 3 -131.5t1 -153t-1 -154t-3 -134.5q-6 -118 -39 -191t-103.5 -106.5t-192.5 -33.5z
M418 148q63 0 90 27t28 87q3 88 4.5 172t1.5 167t-1.5 166.5t-4.5 171.5q-1 59 -27.5 86t-90.5 27q-62 0 -90 -27t-30 -86q-2 -88 -3.5 -172t-1.5 -167t1.5 -167t3.5 -171q2 -60 30 -87t90 -27zM205 1282l147 252h130l146 -252h-145l-66 126l-67 -126h-145z" />
    <glyph glyph-name="otilde" unicode="&#xf5;" horiz-adv-x="835" 
d="M418 -17q-120 0 -191.5 33t-104.5 106t-40 192q-2 57 -3.5 131t-1.5 153t1.5 154t3.5 135q7 118 40 190.5t104.5 106t191.5 33.5q122 0 192.5 -33.5t103.5 -106t39 -190.5q2 -58 3 -131.5t1 -153t-1 -154t-3 -134.5q-6 -118 -39 -191t-103.5 -106.5t-192.5 -33.5z
M418 148q63 0 90 27t28 87q3 88 4.5 172t1.5 167t-1.5 166.5t-4.5 171.5q-1 59 -27.5 86t-90.5 27q-62 0 -90 -27t-30 -86q-2 -88 -3.5 -172t-1.5 -167t1.5 -167t3.5 -171q2 -60 30 -87t90 -27zM552 1462h88q-3 -92 -36 -136.5t-94 -44.5q-38 0 -60.5 13t-38 29.5t-32 29
t-43.5 12.5q-26 0 -36.5 -19.5t-14.5 -54.5h-88q8 98 42.5 143t96.5 45q39 0 62.5 -12.5t39.5 -29t31.5 -29t39.5 -12.5t33 17t10 49z" />
    <glyph glyph-name="odieresis" unicode="&#xf6;" horiz-adv-x="835" 
d="M418 -17q-120 0 -191.5 33t-104.5 106t-40 192q-2 57 -3.5 131t-1.5 153t1.5 154t3.5 135q7 118 40 190.5t104.5 106t191.5 33.5q122 0 192.5 -33.5t103.5 -106t39 -190.5q2 -58 3 -131.5t1 -153t-1 -154t-3 -134.5q-6 -118 -39 -191t-103.5 -106.5t-192.5 -33.5z
M418 148q63 0 90 27t28 87q3 88 4.5 172t1.5 167t-1.5 166.5t-4.5 171.5q-1 59 -27.5 86t-90.5 27q-62 0 -90 -27t-30 -86q-2 -88 -3.5 -172t-1.5 -167t1.5 -167t3.5 -171q2 -60 30 -87t90 -27zM464 1310v154h154v-154h-154zM218 1310v154h153v-154h-153z" />
    <glyph glyph-name="divide" unicode="&#xf7;" horiz-adv-x="988" 
d="M93 663v164h802v-164h-802zM405 941v180h180v-180h-180zM405 369v180h180v-180h-180z" />
    <glyph glyph-name="oslash" unicode="&#xf8;" horiz-adv-x="835" 
d="M134 360l513 569l70 -91l-507 -560zM418 -17q-120 0 -191.5 33t-104.5 106t-40 192q-2 57 -3.5 131t-1.5 153t1.5 154t3.5 135q7 118 40 190.5t104.5 106t191.5 33.5q122 0 192.5 -33.5t103.5 -106t39 -190.5q2 -58 3 -131.5t1 -153t-1 -154t-3 -134.5q-6 -118 -39 -191
t-103.5 -106.5t-192.5 -33.5zM418 148q63 0 90 27t28 87q3 88 4.5 172t1.5 167t-1.5 166.5t-4.5 171.5q-1 59 -27.5 86t-90.5 27q-62 0 -90 -27t-30 -86q-2 -88 -3.5 -172t-1.5 -167t1.5 -167t3.5 -171q2 -60 30 -87t90 -27z" />
    <glyph glyph-name="ugrave" unicode="&#xf9;" horiz-adv-x="867" 
d="M321 -17q-109 0 -171 67t-62 221v929h216v-947q0 -57 23.5 -83t73.5 -26q47 0 91.5 27.5t62.5 76.5v952h216v-1200h-216v118h-32q-38 -70 -86.5 -102.5t-115.5 -32.5zM336 1280l-160 252h145l154 -252h-139z" />
    <glyph glyph-name="uacute" unicode="&#xfa;" horiz-adv-x="867" 
d="M321 -17q-109 0 -171 67t-62 221v929h216v-947q0 -57 23.5 -83t73.5 -26q47 0 91.5 27.5t62.5 76.5v952h216v-1200h-216v118h-32q-38 -70 -86.5 -102.5t-115.5 -32.5zM363 1280l167 252h146l-174 -252h-139z" />
    <glyph glyph-name="ucircumflex" unicode="&#xfb;" horiz-adv-x="867" 
d="M321 -17q-109 0 -171 67t-62 221v929h216v-947q0 -57 23.5 -83t73.5 -26q47 0 91.5 27.5t62.5 76.5v952h216v-1200h-216v118h-32q-38 -70 -86.5 -102.5t-115.5 -32.5zM214 1282l147 252h130l146 -252h-145l-66 126l-67 -126h-145z" />
    <glyph glyph-name="udieresis" unicode="&#xfc;" horiz-adv-x="867" 
d="M321 -17q-109 0 -171 67t-62 221v929h216v-947q0 -57 23.5 -83t73.5 -26q47 0 91.5 27.5t62.5 76.5v952h216v-1200h-216v118h-32q-38 -70 -86.5 -102.5t-115.5 -32.5zM473 1310v154h154v-154h-154zM227 1310v154h153v-154h-153z" />
    <glyph glyph-name="yacute" unicode="&#xfd;" horiz-adv-x="769" 
d="M197 -414q-30 0 -69 3.5t-70 8.5v163q26 -2 67.5 -4t70.5 -2q77 0 105.5 25.5t36.5 88.5l17 131h-129l-190 1200h220l61 -564l52 -474h61l37 474l53 564h219l-185 -1315q-15 -106 -52.5 -172t-110.5 -96.5t-194 -30.5zM329 1280l167 252h146l-174 -252h-139z" />
    <glyph glyph-name="thorn" unicode="&#xfe;" horiz-adv-x="873" 
d="M93 -400v2000h216v-518h34q35 66 77 100.5t124 34.5q110 0 168 -66.5t64 -221.5q2 -57 3.5 -142.5t1.5 -180t-1.5 -183t-3.5 -152.5q-6 -154 -69.5 -221t-173.5 -67q-63 0 -107 31.5t-83 103.5h-34v-518h-216zM449 144q51 0 80 26t31 83q4 85 5.5 174t1.5 179.5t-2 177
t-5 163.5q-2 57 -24.5 83t-72.5 26q-48 0 -91.5 -26t-62.5 -78v-704q21 -56 54 -80t86 -24z" />
    <glyph glyph-name="ydieresis" unicode="&#xff;" horiz-adv-x="769" 
d="M197 -414q-30 0 -69 3.5t-70 8.5v163q26 -2 67.5 -4t70.5 -2q77 0 105.5 25.5t36.5 88.5l17 131h-129l-190 1200h220l61 -564l52 -474h61l37 474l53 564h219l-185 -1315q-15 -106 -52.5 -172t-110.5 -96.5t-194 -30.5zM439 1310v154h154v-154h-154zM193 1310v154h153
v-154h-153z" />
    <glyph glyph-name="Amacron" unicode="&#x100;" horiz-adv-x="816" 
d="M32 0l196 1600h360l196 -1600h-221l-38 399h-234l-37 -399h-222zM312 591h193l-34 352l-35 465h-56l-34 -465zM130 1773h556v-104h-556v104z" />
    <glyph glyph-name="amacron" unicode="&#x101;" horiz-adv-x="823" 
d="M302 -14q-115 0 -169.5 60.5t-65.5 196.5q-1 22 -1.5 48t0.5 47q6 76 31.5 133t79.5 102t145 86q48 22 96.5 40.5t98.5 34.5v205q0 57 -22 85t-84 28q-53 0 -76.5 -23.5t-26.5 -82.5q-1 -19 -1.5 -53t0 -69.5t1.5 -58.5h-210q-1 25 -2 73t0 85q4 103 36 168t101 95.5
t184 30.5q120 0 188.5 -33.5t97.5 -105.5t29 -188l-1 -890h-216v119h-30q-29 -67 -69.5 -100t-113.5 -33zM387 144q45 0 77.5 26t51.5 72v342q-35 -11 -70 -25.5t-71 -38.5q-55 -33 -73.5 -78.5t-21.5 -103.5q-1 -19 -1 -39t1 -40q5 -56 32.5 -85.5t74.5 -29.5zM137 1373
h556v-104h-556v104z" />
    <glyph glyph-name="Abreve" unicode="&#x102;" horiz-adv-x="816" 
d="M32 0l196 1600h360l196 -1600h-221l-38 399h-234l-37 -399h-222zM312 591h193l-34 352l-35 465h-56l-34 -465zM408 1672q-130 0 -189.5 58.5t-66.5 194.5h132q1 -75 29.5 -107.5t94.5 -32.5q67 0 95.5 32.5t28.5 107.5h132q-7 -136 -66.5 -194.5t-189.5 -58.5z" />
    <glyph glyph-name="abreve" unicode="&#x103;" horiz-adv-x="823" 
d="M302 -14q-115 0 -169.5 60.5t-65.5 196.5q-1 22 -1.5 48t0.5 47q6 76 31.5 133t79.5 102t145 86q48 22 96.5 40.5t98.5 34.5v205q0 57 -22 85t-84 28q-53 0 -76.5 -23.5t-26.5 -82.5q-1 -19 -1.5 -53t0 -69.5t1.5 -58.5h-210q-1 25 -2 73t0 85q4 103 36 168t101 95.5
t184 30.5q120 0 188.5 -33.5t97.5 -105.5t29 -188l-1 -890h-216v119h-30q-29 -67 -69.5 -100t-113.5 -33zM387 144q45 0 77.5 26t51.5 72v342q-35 -11 -70 -25.5t-71 -38.5q-55 -33 -73.5 -78.5t-21.5 -103.5q-1 -19 -1 -39t1 -40q5 -56 32.5 -85.5t74.5 -29.5zM416 1288
q-130 0 -189.5 58.5t-66.5 194.5h132q1 -75 29.5 -107.5t94.5 -32.5q67 0 95.5 32.5t28.5 107.5h132q-7 -136 -66.5 -194.5t-189.5 -58.5z" />
    <glyph glyph-name="Aogonek" unicode="&#x104;" horiz-adv-x="816" 
d="M32 0l196 1600h360l196 -1600h-221l-38 399h-234l-37 -399h-222zM312 591h193l-34 352l-35 465h-56l-34 -465zM814 -298h-61q-120 0 -171 48.5t-35 155.5l16 95h116l-16 -95q-7 -52 14.5 -74.5t75.5 -22.5h61v-107z" />
    <glyph glyph-name="aogonek" unicode="&#x105;" horiz-adv-x="823" 
d="M302 -14q-115 0 -169.5 60.5t-65.5 196.5q-1 22 -1.5 48t0.5 47q6 76 31.5 133t79.5 102t145 86q48 22 96.5 40.5t98.5 34.5v205q0 57 -22 85t-84 28q-53 0 -76.5 -23.5t-26.5 -82.5q-1 -19 -1.5 -53t0 -69.5t1.5 -58.5h-210q-1 25 -2 73t0 85q4 103 36 168t101 95.5
t184 30.5q120 0 188.5 -33.5t97.5 -105.5t29 -188l-1 -890h-216v119h-30q-29 -67 -69.5 -100t-113.5 -33zM387 144q45 0 77.5 26t51.5 72v342q-35 -11 -70 -25.5t-71 -38.5q-55 -33 -73.5 -78.5t-21.5 -103.5q-1 -19 -1 -39t1 -40q5 -56 32.5 -85.5t74.5 -29.5zM762 -293
h-61q-120 0 -171 48.5t-35 155.5l16 95h116l-16 -95q-7 -52 14.5 -74.5t75.5 -22.5h61v-107z" />
    <glyph glyph-name="Cacute" unicode="&#x106;" horiz-adv-x="839" 
d="M425 -17q-182 0 -259.5 77t-80.5 255q-2 112 -3 235t-1 250t1 250.5t3 236.5q2 156 82 242.5t257 86.5q176 0 255 -76.5t85 -254.5q1 -35 1 -83.5t-1 -96t-2 -83.5h-216q1 44 1.5 97t0.5 106.5t-1 97.5q-1 59 -31.5 87t-91.5 28t-91 -28t-32 -87q-4 -127 -5.5 -258.5
t-1.5 -264.5t1.5 -265t5.5 -258q2 -59 32.5 -87.5t91.5 -28.5q65 0 97 28.5t33 87.5q1 45 1.5 100.5t-0.5 110.5t-2 100h217q2 -66 2.5 -136.5t-1.5 -136.5q-6 -178 -86.5 -255t-260.5 -77zM354 1680l167 252h146l-174 -252h-139z" />
    <glyph glyph-name="cacute" unicode="&#x107;" horiz-adv-x="799" 
d="M519 765q1 25 1.5 60t0 68t-0.5 53q-2 59 -27.5 82.5t-83.5 23.5t-83.5 -23.5t-27.5 -82.5q-2 -89 -3 -174.5t-1 -169.5t1 -168.5t3 -172.5q2 -63 28 -88t86 -25q56 0 81 25t27 88q1 31 1 76.5t-2 101.5h211q2 -28 3 -74t-1 -82q-7 -160 -81 -230t-239 -70
q-169 0 -246 70t-85 230q-2 57 -3 139.5t-1 173t1 174.5t3 144q11 163 86.5 233t241.5 70q167 0 242 -68.5t81 -226.5q1 -36 0.5 -82.5t-2.5 -74.5h-211zM345 1280l167 252h146l-174 -252h-139z" />
    <glyph glyph-name="Ccircumflex" unicode="&#x108;" horiz-adv-x="839" 
d="M425 -17q-182 0 -259.5 77t-80.5 255q-2 112 -3 235t-1 250t1 250.5t3 236.5q2 156 82 242.5t257 86.5q176 0 255 -76.5t85 -254.5q1 -35 1 -83.5t-1 -96t-2 -83.5h-216q1 44 1.5 97t0.5 106.5t-1 97.5q-1 59 -31.5 87t-91.5 28t-91 -28t-32 -87q-4 -127 -5.5 -258.5
t-1.5 -264.5t1.5 -265t5.5 -258q2 -59 32.5 -87.5t91.5 -28.5q65 0 97 28.5t33 87.5q1 45 1.5 100.5t-0.5 110.5t-2 100h217q2 -66 2.5 -136.5t-1.5 -136.5q-6 -178 -86.5 -255t-260.5 -77zM205 1682l147 252h130l146 -252h-145l-66 126l-67 -126h-145z" />
    <glyph glyph-name="ccircumflex" unicode="&#x109;" horiz-adv-x="799" 
d="M519 765q1 25 1.5 60t0 68t-0.5 53q-2 59 -27.5 82.5t-83.5 23.5t-83.5 -23.5t-27.5 -82.5q-2 -89 -3 -174.5t-1 -169.5t1 -168.5t3 -172.5q2 -63 28 -88t86 -25q56 0 81 25t27 88q1 31 1 76.5t-2 101.5h211q2 -28 3 -74t-1 -82q-7 -160 -81 -230t-239 -70
q-169 0 -246 70t-85 230q-2 57 -3 139.5t-1 173t1 174.5t3 144q11 163 86.5 233t241.5 70q167 0 242 -68.5t81 -226.5q1 -36 0.5 -82.5t-2.5 -74.5h-211zM196 1282l147 252h130l146 -252h-145l-66 126l-67 -126h-145z" />
    <glyph glyph-name="Cdotaccent" unicode="&#x10a;" horiz-adv-x="839" 
d="M425 -17q-182 0 -259.5 77t-80.5 255q-2 112 -3 235t-1 250t1 250.5t3 236.5q2 156 82 242.5t257 86.5q176 0 255 -76.5t85 -254.5q1 -35 1 -83.5t-1 -96t-2 -83.5h-216q1 44 1.5 97t0.5 106.5t-1 97.5q-1 59 -31.5 87t-91.5 28t-91 -28t-32 -87q-4 -127 -5.5 -258.5
t-1.5 -264.5t1.5 -265t5.5 -258q2 -59 32.5 -87.5t91.5 -28.5q65 0 97 28.5t33 87.5q1 45 1.5 100.5t-0.5 110.5t-2 100h217q2 -66 2.5 -136.5t-1.5 -136.5q-6 -178 -86.5 -255t-260.5 -77zM341 1680v154h153v-154h-153z" />
    <glyph glyph-name="cdotaccent" unicode="&#x10b;" horiz-adv-x="799" 
d="M519 765q1 25 1.5 60t0 68t-0.5 53q-2 59 -27.5 82.5t-83.5 23.5t-83.5 -23.5t-27.5 -82.5q-2 -89 -3 -174.5t-1 -169.5t1 -168.5t3 -172.5q2 -63 28 -88t86 -25q56 0 81 25t27 88q1 31 1 76.5t-2 101.5h211q2 -28 3 -74t-1 -82q-7 -160 -81 -230t-239 -70
q-169 0 -246 70t-85 230q-2 57 -3 139.5t-1 173t1 174.5t3 144q11 163 86.5 233t241.5 70q167 0 242 -68.5t81 -226.5q1 -36 0.5 -82.5t-2.5 -74.5h-211zM332 1280v154h153v-154h-153z" />
    <glyph glyph-name="Ccaron" unicode="&#x10c;" horiz-adv-x="839" 
d="M425 -17q-182 0 -259.5 77t-80.5 255q-2 112 -3 235t-1 250t1 250.5t3 236.5q2 156 82 242.5t257 86.5q176 0 255 -76.5t85 -254.5q1 -35 1 -83.5t-1 -96t-2 -83.5h-216q1 44 1.5 97t0.5 106.5t-1 97.5q-1 59 -31.5 87t-91.5 28t-91 -28t-32 -87q-4 -127 -5.5 -258.5
t-1.5 -264.5t1.5 -265t5.5 -258q2 -59 32.5 -87.5t91.5 -28.5q65 0 97 28.5t33 87.5q1 45 1.5 100.5t-0.5 110.5t-2 100h217q2 -66 2.5 -136.5t-1.5 -136.5q-6 -178 -86.5 -255t-260.5 -77zM359 1682l-147 252h130l75 -141l75 141h130l-147 -252h-116z" />
    <glyph glyph-name="ccaron" unicode="&#x10d;" horiz-adv-x="799" 
d="M519 765q1 25 1.5 60t0 68t-0.5 53q-2 59 -27.5 82.5t-83.5 23.5t-83.5 -23.5t-27.5 -82.5q-2 -89 -3 -174.5t-1 -169.5t1 -168.5t3 -172.5q2 -63 28 -88t86 -25q56 0 81 25t27 88q1 31 1 76.5t-2 101.5h211q2 -28 3 -74t-1 -82q-7 -160 -81 -230t-239 -70
q-169 0 -246 70t-85 230q-2 57 -3 139.5t-1 173t1 174.5t3 144q11 163 86.5 233t241.5 70q167 0 242 -68.5t81 -226.5q1 -36 0.5 -82.5t-2.5 -74.5h-211zM350 1282l-147 252h130l75 -141l75 141h130l-147 -252h-116z" />
    <glyph glyph-name="Dcaron" unicode="&#x10e;" horiz-adv-x="855" 
d="M93 0v1600h331q181 0 262 -78.5t84 -259.5q3 -165 4 -313t0 -296.5t-4 -313.5q-3 -181 -84 -260t-263 -79h-330zM309 192h114q66 0 98 30.5t33 92.5q3 122 4 243.5t1 242.5t-1 242.5t-4 243.5q-1 61 -33 91t-97 30h-115v-1216zM369 1682l-147 252h130l75 -141l75 141h130
l-147 -252h-116z" />
    <glyph glyph-name="dcaron" unicode="&#x10f;" horiz-adv-x="1021" 
d="M311 -17q-110 0 -166.5 67t-63.5 221q-2 66 -3 150.5t-1 174.5t1 176t3 157q7 155 65.5 221.5t167.5 66.5q82 0 124 -34.5t78 -100.5h33v518h216v-1600h-216v118h-34q-36 -65 -79 -100t-125 -35zM395 144q49 0 92 26.5t62 77.5v704q-19 52 -62 78t-92 26t-72 -26t-25 -83
q-5 -112 -6 -235t0 -241.5t6 -217.5q2 -57 24.5 -83t72.5 -26zM827 1348l51 252h144l-58 -252h-137z" />
    <glyph glyph-name="Dcroat" unicode="&#x110;" horiz-adv-x="940" 
d="M59 946h468v-110h-468v110zM178 0v1600h331q181 0 262 -78.5t84 -259.5q3 -165 4 -313t0 -296.5t-4 -313.5q-3 -181 -84 -260t-263 -79h-330zM394 192h114q66 0 98 30.5t33 92.5q3 122 4 243.5t1 242.5t-1 242.5t-4 243.5q-1 61 -33 91t-97 30h-115v-1216z" />
    <glyph glyph-name="dcroat" unicode="&#x111;" horiz-adv-x="861" 
d="M338 1459h494v-119h-494v119zM311 -17q-110 0 -166.5 67t-63.5 221q-2 66 -3 150.5t-1 174.5t1 176t3 157q7 155 65.5 221.5t167.5 66.5q82 0 124 -34.5t78 -100.5h33v518h216v-1600h-216v118h-34q-36 -65 -79 -100t-125 -35zM395 144q49 0 92 26.5t62 77.5v704
q-19 52 -62 78t-92 26t-72 -26t-25 -83q-5 -112 -6 -235t0 -241.5t6 -217.5q2 -57 24.5 -83t72.5 -26z" />
    <glyph glyph-name="Emacron" unicode="&#x112;" horiz-adv-x="709" 
d="M93 0v1600h571v-192h-355v-502h335v-192h-335v-522h355v-192h-571zM86 1773h556v-104h-556v104z" />
    <glyph glyph-name="emacron" unicode="&#x113;" horiz-adv-x="801" 
d="M413 -17q-170 0 -246.5 70t-85.5 230q-2 57 -3 139.5t-1 173t1 174.5t3 144q11 163 87 233t243 70q164 0 238.5 -68.5t82.5 -225.5q1 -27 1.5 -84.5t0 -131t-3.5 -146.5h-436q0 -73 1.5 -147.5t2.5 -152.5q2 -63 28.5 -88t85.5 -25q56 0 80 25t27 88q2 30 2 76t-2 102
h211q2 -27 3 -73.5t-1 -82.5q-8 -160 -80.5 -230t-238.5 -70zM294 716h227q1 49 1 96t-1 82.5t-2 51.5q-3 57 -27.5 81.5t-80.5 24.5q-59 0 -85 -24.5t-28 -81.5q-1 -61 -2 -118t-2 -112zM128 1373h556v-104h-556v104z" />
    <glyph glyph-name="Ebreve" unicode="&#x114;" horiz-adv-x="709" 
d="M93 0v1600h571v-192h-355v-502h335v-192h-335v-522h355v-192h-571zM364 1672q-130 0 -189.5 58.5t-66.5 194.5h132q1 -75 29.5 -107.5t94.5 -32.5q67 0 95.5 32.5t28.5 107.5h132q-7 -136 -66.5 -194.5t-189.5 -58.5z" />
    <glyph glyph-name="ebreve" unicode="&#x115;" horiz-adv-x="801" 
d="M413 -17q-170 0 -246.5 70t-85.5 230q-2 57 -3 139.5t-1 173t1 174.5t3 144q11 163 87 233t243 70q164 0 238.5 -68.5t82.5 -225.5q1 -27 1.5 -84.5t0 -131t-3.5 -146.5h-436q0 -73 1.5 -147.5t2.5 -152.5q2 -63 28.5 -88t85.5 -25q56 0 80 25t27 88q2 30 2 76t-2 102
h211q2 -27 3 -73.5t-1 -82.5q-8 -160 -80.5 -230t-238.5 -70zM294 716h227q1 49 1 96t-1 82.5t-2 51.5q-3 57 -27.5 81.5t-80.5 24.5q-59 0 -85 -24.5t-28 -81.5q-1 -61 -2 -118t-2 -112zM407 1272q-130 0 -189.5 58.5t-66.5 194.5h132q1 -75 29.5 -107.5t94.5 -32.5
q67 0 95.5 32.5t28.5 107.5h132q-7 -136 -66.5 -194.5t-189.5 -58.5z" />
    <glyph glyph-name="Edotaccent" unicode="&#x116;" horiz-adv-x="709" 
d="M93 0v1600h571v-192h-355v-502h335v-192h-335v-522h355v-192h-571zM288 1680v154h153v-154h-153z" />
    <glyph glyph-name="edotaccent" unicode="&#x117;" horiz-adv-x="801" 
d="M413 -17q-170 0 -246.5 70t-85.5 230q-2 57 -3 139.5t-1 173t1 174.5t3 144q11 163 87 233t243 70q164 0 238.5 -68.5t82.5 -225.5q1 -27 1.5 -84.5t0 -131t-3.5 -146.5h-436q0 -73 1.5 -147.5t2.5 -152.5q2 -63 28.5 -88t85.5 -25q56 0 80 25t27 88q2 30 2 76t-2 102
h211q2 -27 3 -73.5t-1 -82.5q-8 -160 -80.5 -230t-238.5 -70zM294 716h227q1 49 1 96t-1 82.5t-2 51.5q-3 57 -27.5 81.5t-80.5 24.5q-59 0 -85 -24.5t-28 -81.5q-1 -61 -2 -118t-2 -112zM330 1280v154h153v-154h-153z" />
    <glyph glyph-name="Eogonek" unicode="&#x118;" horiz-adv-x="709" 
d="M93 0v1600h571v-192h-355v-502h335v-192h-335v-522h355v-192h-571zM667 -293h-61q-120 0 -171 48.5t-35 155.5l16 95h116l-16 -95q-7 -52 14.5 -74.5t75.5 -22.5h61v-107z" />
    <glyph glyph-name="eogonek" unicode="&#x119;" horiz-adv-x="801" 
d="M413 -17q-170 0 -246.5 70t-85.5 230q-2 57 -3 139.5t-1 173t1 174.5t3 144q11 163 87 233t243 70q164 0 238.5 -68.5t82.5 -225.5q1 -27 1.5 -84.5t0 -131t-3.5 -146.5h-436q0 -73 1.5 -147.5t2.5 -152.5q2 -63 28.5 -88t85.5 -25q56 0 80 25t27 88q2 30 2 76t-2 102
h211q2 -27 3 -73.5t-1 -82.5q-8 -160 -80.5 -230t-238.5 -70zM294 716h227q1 49 1 96t-1 82.5t-2 51.5q-3 57 -27.5 81.5t-80.5 24.5q-59 0 -85 -24.5t-28 -81.5q-1 -61 -2 -118t-2 -112zM734 -277h-61q-120 0 -171 48.5t-35 155.5l16 95h116l-16 -95q-7 -52 14.5 -74.5
t75.5 -22.5h61v-107z" />
    <glyph glyph-name="Ecaron" unicode="&#x11a;" horiz-adv-x="709" 
d="M93 0v1600h571v-192h-355v-502h335v-192h-335v-522h355v-192h-571zM306 1682l-147 252h130l75 -141l75 141h130l-147 -252h-116z" />
    <glyph glyph-name="ecaron" unicode="&#x11b;" horiz-adv-x="801" 
d="M413 -17q-170 0 -246.5 70t-85.5 230q-2 57 -3 139.5t-1 173t1 174.5t3 144q11 163 87 233t243 70q164 0 238.5 -68.5t82.5 -225.5q1 -27 1.5 -84.5t0 -131t-3.5 -146.5h-436q0 -73 1.5 -147.5t2.5 -152.5q2 -63 28.5 -88t85.5 -25q56 0 80 25t27 88q2 30 2 76t-2 102
h211q2 -27 3 -73.5t-1 -82.5q-8 -160 -80.5 -230t-238.5 -70zM294 716h227q1 49 1 96t-1 82.5t-2 51.5q-3 57 -27.5 81.5t-80.5 24.5q-59 0 -85 -24.5t-28 -81.5q-1 -61 -2 -118t-2 -112zM348 1282l-147 252h130l75 -141l75 141h130l-147 -252h-116z" />
    <glyph glyph-name="Gcircumflex" unicode="&#x11c;" horiz-adv-x="842" 
d="M428 -17q-122 0 -195.5 33.5t-108 107t-38.5 192.5q-3 110 -4 232.5t-1 248t1 247t4 230.5q5 124 40 199.5t108.5 109.5t192.5 34q171 0 249.5 -77t88.5 -254q3 -62 3 -131.5t-3 -131.5h-216q3 68 3 150.5t-3 150.5q-3 58 -33.5 86.5t-88.5 28.5q-61 0 -91.5 -28.5
t-33.5 -86.5q-4 -125 -6.5 -257t-2.5 -266t2.5 -266t6.5 -257q3 -59 33.5 -87.5t92.5 -28.5t96 28.5t37 87.5q1 38 1.5 84.5t0 92t-1.5 84.5h-122v189h333q3 -84 2.5 -190t-4.5 -222q-7 -178 -86.5 -255.5t-255.5 -77.5zM208 1682l147 252h130l146 -252h-145l-66 126
l-67 -126h-145z" />
    <glyph glyph-name="gcircumflex" unicode="&#x11d;" horiz-adv-x="865" 
d="M403 -364q-154 0 -235.5 44t-94.5 132q-2 11 -3.5 27t-0.5 32q5 51 39.5 86t88.5 42v34q-49 11 -77.5 38.5t-34.5 71.5q-1 12 -1 23.5t1 25.5q5 43 40 70.5t86 34.5v34q-70 32 -103.5 97t-40.5 170q-1 49 -2 87t-1 72.5t1 72.5t2 84q6 106 39.5 172.5t105 98.5t190.5 32
q116 0 183.5 -30.5t102.5 -96.5h34q7 57 41 83.5t100 26.5v-166h-32q-45 0 -70 -27.5t-26 -91.5l-1 -84q1 -31 1 -58v-53.5t-0.5 -55.5t-2.5 -66q-6 -109 -40.5 -176t-104.5 -96.5t-187 -29.5q-85 1 -118.5 -15t-33.5 -52v-9q0 -23 10.5 -36.5t43 -19.5t99.5 -8
q176 -4 261 -56.5t100 -165.5q2 -17 2 -35t-2 -40q-8 -80 -51 -129t-120 -71.5t-188 -22.5zM408 -211q52 0 89.5 8.5t59 27.5t26.5 49q4 14 3.5 26.5t-4.5 25.5q-6 32 -27.5 49t-58 24t-87.5 8q-78 2 -117 -16.5t-47 -64.5q-3 -13 -3 -26.5t2 -25.5q5 -32 24.5 -50.5
t54.5 -26.5t85 -8zM400 460q67 0 91.5 27.5t28.5 82.5q2 37 3 84.5t1 98.5t-1 100t-3 88q-4 59 -30 85t-90 26q-65 0 -92 -26t-29 -87q-2 -53 -3 -103t-1 -96t1 -87.5t3 -78.5q3 -54 27.5 -84t93.5 -30zM190 1282l147 252h130l146 -252h-145l-66 126l-67 -126h-145z" />
    <glyph glyph-name="Gbreve" unicode="&#x11e;" horiz-adv-x="842" 
d="M428 -17q-122 0 -195.5 33.5t-108 107t-38.5 192.5q-3 110 -4 232.5t-1 248t1 247t4 230.5q5 124 40 199.5t108.5 109.5t192.5 34q171 0 249.5 -77t88.5 -254q3 -62 3 -131.5t-3 -131.5h-216q3 68 3 150.5t-3 150.5q-3 58 -33.5 86.5t-88.5 28.5q-61 0 -91.5 -28.5
t-33.5 -86.5q-4 -125 -6.5 -257t-2.5 -266t2.5 -266t6.5 -257q3 -59 33.5 -87.5t92.5 -28.5t96 28.5t37 87.5q1 38 1.5 84.5t0 92t-1.5 84.5h-122v189h333q3 -84 2.5 -190t-4.5 -222q-7 -178 -86.5 -255.5t-255.5 -77.5zM420 1672q-130 0 -189.5 58.5t-66.5 194.5h132
q1 -75 29.5 -107.5t94.5 -32.5q67 0 95.5 32.5t28.5 107.5h132q-7 -136 -66.5 -194.5t-189.5 -58.5z" />
    <glyph glyph-name="gbreve" unicode="&#x11f;" horiz-adv-x="865" 
d="M403 -364q-154 0 -235.5 44t-94.5 132q-2 11 -3.5 27t-0.5 32q5 51 39.5 86t88.5 42v34q-49 11 -77.5 38.5t-34.5 71.5q-1 12 -1 23.5t1 25.5q5 43 40 70.5t86 34.5v34q-70 32 -103.5 97t-40.5 170q-1 49 -2 87t-1 72.5t1 72.5t2 84q6 106 39.5 172.5t105 98.5t190.5 32
q116 0 183.5 -30.5t102.5 -96.5h34q7 57 41 83.5t100 26.5v-166h-32q-45 0 -70 -27.5t-26 -91.5l-1 -84q1 -31 1 -58v-53.5t-0.5 -55.5t-2.5 -66q-6 -109 -40.5 -176t-104.5 -96.5t-187 -29.5q-85 1 -118.5 -15t-33.5 -52v-9q0 -23 10.5 -36.5t43 -19.5t99.5 -8
q176 -4 261 -56.5t100 -165.5q2 -17 2 -35t-2 -40q-8 -80 -51 -129t-120 -71.5t-188 -22.5zM408 -211q52 0 89.5 8.5t59 27.5t26.5 49q4 14 3.5 26.5t-4.5 25.5q-6 32 -27.5 49t-58 24t-87.5 8q-78 2 -117 -16.5t-47 -64.5q-3 -13 -3 -26.5t2 -25.5q5 -32 24.5 -50.5
t54.5 -26.5t85 -8zM400 460q67 0 91.5 27.5t28.5 82.5q2 37 3 84.5t1 98.5t-1 100t-3 88q-4 59 -30 85t-90 26q-65 0 -92 -26t-29 -87q-2 -53 -3 -103t-1 -96t1 -87.5t3 -78.5q3 -54 27.5 -84t93.5 -30zM402 1272q-130 0 -189.5 58.5t-66.5 194.5h132q1 -75 29.5 -107.5
t94.5 -32.5q67 0 95.5 32.5t28.5 107.5h132q-7 -136 -66.5 -194.5t-189.5 -58.5z" />
    <glyph glyph-name="Gdotaccent" unicode="&#x120;" horiz-adv-x="842" 
d="M428 -17q-122 0 -195.5 33.5t-108 107t-38.5 192.5q-3 110 -4 232.5t-1 248t1 247t4 230.5q5 124 40 199.5t108.5 109.5t192.5 34q171 0 249.5 -77t88.5 -254q3 -62 3 -131.5t-3 -131.5h-216q3 68 3 150.5t-3 150.5q-3 58 -33.5 86.5t-88.5 28.5q-61 0 -91.5 -28.5
t-33.5 -86.5q-4 -125 -6.5 -257t-2.5 -266t2.5 -266t6.5 -257q3 -59 33.5 -87.5t92.5 -28.5t96 28.5t37 87.5q1 38 1.5 84.5t0 92t-1.5 84.5h-122v189h333q3 -84 2.5 -190t-4.5 -222q-7 -178 -86.5 -255.5t-255.5 -77.5zM344 1680v154h153v-154h-153z" />
    <glyph glyph-name="gdotaccent" unicode="&#x121;" horiz-adv-x="865" 
d="M403 -364q-154 0 -235.5 44t-94.5 132q-2 11 -3.5 27t-0.5 32q5 51 39.5 86t88.5 42v34q-49 11 -77.5 38.5t-34.5 71.5q-1 12 -1 23.5t1 25.5q5 43 40 70.5t86 34.5v34q-70 32 -103.5 97t-40.5 170q-1 49 -2 87t-1 72.5t1 72.5t2 84q6 106 39.5 172.5t105 98.5t190.5 32
q116 0 183.5 -30.5t102.5 -96.5h34q7 57 41 83.5t100 26.5v-166h-32q-45 0 -70 -27.5t-26 -91.5l-1 -84q1 -31 1 -58v-53.5t-0.5 -55.5t-2.5 -66q-6 -109 -40.5 -176t-104.5 -96.5t-187 -29.5q-85 1 -118.5 -15t-33.5 -52v-9q0 -23 10.5 -36.5t43 -19.5t99.5 -8
q176 -4 261 -56.5t100 -165.5q2 -17 2 -35t-2 -40q-8 -80 -51 -129t-120 -71.5t-188 -22.5zM408 -211q52 0 89.5 8.5t59 27.5t26.5 49q4 14 3.5 26.5t-4.5 25.5q-6 32 -27.5 49t-58 24t-87.5 8q-78 2 -117 -16.5t-47 -64.5q-3 -13 -3 -26.5t2 -25.5q5 -32 24.5 -50.5
t54.5 -26.5t85 -8zM400 460q67 0 91.5 27.5t28.5 82.5q2 37 3 84.5t1 98.5t-1 100t-3 88q-4 59 -30 85t-90 26q-65 0 -92 -26t-29 -87q-2 -53 -3 -103t-1 -96t1 -87.5t3 -78.5q3 -54 27.5 -84t93.5 -30zM326 1280v154h153v-154h-153z" />
    <glyph glyph-name="uni0122" unicode="&#x122;" horiz-adv-x="842" 
d="M428 -17q-122 0 -195.5 33.5t-108 107t-38.5 192.5q-3 110 -4 232.5t-1 248t1 247t4 230.5q5 124 40 199.5t108.5 109.5t192.5 34q171 0 249.5 -77t88.5 -254q3 -62 3 -131.5t-3 -131.5h-216q3 68 3 150.5t-3 150.5q-3 58 -33.5 86.5t-88.5 28.5q-61 0 -91.5 -28.5
t-33.5 -86.5q-4 -125 -6.5 -257t-2.5 -266t2.5 -266t6.5 -257q3 -59 33.5 -87.5t92.5 -28.5t96 28.5t37 87.5q1 38 1.5 84.5t0 92t-1.5 84.5h-122v189h333q3 -84 2.5 -190t-4.5 -222q-7 -178 -86.5 -255.5t-255.5 -77.5zM346 -403l59 139h-86v184h218v-163l-80 -160h-111z
" />
    <glyph glyph-name="uni0123" unicode="&#x123;" horiz-adv-x="865" 
d="M403 -364q-154 0 -235.5 44t-94.5 132q-2 11 -3.5 27t-0.5 32q5 51 39.5 86t88.5 42v34q-49 11 -77.5 38.5t-34.5 71.5q-1 12 -1 23.5t1 25.5q5 43 40 70.5t86 34.5v34q-70 32 -103.5 97t-40.5 170q-1 49 -2 87t-1 72.5t1 72.5t2 84q6 106 39.5 172.5t105 98.5t190.5 32
q116 0 183.5 -30.5t102.5 -96.5h34q7 57 41 83.5t100 26.5v-166h-32q-45 0 -70 -27.5t-26 -91.5l-1 -84q1 -31 1 -58v-53.5t-0.5 -55.5t-2.5 -66q-6 -109 -40.5 -176t-104.5 -96.5t-187 -29.5q-85 1 -118.5 -15t-33.5 -52v-9q0 -23 10.5 -36.5t43 -19.5t99.5 -8
q176 -4 261 -56.5t100 -165.5q2 -17 2 -35t-2 -40q-8 -80 -51 -129t-120 -71.5t-188 -22.5zM408 -211q52 0 89.5 8.5t59 27.5t26.5 49q4 14 3.5 26.5t-4.5 25.5q-6 32 -27.5 49t-58 24t-87.5 8q-78 2 -117 -16.5t-47 -64.5q-3 -13 -3 -26.5t2 -25.5q5 -32 24.5 -50.5
t54.5 -26.5t85 -8zM400 460q67 0 91.5 27.5t28.5 82.5q2 37 3 84.5t1 98.5t-1 100t-3 88q-4 59 -30 85t-90 26q-65 0 -92 -26t-29 -87q-2 -53 -3 -103t-1 -96t1 -87.5t3 -78.5q3 -54 27.5 -84t93.5 -30zM490 1619l-59 -140h87v-184h-218v163l80 161h110z" />
    <glyph glyph-name="Hcircumflex" unicode="&#x124;" horiz-adv-x="851" 
d="M93 0v1600h216v-694h233v694h216v-1600h-216v714h-233v-714h-216zM213 1682l147 252h130l146 -252h-145l-66 126l-67 -126h-145z" />
    <glyph glyph-name="hcircumflex" unicode="&#x125;" horiz-adv-x="873" 
d="M96 0v1600h216v-518h40q36 66 78.5 100.5t123.5 34.5q110 0 169 -66.5t59 -221.5v-929h-216v947q0 57 -25 83t-75 26q-48 0 -91.5 -26t-62.5 -78v-952h-216zM245 1682l147 252h130l146 -252h-145l-66 126l-67 -126h-145z" />
    <glyph glyph-name="Hbar" unicode="&#x126;" horiz-adv-x="1006" 
d="M64 1254h878v-110h-878v110zM171 0v1600h216v-694h232v694h217v-1600h-217v714h-232v-714h-216z" />
    <glyph glyph-name="hbar" unicode="&#x127;" horiz-adv-x="873" 
d="M96 0v1600h216v-518h40q36 66 78.5 100.5t123.5 34.5q110 0 169 -66.5t59 -221.5v-929h-216v947q0 57 -25 83t-75 26q-48 0 -91.5 -26t-62.5 -78v-952h-216zM38 1443h454v-119h-454v119z" />
    <glyph glyph-name="Itilde" unicode="&#x128;" horiz-adv-x="402" 
d="M93 0v1600h216v-1600h-216zM335 1862h88q-3 -92 -36 -136.5t-94 -44.5q-38 0 -60.5 13t-38 29.5t-32 29t-43.5 12.5q-26 0 -36.5 -19.5t-14.5 -54.5h-88q8 98 42.5 143t96.5 45q39 0 62.5 -12.5t39.5 -29t31.5 -29t39.5 -12.5t33 17t10 49z" />
    <glyph glyph-name="itilde" unicode="&#x129;" horiz-adv-x="408" 
d="M96 0v1200h216v-1200h-216zM338 1462h88q-3 -92 -36 -136.5t-94 -44.5q-38 0 -60.5 13t-38 29.5t-32 29t-43.5 12.5q-26 0 -36.5 -19.5t-14.5 -54.5h-88q8 98 42.5 143t96.5 45q39 0 62.5 -12.5t39.5 -29t31.5 -29t39.5 -12.5t33 17t10 49z" />
    <glyph glyph-name="Imacron" unicode="&#x12a;" horiz-adv-x="402" 
d="M93 0v1600h216v-1600h-216zM-78 1773h556v-104h-556v104z" />
    <glyph glyph-name="imacron" unicode="&#x12b;" horiz-adv-x="408" 
d="M96 0v1200h216v-1200h-216zM-75 1373h556v-104h-556v104z" />
    <glyph glyph-name="Ibreve" unicode="&#x12c;" horiz-adv-x="402" 
d="M93 0v1600h216v-1600h-216zM201 1672q-130 0 -189.5 58.5t-66.5 194.5h132q1 -75 29.5 -107.5t94.5 -32.5q67 0 95.5 32.5t28.5 107.5h132q-7 -136 -66.5 -194.5t-189.5 -58.5z" />
    <glyph glyph-name="ibreve" unicode="&#x12d;" horiz-adv-x="408" 
d="M96 0v1200h216v-1200h-216zM203 1272q-130 0 -189.5 58.5t-66.5 194.5h132q1 -75 29.5 -107.5t94.5 -32.5q67 0 95.5 32.5t28.5 107.5h132q-7 -136 -66.5 -194.5t-189.5 -58.5z" />
    <glyph glyph-name="Iogonek" unicode="&#x12e;" horiz-adv-x="402" 
d="M93 0v1600h216v-1600h-216zM345 -299h-61q-120 0 -171 48.5t-35 155.5l16 95h116l-16 -95q-7 -52 14.5 -74.5t75.5 -22.5h61v-107z" />
    <glyph glyph-name="iogonek" unicode="&#x12f;" horiz-adv-x="402" 
d="M75 1407v193h255v-193h-255zM96 0v1200h216v-1200h-216zM344 -299h-61q-120 0 -171 48.5t-35 155.5l16 95h116l-16 -95q-7 -52 14.5 -74.5t75.5 -22.5h61v-107z" />
    <glyph glyph-name="Idotaccent" unicode="&#x130;" horiz-adv-x="402" 
d="M93 0v1600h216v-1600h-216zM124 1680v154h153v-154h-153z" />
    <glyph glyph-name="dotlessi" unicode="&#x131;" horiz-adv-x="408" 
d="M96 0v1200h216v-1200h-216z" />
    <glyph glyph-name="Jcircumflex" unicode="&#x134;" horiz-adv-x="781" 
d="M373 -17q-119 0 -189.5 33.5t-102 107t-34.5 192.5q-2 66 -2 136.5t2 136.5h204q-2 -45 -2.5 -100.5t0 -110.5t2.5 -100q2 -59 30.5 -87.5t91.5 -28.5t90 28.5t27 87.5v1322h216v-1284q0 -178 -75 -255.5t-258 -77.5zM214 1682l147 252h130l146 -252h-145l-66 126
l-67 -126h-145z" />
    <glyph glyph-name="jcircumflex" unicode="&#x135;" horiz-adv-x="410" 
d="M-17 -418q-30 0 -66 4t-67 9v163q26 -3 64.5 -4.5t67.5 -1.5q58 0 86.5 27t28.5 86v1335h216v-1319q0 -159 -80 -229t-250 -70zM-6 1282l147 252h130l146 -252h-145l-66 126l-67 -126h-145z" />
    <glyph glyph-name="uni0136" unicode="&#x136;" horiz-adv-x="842" 
d="M93 0v1600h230l-3 -383l-36 -384h43l112 402l127 365h237l-252 -687l270 -913h-220l-192 668l-96 -226v-442h-220zM381 -403l59 139h-86v184h218v-163l-80 -160h-111z" />
    <glyph glyph-name="uni0137" unicode="&#x137;" horiz-adv-x="776" 
d="M96 0v1600h202v-367l-24 -532h37l85 240l111 259h224l-224 -473l267 -727h-222l-181 506l-68 -125v-381h-207zM340 -403l59 139h-86v184h218v-163l-80 -160h-111z" />
    <glyph glyph-name="kgreenlandic" unicode="&#x138;" horiz-adv-x="834" 
d="M96 0v1200h202v-182l-24 -344h37l88 240l140 286h224l-256 -501l267 -699h-222l-178 477l-71 -134v-343h-207z" />
    <glyph glyph-name="Lacute" unicode="&#x139;" horiz-adv-x="691" 
d="M93 0v1600h216v-1408h357v-192h-573zM313 1680l167 252h146l-174 -252h-139z" />
    <glyph glyph-name="lacute" unicode="&#x13a;" horiz-adv-x="408" 
d="M96 0v1600h216v-1600h-216zM140 1680l167 252h146l-174 -252h-139z" />
    <glyph glyph-name="uni013B" unicode="&#x13b;" horiz-adv-x="691" 
d="M93 0v1600h216v-1408h357v-192h-573zM306 -403l59 139h-86v184h218v-163l-80 -160h-111z" />
    <glyph glyph-name="uni013C" unicode="&#x13c;" horiz-adv-x="408" 
d="M96 0v1600h216v-1600h-216zM129 -403l59 139h-86v184h218v-163l-80 -160h-111z" />
    <glyph glyph-name="Lcaron" unicode="&#x13d;" horiz-adv-x="691" 
d="M93 0v1600h216v-1408h357v-192h-573zM453 1345l51 252h144l-58 -252h-137z" />
    <glyph glyph-name="lcaron" unicode="&#x13e;" horiz-adv-x="553" 
d="M96 0v1600h216v-1600h-216zM358 1348l51 252h144l-58 -252h-137z" />
    <glyph glyph-name="Ldot" unicode="&#x13f;" horiz-adv-x="691" 
d="M93 0v1600h216v-1408h357v-192h-573zM497 751v167h168v-167h-168z" />
    <glyph glyph-name="ldot" unicode="&#x140;" horiz-adv-x="607" 
d="M96 0v1600h216v-1600h-216zM405 746v167h168v-167h-168z" />
    <glyph glyph-name="Lslash" unicode="&#x141;" horiz-adv-x="798" 
d="M199 0v485l-33 -112h-153l186 387v840h217v-513l38 113h165l-203 -410v-598h356v-192h-573z" />
    <glyph glyph-name="lslash" unicode="&#x142;" horiz-adv-x="632" 
d="M203 0v490l-37 -117h-153l190 390v837h216v-508l35 108h165l-200 -407v-793h-216z" />
    <glyph glyph-name="Nacute" unicode="&#x143;" horiz-adv-x="946" 
d="M93 0v1600h330l104 -508l123 -900h49l-40 782l-16 626h210v-1600h-345l-110 549l-98 860h-52l37 -803l17 -606h-209zM413 1680l167 252h146l-174 -252h-139z" />
    <glyph glyph-name="nacute" unicode="&#x144;" horiz-adv-x="873" 
d="M96 0v1200h216v-118h40q35 65 78.5 100t123.5 35q110 0 168.5 -66.5t59.5 -221.5v-929h-216v947q-1 57 -25.5 83t-74.5 26q-46 0 -90.5 -27.5t-63.5 -76.5v-952h-216zM377 1280l167 252h146l-174 -252h-139z" />
    <glyph glyph-name="uni0145" unicode="&#x145;" horiz-adv-x="946" 
d="M93 0v1600h330l104 -508l123 -900h49l-40 782l-16 626h210v-1600h-345l-110 549l-98 860h-52l37 -803l17 -606h-209zM398 -403l59 139h-86v184h218v-163l-80 -160h-111z" />
    <glyph glyph-name="uni0146" unicode="&#x146;" horiz-adv-x="873" 
d="M96 0v1200h216v-118h40q35 65 78.5 100t123.5 35q110 0 168.5 -66.5t59.5 -221.5v-929h-216v947q-1 57 -25.5 83t-74.5 26q-46 0 -90.5 -27.5t-63.5 -76.5v-952h-216zM366 -403l59 139h-86v184h218v-163l-80 -160h-111z" />
    <glyph glyph-name="Ncaron" unicode="&#x147;" horiz-adv-x="946" 
d="M93 0v1600h330l104 -508l123 -900h49l-40 782l-16 626h210v-1600h-345l-110 549l-98 860h-52l37 -803l17 -606h-209zM418 1682l-147 252h130l75 -141l75 141h130l-147 -252h-116z" />
    <glyph glyph-name="ncaron" unicode="&#x148;" horiz-adv-x="873" 
d="M96 0v1200h216v-118h40q35 65 78.5 100t123.5 35q110 0 168.5 -66.5t59.5 -221.5v-929h-216v947q-1 57 -25.5 83t-74.5 26q-46 0 -90.5 -27.5t-63.5 -76.5v-952h-216zM382 1282l-147 252h130l75 -141l75 141h130l-147 -252h-116z" />
    <glyph glyph-name="Eng" unicode="&#x14a;" horiz-adv-x="946" 
d="M527 -413q-29 0 -64.5 4t-64.5 9v155q24 -2 61 -4t66 -2q68 0 106.5 22.5t38.5 80.5v262h183v-246q0 -150 -78 -215.5t-248 -65.5zM93 0v1600h330l104 -508l123 -900h49l-40 782l-16 626h210v-1600h-345l-110 549l-98 860h-52l37 -803l17 -606h-209z" />
    <glyph glyph-name="eng" unicode="&#x14b;" horiz-adv-x="871" 
d="M423 -415q-30 0 -66.5 3.5t-66.5 9.5v160q25 -3 63.5 -4.5t67.5 -1.5q78 0 110.5 25t32.5 88v1082q0 57 -24 83t-74 26q-46 0 -90.5 -27.5t-63.5 -76.5v-952h-216v1200h216v-118h40q35 65 78.5 100t123.5 35q110 0 168 -66.5t58 -221.5v-1045q0 -159 -86 -229t-271 -70z
" />
    <glyph glyph-name="Omacron" unicode="&#x14c;" horiz-adv-x="856" 
d="M428 -17q-180 0 -259.5 76.5t-82.5 254.5q-3 120 -4 242t-1 244.5t1 244t4 242.5q3 177 82.5 253.5t259.5 76.5t258.5 -76.5t82.5 -253.5q4 -122 5.5 -244t1.5 -244t-1.5 -243.5t-5.5 -241.5q-4 -178 -82.5 -254.5t-258.5 -76.5zM428 162q64 0 94 27.5t31 86.5
q5 124 6.5 257.5t1.5 269.5t-2 268t-6 254q-1 59 -31.5 86.5t-93.5 27.5t-93.5 -27.5t-32.5 -86.5q-4 -122 -6.5 -254t-2 -268t2.5 -269.5t6 -257.5q2 -59 32.5 -86.5t93.5 -27.5zM151 1773h556v-104h-556v104z" />
    <glyph glyph-name="omacron" unicode="&#x14d;" horiz-adv-x="835" 
d="M418 -17q-120 0 -191.5 33t-104.5 106t-40 192q-2 57 -3.5 131t-1.5 153t1.5 154t3.5 135q7 118 40 190.5t104.5 106t191.5 33.5q122 0 192.5 -33.5t103.5 -106t39 -190.5q2 -58 3 -131.5t1 -153t-1 -154t-3 -134.5q-6 -118 -39 -191t-103.5 -106.5t-192.5 -33.5z
M418 148q63 0 90 27t28 87q3 88 4.5 172t1.5 167t-1.5 166.5t-4.5 171.5q-1 59 -27.5 86t-90.5 27q-62 0 -90 -27t-30 -86q-2 -88 -3.5 -172t-1.5 -167t1.5 -167t3.5 -171q2 -60 30 -87t90 -27zM139 1373h556v-104h-556v104z" />
    <glyph glyph-name="Obreve" unicode="&#x14e;" horiz-adv-x="856" 
d="M428 -17q-180 0 -259.5 76.5t-82.5 254.5q-3 120 -4 242t-1 244.5t1 244t4 242.5q3 177 82.5 253.5t259.5 76.5t258.5 -76.5t82.5 -253.5q4 -122 5.5 -244t1.5 -244t-1.5 -243.5t-5.5 -241.5q-4 -178 -82.5 -254.5t-258.5 -76.5zM428 162q64 0 94 27.5t31 86.5
q5 124 6.5 257.5t1.5 269.5t-2 268t-6 254q-1 59 -31.5 86.5t-93.5 27.5t-93.5 -27.5t-32.5 -86.5q-4 -122 -6.5 -254t-2 -268t2.5 -269.5t6 -257.5q2 -59 32.5 -86.5t93.5 -27.5zM429 1672q-130 0 -189.5 58.5t-66.5 194.5h132q1 -75 29.5 -107.5t94.5 -32.5
q67 0 95.5 32.5t28.5 107.5h132q-7 -136 -66.5 -194.5t-189.5 -58.5z" />
    <glyph glyph-name="obreve" unicode="&#x14f;" horiz-adv-x="835" 
d="M418 -17q-120 0 -191.5 33t-104.5 106t-40 192q-2 57 -3.5 131t-1.5 153t1.5 154t3.5 135q7 118 40 190.5t104.5 106t191.5 33.5q122 0 192.5 -33.5t103.5 -106t39 -190.5q2 -58 3 -131.5t1 -153t-1 -154t-3 -134.5q-6 -118 -39 -191t-103.5 -106.5t-192.5 -33.5z
M418 148q63 0 90 27t28 87q3 88 4.5 172t1.5 167t-1.5 166.5t-4.5 171.5q-1 59 -27.5 86t-90.5 27q-62 0 -90 -27t-30 -86q-2 -88 -3.5 -172t-1.5 -167t1.5 -167t3.5 -171q2 -60 30 -87t90 -27zM418 1272q-130 0 -189.5 58.5t-66.5 194.5h132q1 -75 29.5 -107.5t94.5 -32.5
q67 0 95.5 32.5t28.5 107.5h132q-7 -136 -66.5 -194.5t-189.5 -58.5z" />
    <glyph glyph-name="Ohungarumlaut" unicode="&#x150;" horiz-adv-x="856" 
d="M428 -17q-180 0 -259.5 76.5t-82.5 254.5q-3 120 -4 242t-1 244.5t1 244t4 242.5q3 177 82.5 253.5t259.5 76.5t258.5 -76.5t82.5 -253.5q4 -122 5.5 -244t1.5 -244t-1.5 -243.5t-5.5 -241.5q-4 -178 -82.5 -254.5t-258.5 -76.5zM428 162q64 0 94 27.5t31 86.5
q5 124 6.5 257.5t1.5 269.5t-2 268t-6 254q-1 59 -31.5 86.5t-93.5 27.5t-93.5 -27.5t-32.5 -86.5q-4 -122 -6.5 -254t-2 -268t2.5 -269.5t6 -257.5q2 -59 32.5 -86.5t93.5 -27.5zM229 1682l193 252h152l-193 -252h-152zM471 1682l193 252h152l-193 -252h-152z" />
    <glyph glyph-name="ohungarumlaut" unicode="&#x151;" horiz-adv-x="835" 
d="M418 -17q-120 0 -191.5 33t-104.5 106t-40 192q-2 57 -3.5 131t-1.5 153t1.5 154t3.5 135q7 118 40 190.5t104.5 106t191.5 33.5q122 0 192.5 -33.5t103.5 -106t39 -190.5q2 -58 3 -131.5t1 -153t-1 -154t-3 -134.5q-6 -118 -39 -191t-103.5 -106.5t-192.5 -33.5z
M418 148q63 0 90 27t28 87q3 88 4.5 172t1.5 167t-1.5 166.5t-4.5 171.5q-1 59 -27.5 86t-90.5 27q-62 0 -90 -27t-30 -86q-2 -88 -3.5 -172t-1.5 -167t1.5 -167t3.5 -171q2 -60 30 -87t90 -27zM217 1282l193 252h152l-193 -252h-152zM459 1282l193 252h152l-193 -252h-152z
" />
    <glyph glyph-name="OE" unicode="&#x152;" horiz-adv-x="1178" 
d="M428 -17q-180 0 -259.5 76.5t-82.5 254.5q-3 120 -4 242t-1 244.5t1 244t4 242.5q3 177 82.5 253.5t259.5 76.5q106 0 168 -30l1 13h537v-192h-356v-502h336v-192h-336v-522h356v-192h-537l-1 13q-62 -30 -168 -30zM428 162q64 0 94 27.5t31 86.5q3 62 4.5 133.5t2 149
t1 158t0 161.5t-1.5 159t-2 151t-4 137q-1 59 -31.5 86.5t-93.5 27.5t-93.5 -27.5t-32.5 -86.5q-4 -122 -6.5 -254t-2 -268t2.5 -269.5t6 -257.5q2 -59 32.5 -86.5t93.5 -27.5z" />
    <glyph glyph-name="oe" unicode="&#x153;" horiz-adv-x="1266" 
d="M418 -17q-120 0 -191.5 33t-104.5 106t-40 192q-2 57 -3.5 131t-1.5 153t1.5 154t3.5 135q7 118 40 190.5t104.5 106t191.5 33.5q122 0 192.5 -33.5t103.5 -106t39 -190.5q2 -58 3 -131.5t1 -153t-1 -154t-3 -134.5q-6 -118 -39 -191t-103.5 -106.5t-192.5 -33.5z
M418 148q63 0 90 27t28 87q3 88 4.5 172t1.5 167t-1.5 166.5t-4.5 171.5q-1 59 -27.5 86t-90.5 27q-62 0 -90 -27t-30 -86q-2 -88 -3.5 -172t-1.5 -167t1.5 -167t3.5 -171q2 -60 30 -87t90 -27zM877 -17q-170 0 -246.5 70t-85.5 230q-2 57 -3 139.5t-1 173t1 174.5t3 144
q11 163 87 233t243 70q164 0 238.5 -68.5t82.5 -225.5q1 -27 1.5 -84.5t0 -131t-3.5 -146.5h-436q0 -73 1.5 -147.5t2.5 -152.5q2 -63 28.5 -88t85.5 -25q56 0 80 25t27 88q2 30 2 76t-2 102h211q2 -27 3 -73.5t-1 -82.5q-8 -160 -80.5 -230t-238.5 -70zM758 716h227
q1 49 1 96t-1 82.5t-2 51.5q-3 57 -27.5 81.5t-80.5 24.5q-59 0 -85 -24.5t-28 -81.5q-1 -61 -2 -118t-2 -112z" />
    <glyph glyph-name="Racute" unicode="&#x154;" horiz-adv-x="825" 
d="M93 0v1600h315q179 0 259.5 -75t86.5 -249q3 -73 3.5 -133.5t0 -119t-3.5 -123.5q-3 -113 -38.5 -183.5t-109.5 -104.5l175 -612h-230l-149 576h-93v-576h-216zM309 767h98q65 0 96.5 30.5t34.5 91.5q3 64 4 131.5t0 135t-4 131.5q-3 61 -34 91t-96 30h-99v-641z
M341 1680l167 252h146l-174 -252h-139z" />
    <glyph glyph-name="racute" unicode="&#x155;" horiz-adv-x="598" 
d="M96 0v1200h216v-132h40q13 77 52.5 107t104.5 30q21 0 41.5 -1t32.5 -2v-168h-72q-99 0 -142.5 -33t-56.5 -98v-903h-216zM267 1280l167 252h146l-174 -252h-139z" />
    <glyph glyph-name="uni0156" unicode="&#x156;" horiz-adv-x="825" 
d="M93 0v1600h315q179 0 259.5 -75t86.5 -249q3 -73 3.5 -133.5t0 -119t-3.5 -123.5q-3 -113 -38.5 -183.5t-109.5 -104.5l175 -612h-230l-149 576h-93v-576h-216zM309 767h98q65 0 96.5 30.5t34.5 91.5q3 64 4 131.5t0 135t-4 131.5q-3 61 -34 91t-96 30h-99v-641z
M359 -403l59 139h-86v184h218v-163l-80 -160h-111z" />
    <glyph glyph-name="uni0157" unicode="&#x157;" horiz-adv-x="598" 
d="M96 0v1200h216v-132h40q13 77 52.5 107t104.5 30q21 0 41.5 -1t32.5 -2v-168h-72q-99 0 -142.5 -33t-56.5 -98v-903h-216zM129 -403l59 139h-86v184h218v-163l-80 -160h-111z" />
    <glyph glyph-name="Rcaron" unicode="&#x158;" horiz-adv-x="825" 
d="M93 0v1600h315q179 0 259.5 -75t86.5 -249q3 -73 3.5 -133.5t0 -119t-3.5 -123.5q-3 -113 -38.5 -183.5t-109.5 -104.5l175 -612h-230l-149 576h-93v-576h-216zM309 767h98q65 0 96.5 30.5t34.5 91.5q3 64 4 131.5t0 135t-4 131.5q-3 61 -34 91t-96 30h-99v-641z
M346 1682l-147 252h130l75 -141l75 141h130l-147 -252h-116z" />
    <glyph glyph-name="rcaron" unicode="&#x159;" horiz-adv-x="598" 
d="M96 0v1200h216v-132h40q13 77 52.5 107t104.5 30q21 0 41.5 -1t32.5 -2v-168h-72q-99 0 -142.5 -33t-56.5 -98v-903h-216zM272 1282l-147 252h130l75 -141l75 141h130l-147 -252h-116z" />
    <glyph glyph-name="Sacute" unicode="&#x15a;" horiz-adv-x="815" 
d="M410 -17q-179 0 -256 77.5t-84 255.5q-1 47 -1.5 91.5t1 89.5t5.5 92h204q-4 -80 -4.5 -160t4.5 -151q4 -59 35 -87.5t95 -28.5q63 0 91 28.5t34 87.5q3 45 4 84t0 79t-4 88q-4 59 -24 101t-73 56l-134 34q-90 23 -141 67.5t-73 113.5t-25 165q-1 54 -0.5 110t1.5 111
q4 118 38.5 190.5t109 106t196.5 33.5q173 0 250.5 -77t84.5 -254q2 -49 1 -120.5t-4 -142.5h-208q3 75 3.5 150.5t-2.5 150.5q-1 58 -33 86.5t-93 28.5q-64 0 -93 -28.5t-34 -86.5q-5 -64 -4.5 -129t4.5 -129t25 -103t76 -53l121 -29q95 -22 148 -68.5t75 -117t25 -166.5
q2 -42 2 -76t-1 -66.5t-2 -70.5q-7 -178 -84.5 -255.5t-255.5 -77.5zM343 1680l167 252h146l-174 -252h-139z" />
    <glyph glyph-name="sacute" unicode="&#x15b;" horiz-adv-x="759" 
d="M373 -17q-161 0 -229.5 70t-74.5 230q-1 36 -0.5 82t2.5 74h190q-1 -56 -1 -101.5t1 -76.5q2 -63 29 -88t83 -25q65 0 93.5 25t29.5 88v40.5t0.5 26t-0.5 37.5q0 52 -16 82.5t-59 43.5l-118 36q-79 25 -132 61.5t-79.5 94.5t-27.5 146v42t1 42q1 163 71.5 233.5
t247.5 70.5q163 0 229.5 -68.5t73.5 -226.5q1 -36 0.5 -82.5t-2.5 -74.5h-197q1 25 1.5 60t0 68t-1.5 53q-2 59 -24.5 82.5t-79.5 23.5q-60 0 -83 -23.5t-25 -82.5q-1 -29 -2 -46.5t0 -53.5q0 -56 14 -92t66 -52l106 -29q119 -30 178 -97.5t59 -199.5q0 -23 -0.5 -49
t-1.5 -50q-1 -157 -74.5 -225.5t-247.5 -68.5zM313 1280l167 252h146l-174 -252h-139z" />
    <glyph glyph-name="Scircumflex" unicode="&#x15c;" horiz-adv-x="815" 
d="M410 -17q-179 0 -256 77.5t-84 255.5q-1 47 -1.5 91.5t1 89.5t5.5 92h204q-4 -80 -4.5 -160t4.5 -151q4 -59 35 -87.5t95 -28.5q63 0 91 28.5t34 87.5q3 45 4 84t0 79t-4 88q-4 59 -24 101t-73 56l-134 34q-90 23 -141 67.5t-73 113.5t-25 165q-1 54 -0.5 110t1.5 111
q4 118 38.5 190.5t109 106t196.5 33.5q173 0 250.5 -77t84.5 -254q2 -49 1 -120.5t-4 -142.5h-208q3 75 3.5 150.5t-2.5 150.5q-1 58 -33 86.5t-93 28.5q-64 0 -93 -28.5t-34 -86.5q-5 -64 -4.5 -129t4.5 -129t25 -103t76 -53l121 -29q95 -22 148 -68.5t75 -117t25 -166.5
q2 -42 2 -76t-1 -66.5t-2 -70.5q-7 -178 -84.5 -255.5t-255.5 -77.5zM194 1682l147 252h130l146 -252h-145l-66 126l-67 -126h-145z" />
    <glyph glyph-name="scircumflex" unicode="&#x15d;" horiz-adv-x="759" 
d="M373 -17q-161 0 -229.5 70t-74.5 230q-1 36 -0.5 82t2.5 74h190q-1 -56 -1 -101.5t1 -76.5q2 -63 29 -88t83 -25q65 0 93.5 25t29.5 88v40.5t0.5 26t-0.5 37.5q0 52 -16 82.5t-59 43.5l-118 36q-79 25 -132 61.5t-79.5 94.5t-27.5 146v42t1 42q1 163 71.5 233.5
t247.5 70.5q163 0 229.5 -68.5t73.5 -226.5q1 -36 0.5 -82.5t-2.5 -74.5h-197q1 25 1.5 60t0 68t-1.5 53q-2 59 -24.5 82.5t-79.5 23.5q-60 0 -83 -23.5t-25 -82.5q-1 -29 -2 -46.5t0 -53.5q0 -56 14 -92t66 -52l106 -29q119 -30 178 -97.5t59 -199.5q0 -23 -0.5 -49
t-1.5 -50q-1 -157 -74.5 -225.5t-247.5 -68.5zM164 1282l147 252h130l146 -252h-145l-66 126l-67 -126h-145z" />
    <glyph glyph-name="Scedilla" unicode="&#x15e;" horiz-adv-x="815" 
d="M410 -17q-179 0 -256 77.5t-84 255.5q-1 47 -1.5 91.5t1 89.5t5.5 92h204q-4 -80 -4.5 -160t4.5 -151q4 -59 35 -87.5t95 -28.5q63 0 91 28.5t34 87.5q3 45 4 84t0 79t-4 88q-4 59 -24 101t-73 56l-134 34q-90 23 -141 67.5t-73 113.5t-25 165q-1 54 -0.5 110t1.5 111
q4 118 38.5 190.5t109 106t196.5 33.5q173 0 250.5 -77t84.5 -254q2 -49 1 -120.5t-4 -142.5h-208q3 75 3.5 150.5t-2.5 150.5q-1 58 -33 86.5t-93 28.5q-64 0 -93 -28.5t-34 -86.5q-5 -64 -4.5 -129t4.5 -129t25 -103t76 -53l121 -29q95 -22 148 -68.5t75 -117t25 -166.5
q2 -42 2 -76t-1 -66.5t-2 -70.5q-7 -178 -84.5 -255.5t-255.5 -77.5zM214 -285v107h61q54 0 76.5 22.5t14.5 74.5l-16 95h116l15 -95q16 -107 -34.5 -155.5t-171.5 -48.5h-61z" />
    <glyph glyph-name="scedilla" unicode="&#x15f;" horiz-adv-x="759" 
d="M373 -17q-161 0 -229.5 70t-74.5 230q-1 36 -0.5 82t2.5 74h190q-1 -56 -1 -101.5t1 -76.5q2 -63 29 -88t83 -25q65 0 93.5 25t29.5 88v40.5t0.5 26t-0.5 37.5q0 52 -16 82.5t-59 43.5l-118 36q-79 25 -132 61.5t-79.5 94.5t-27.5 146v42t1 42q1 163 71.5 233.5
t247.5 70.5q163 0 229.5 -68.5t73.5 -226.5q1 -36 0.5 -82.5t-2.5 -74.5h-197q1 25 1.5 60t0 68t-1.5 53q-2 59 -24.5 82.5t-79.5 23.5q-60 0 -83 -23.5t-25 -82.5q-1 -29 -2 -46.5t0 -53.5q0 -56 14 -92t66 -52l106 -29q119 -30 178 -97.5t59 -199.5q0 -23 -0.5 -49
t-1.5 -50q-1 -157 -74.5 -225.5t-247.5 -68.5zM185 -285v107h61q54 0 76.5 22.5t14.5 74.5l-16 95h116l15 -95q16 -107 -34.5 -155.5t-171.5 -48.5h-61z" />
    <glyph glyph-name="Scaron" unicode="&#x160;" horiz-adv-x="815" 
d="M410 -17q-179 0 -256 77.5t-84 255.5q-1 47 -1.5 91.5t1 89.5t5.5 92h204q-4 -80 -4.5 -160t4.5 -151q4 -59 35 -87.5t95 -28.5q63 0 91 28.5t34 87.5q3 45 4 84t0 79t-4 88q-4 59 -24 101t-73 56l-134 34q-90 23 -141 67.5t-73 113.5t-25 165q-1 54 -0.5 110t1.5 111
q4 118 38.5 190.5t109 106t196.5 33.5q173 0 250.5 -77t84.5 -254q2 -49 1 -120.5t-4 -142.5h-208q3 75 3.5 150.5t-2.5 150.5q-1 58 -33 86.5t-93 28.5q-64 0 -93 -28.5t-34 -86.5q-5 -64 -4.5 -129t4.5 -129t25 -103t76 -53l121 -29q95 -22 148 -68.5t75 -117t25 -166.5
q2 -42 2 -76t-1 -66.5t-2 -70.5q-7 -178 -84.5 -255.5t-255.5 -77.5zM348 1682l-147 252h130l75 -141l75 141h130l-147 -252h-116z" />
    <glyph glyph-name="scaron" unicode="&#x161;" horiz-adv-x="759" 
d="M373 -17q-161 0 -229.5 70t-74.5 230q-1 36 -0.5 82t2.5 74h190q-1 -56 -1 -101.5t1 -76.5q2 -63 29 -88t83 -25q65 0 93.5 25t29.5 88v40.5t0.5 26t-0.5 37.5q0 52 -16 82.5t-59 43.5l-118 36q-79 25 -132 61.5t-79.5 94.5t-27.5 146v42t1 42q1 163 71.5 233.5
t247.5 70.5q163 0 229.5 -68.5t73.5 -226.5q1 -36 0.5 -82.5t-2.5 -74.5h-197q1 25 1.5 60t0 68t-1.5 53q-2 59 -24.5 82.5t-79.5 23.5q-60 0 -83 -23.5t-25 -82.5q-1 -29 -2 -46.5t0 -53.5q0 -56 14 -92t66 -52l106 -29q119 -30 178 -97.5t59 -199.5q0 -23 -0.5 -49
t-1.5 -50q-1 -157 -74.5 -225.5t-247.5 -68.5zM318 1282l-147 252h130l75 -141l75 141h130l-147 -252h-116z" />
    <glyph glyph-name="uni0162" unicode="&#x162;" horiz-adv-x="699" 
d="M241 0v1408h-230v192h677v-192h-230v-1408h-217zM157 -285v107h61q54 0 76.5 22.5t14.5 74.5l-16 95h116l15 -95q16 -107 -34.5 -155.5t-171.5 -48.5h-61z" />
    <glyph glyph-name="uni0163" unicode="&#x163;" horiz-adv-x="588" 
d="M473 -17q-184 0 -260.5 70t-76.5 230v751h-98v166h100v340h217v-340h191v-166h-194v-775q0 -63 22.5 -87.5t99.5 -24.5q26 0 46 1t46 3v-158q-21 -5 -44.5 -7.5t-48.5 -2.5zM173 -285v107h61q54 0 76.5 22.5t14.5 74.5l-16 95h116l15 -95q16 -107 -34.5 -155.5
t-171.5 -48.5h-61z" />
    <glyph glyph-name="Tcaron" unicode="&#x164;" horiz-adv-x="699" 
d="M241 0v1408h-230v192h677v-192h-230v-1408h-217zM292 1682l-147 252h130l75 -141l75 141h130l-147 -252h-116z" />
    <glyph glyph-name="tcaron" unicode="&#x165;" horiz-adv-x="624" 
d="M473 -17q-184 0 -260.5 70t-76.5 230v751h-98v166h100v340h217v-340h191v-166h-194v-775q0 -63 22.5 -87.5t99.5 -24.5q26 0 46 1t46 3v-158q-21 -5 -44.5 -7.5t-48.5 -2.5zM407 1348l51 252h144l-58 -252h-137z" />
    <glyph glyph-name="Tbar" unicode="&#x166;" horiz-adv-x="699" 
d="M241 0v1408h-230v192h677v-192h-230v-1408h-217zM123 791h454v-119h-454v119z" />
    <glyph glyph-name="tbar" unicode="&#x167;" horiz-adv-x="588" 
d="M473 -17q-184 0 -260.5 70t-76.5 230v751h-98v166h100v340h217v-340h191v-166h-194v-775q0 -63 22.5 -87.5t99.5 -24.5q26 0 46 1t46 3v-158q-21 -5 -44.5 -7.5t-48.5 -2.5zM62 748h454v-119h-454v119z" />
    <glyph glyph-name="Utilde" unicode="&#x168;" horiz-adv-x="839" 
d="M420 -17q-182 0 -260.5 76.5t-80.5 254.5q-4 320 -4 643.5t4 642.5h216q-3 -213 -4 -437.5t0 -449t3 -437.5q0 -57 32 -85.5t94 -28.5q63 0 93.5 28.5t30.5 85.5q2 213 3 437.5t0.5 449t-3.5 437.5h216q5 -319 5 -642.5t-5 -643.5q-2 -178 -80.5 -254.5t-259.5 -76.5z
M554 1862h88q-3 -92 -36 -136.5t-94 -44.5q-38 0 -60.5 13t-38 29.5t-32 29t-43.5 12.5q-26 0 -36.5 -19.5t-14.5 -54.5h-88q8 98 42.5 143t96.5 45q39 0 62.5 -12.5t39.5 -29t31.5 -29t39.5 -12.5t33 17t10 49z" />
    <glyph glyph-name="utilde" unicode="&#x169;" horiz-adv-x="867" 
d="M321 -17q-109 0 -171 67t-62 221v929h216v-947q0 -57 23.5 -83t73.5 -26q47 0 91.5 27.5t62.5 76.5v952h216v-1200h-216v118h-32q-38 -70 -86.5 -102.5t-115.5 -32.5zM561 1462h88q-3 -92 -36 -136.5t-94 -44.5q-38 0 -60.5 13t-38 29.5t-32 29t-43.5 12.5
q-26 0 -36.5 -19.5t-14.5 -54.5h-88q8 98 42.5 143t96.5 45q39 0 62.5 -12.5t39.5 -29t31.5 -29t39.5 -12.5t33 17t10 49z" />
    <glyph glyph-name="Umacron" unicode="&#x16a;" horiz-adv-x="839" 
d="M420 -17q-182 0 -260.5 76.5t-80.5 254.5q-4 320 -4 643.5t4 642.5h216q-3 -213 -4 -437.5t0 -449t3 -437.5q0 -57 32 -85.5t94 -28.5q63 0 93.5 28.5t30.5 85.5q2 213 3 437.5t0.5 449t-3.5 437.5h216q5 -319 5 -642.5t-5 -643.5q-2 -178 -80.5 -254.5t-259.5 -76.5z
M141 1773h556v-104h-556v104z" />
    <glyph glyph-name="umacron" unicode="&#x16b;" horiz-adv-x="867" 
d="M321 -17q-109 0 -171 67t-62 221v929h216v-947q0 -57 23.5 -83t73.5 -26q47 0 91.5 27.5t62.5 76.5v952h216v-1200h-216v118h-32q-38 -70 -86.5 -102.5t-115.5 -32.5zM148 1373h556v-104h-556v104z" />
    <glyph glyph-name="Ubreve" unicode="&#x16c;" horiz-adv-x="839" 
d="M420 -17q-182 0 -260.5 76.5t-80.5 254.5q-4 320 -4 643.5t4 642.5h216q-3 -213 -4 -437.5t0 -449t3 -437.5q0 -57 32 -85.5t94 -28.5q63 0 93.5 28.5t30.5 85.5q2 213 3 437.5t0.5 449t-3.5 437.5h216q5 -319 5 -642.5t-5 -643.5q-2 -178 -80.5 -254.5t-259.5 -76.5z
M420 1672q-130 0 -189.5 58.5t-66.5 194.5h132q1 -75 29.5 -107.5t94.5 -32.5q67 0 95.5 32.5t28.5 107.5h132q-7 -136 -66.5 -194.5t-189.5 -58.5z" />
    <glyph glyph-name="ubreve" unicode="&#x16d;" horiz-adv-x="867" 
d="M321 -17q-109 0 -171 67t-62 221v929h216v-947q0 -57 23.5 -83t73.5 -26q47 0 91.5 27.5t62.5 76.5v952h216v-1200h-216v118h-32q-38 -70 -86.5 -102.5t-115.5 -32.5zM427 1272q-130 0 -189.5 58.5t-66.5 194.5h132q1 -75 29.5 -107.5t94.5 -32.5q67 0 95.5 32.5
t28.5 107.5h132q-7 -136 -66.5 -194.5t-189.5 -58.5z" />
    <glyph glyph-name="Uring" unicode="&#x16e;" horiz-adv-x="839" 
d="M420 -17q-182 0 -260.5 76.5t-80.5 254.5q-4 320 -4 643.5t4 642.5h216q-3 -213 -4 -437.5t0 -449t3 -437.5q0 -57 32 -85.5t94 -28.5q63 0 93.5 28.5t30.5 85.5q2 213 3 437.5t0.5 449t-3.5 437.5h216q5 -319 5 -642.5t-5 -643.5q-2 -178 -80.5 -254.5t-259.5 -76.5z
M420 1672q-71 0 -122.5 51t-51.5 124q0 72 51.5 123t122.5 51q73 0 124 -51t51 -123q0 -73 -51 -124t-124 -51zM420 1789q25 0 42 16.5t17 41.5q0 24 -17 41t-42 17q-24 0 -40.5 -17t-16.5 -41q0 -25 16.5 -41.5t40.5 -16.5z" />
    <glyph glyph-name="uring" unicode="&#x16f;" horiz-adv-x="867" 
d="M321 -17q-109 0 -171 67t-62 221v929h216v-947q0 -57 23.5 -83t73.5 -26q47 0 91.5 27.5t62.5 76.5v952h216v-1200h-216v118h-32q-38 -70 -86.5 -102.5t-115.5 -32.5zM427 1272q-71 0 -122.5 51t-51.5 124q0 72 51.5 123t122.5 51q73 0 124 -51t51 -123q0 -73 -51 -124
t-124 -51zM427 1389q25 0 42 16.5t17 41.5q0 24 -17 41t-42 17q-24 0 -40.5 -17t-16.5 -41q0 -25 16.5 -41.5t40.5 -16.5z" />
    <glyph glyph-name="Uhungarumlaut" unicode="&#x170;" horiz-adv-x="839" 
d="M420 -17q-182 0 -260.5 76.5t-80.5 254.5q-4 320 -4 643.5t4 642.5h216q-3 -213 -4 -437.5t0 -449t3 -437.5q0 -57 32 -85.5t94 -28.5q63 0 93.5 28.5t30.5 85.5q2 213 3 437.5t0.5 449t-3.5 437.5h216q5 -319 5 -642.5t-5 -643.5q-2 -178 -80.5 -254.5t-259.5 -76.5z
M219 1682l193 252h152l-193 -252h-152zM461 1682l193 252h152l-193 -252h-152z" />
    <glyph glyph-name="uhungarumlaut" unicode="&#x171;" horiz-adv-x="867" 
d="M321 -17q-109 0 -171 67t-62 221v929h216v-947q0 -57 23.5 -83t73.5 -26q47 0 91.5 27.5t62.5 76.5v952h216v-1200h-216v118h-32q-38 -70 -86.5 -102.5t-115.5 -32.5zM226 1282l193 252h152l-193 -252h-152zM468 1282l193 252h152l-193 -252h-152z" />
    <glyph glyph-name="Uogonek" unicode="&#x172;" horiz-adv-x="839" 
d="M420 -17q-182 0 -260.5 76.5t-80.5 254.5q-4 320 -4 643.5t4 642.5h216q-3 -213 -4 -437.5t0 -449t3 -437.5q0 -57 32 -85.5t94 -28.5q63 0 93.5 28.5t30.5 85.5q2 213 3 437.5t0.5 449t-3.5 437.5h216q5 -319 5 -642.5t-5 -643.5q-2 -178 -80.5 -254.5t-259.5 -76.5z
M723 -288h-61q-120 0 -171 48.5t-35 155.5l16 95h116l-16 -95q-7 -52 14.5 -74.5t75.5 -22.5h61v-107z" />
    <glyph glyph-name="uogonek" unicode="&#x173;" horiz-adv-x="867" 
d="M321 -17q-109 0 -171 67t-62 221v929h216v-947q0 -57 23.5 -83t73.5 -26q47 0 91.5 27.5t62.5 76.5v952h216v-1200h-216v118h-32q-38 -70 -86.5 -102.5t-115.5 -32.5zM806 -298h-61q-120 0 -171 48.5t-35 155.5l16 95h116l-16 -95q-7 -52 14.5 -74.5t75.5 -22.5h61v-107z
" />
    <glyph glyph-name="Wcircumflex" unicode="&#x174;" horiz-adv-x="1331" 
d="M180 0l-131 1600h218l44 -667l36 -741h49l20 741l97 657h306l98 -657l17 -741h48l38 741l44 667h217l-131 -1600h-365l-60 486l-34 919h-51l-35 -919l-60 -486h-365zM453 1682l147 252h130l146 -252h-145l-66 126l-67 -126h-145z" />
    <glyph glyph-name="wcircumflex" unicode="&#x175;" horiz-adv-x="1288" 
d="M171 0l-140 1200h217l50 -604l24 -434h66l18 434l54 601h365l52 -601l18 -434h66l25 434l52 604h218l-143 -1200h-377l-35 464l-24 571h-70l-25 -571l-35 -464h-376zM429 1282l147 252h130l146 -252h-145l-66 126l-67 -126h-145z" />
    <glyph glyph-name="Ycircumflex" unicode="&#x176;" horiz-adv-x="791" 
d="M287 0v400v2l-259 1198h221l81 -420l42 -464h46l41 464l82 420h222l-260 -1199v-2v-399h-216zM175 1682l147 252h130l146 -252h-145l-66 126l-67 -126h-145z" />
    <glyph glyph-name="ycircumflex" unicode="&#x177;" horiz-adv-x="769" 
d="M197 -414q-30 0 -69 3.5t-70 8.5v163q26 -2 67.5 -4t70.5 -2q77 0 105.5 25.5t36.5 88.5l17 131h-129l-190 1200h220l61 -564l52 -474h61l37 474l53 564h219l-185 -1315q-15 -106 -52.5 -172t-110.5 -96.5t-194 -30.5zM180 1282l147 252h130l146 -252h-145l-66 126
l-67 -126h-145z" />
    <glyph glyph-name="Ydieresis" unicode="&#x178;" horiz-adv-x="791" 
d="M287 0v400v2l-259 1198h221l81 -420l42 -464h46l41 464l82 420h222l-260 -1199v-2v-399h-216zM434 1710v154h154v-154h-154zM188 1710v154h153v-154h-153z" />
    <glyph glyph-name="Zacute" unicode="&#x179;" horiz-adv-x="716" 
d="M34 0v179l416 1229h-393v192h624v-183l-430 -1225h397v-192h-614zM291 1680l167 252h146l-174 -252h-139z" />
    <glyph glyph-name="zacute" unicode="&#x17a;" horiz-adv-x="681" 
d="M38 0v138l375 900l-367 -1v162l598 1v-142l-380 -896h373v-162h-599zM277 1280l167 252h146l-174 -252h-139z" />
    <glyph glyph-name="Zdotaccent" unicode="&#x17b;" horiz-adv-x="716" 
d="M34 0v179l416 1229h-393v192h624v-183l-430 -1225h397v-192h-614zM278 1680v154h153v-154h-153z" />
    <glyph glyph-name="zdotaccent" unicode="&#x17c;" horiz-adv-x="681" 
d="M38 0v138l375 900l-367 -1v162l598 1v-142l-380 -896h373v-162h-599zM265 1280v154h153v-154h-153z" />
    <glyph glyph-name="Zcaron" unicode="&#x17d;" horiz-adv-x="716" 
d="M34 0v179l416 1229h-393v192h624v-183l-430 -1225h397v-192h-614zM296 1682l-147 252h130l75 -141l75 141h130l-147 -252h-116z" />
    <glyph glyph-name="zcaron" unicode="&#x17e;" horiz-adv-x="681" 
d="M38 0v138l375 900l-367 -1v162l598 1v-142l-380 -896h373v-162h-599zM283 1282l-147 252h130l75 -141l75 141h130l-147 -252h-116z" />
    <glyph glyph-name="uni018F" unicode="&#x18f;" horiz-adv-x="860" 
d="M433 -17q-179 0 -259.5 77t-83.5 254q-1 142 -1 268t1 283h477q-1 117 -3 232t-5 225q-1 59 -33 87.5t-94 28.5q-66 0 -99 -28.5t-35 -87.5q-1 -39 -1 -91t0.5 -109t1.5 -112h-216q-2 72 -2 143t1 131q5 178 87 255t263 77q185 0 262.5 -77t81.5 -255q2 -110 2.5 -233.5
t0.5 -251.5t-0.5 -252t-2.5 -235q-3 -156 -83.5 -242.5t-259.5 -86.5zM433 161q61 0 93 28.5t33 86.5q3 106 5 215.5t3 221.5h-265q0 -77 0.5 -148.5t1.5 -143t2 -145.5q2 -58 33.5 -86.5t93.5 -28.5z" />
    <glyph glyph-name="florin" unicode="&#x192;" horiz-adv-x="1309" 
d="M229 -17q-36 0 -71 4t-65 9l27 162q24 -2 61.5 -3.5t61.5 -1.5q63 0 105 32.5t58 91.5l131 487h-225v110h254l122 457q43 160 136 224t256 64q37 0 72 -4.5t64 -9.5l-26 -159q-29 2 -59.5 2.5t-62.5 0.5q-64 0 -106.5 -33t-58.5 -92l-121 -450h270v-110h-300l-132 -493
q-29 -107 -78.5 -170t-126 -90.5t-186.5 -27.5z" />
    <glyph glyph-name="Ohorn" unicode="&#x1a0;" horiz-adv-x="856" 
d="M428 -17q-180 0 -259.5 76.5t-82.5 254.5q-3 120 -4 242t-1 244.5t1 244t4 242.5q3 177 82.5 253.5t259.5 76.5t258.5 -76.5t82.5 -253.5q4 -122 5.5 -244t1.5 -244t-1.5 -243.5t-5.5 -241.5q-4 -178 -82.5 -254.5t-258.5 -76.5zM428 162q64 0 94 27.5t31 86.5
q5 124 6.5 257.5t1.5 269.5t-2 268t-6 254q-1 59 -31.5 86.5t-93.5 27.5t-93.5 -27.5t-32.5 -86.5q-4 -122 -6.5 -254t-2 -268t2.5 -269.5t6 -257.5q2 -59 32.5 -86.5t93.5 -27.5zM597 1484q-8 0 -18.5 1t-24.5 3l-1 112h27h17q61 1 85.5 32.5t28.5 110.5q1 19 1.5 53t0 68
t-1.5 53h126q1 -19 1.5 -53t0 -68t-1.5 -53q-8 -135 -64.5 -197t-175.5 -62z" />
    <glyph glyph-name="ohorn" unicode="&#x1a1;" horiz-adv-x="835" 
d="M418 -17q-120 0 -191.5 33t-104.5 106t-40 192q-2 57 -3.5 131t-1.5 153t1.5 154t3.5 135q7 118 40 190.5t104.5 106t191.5 33.5q122 0 192.5 -33.5t103.5 -106t39 -190.5q2 -58 3 -131.5t1 -153t-1 -154t-3 -134.5q-6 -118 -39 -191t-103.5 -106.5t-192.5 -33.5z
M418 148q63 0 90 27t28 87q3 88 4.5 172t1.5 167t-1.5 166.5t-4.5 171.5q-1 59 -27.5 86t-90.5 27q-62 0 -90 -27t-30 -86q-2 -88 -3.5 -172t-1.5 -167t1.5 -167t3.5 -171q2 -60 30 -87t90 -27zM596 1085q-8 0 -18.5 1t-24.5 3l-1 112h27h17q61 1 85.5 32.5t28.5 110.5
q1 19 1.5 53t0 68t-1.5 53h126q1 -19 1.5 -53t0 -68t-1.5 -53q-8 -135 -64.5 -197t-175.5 -62z" />
    <glyph glyph-name="Uhorn" unicode="&#x1af;" horiz-adv-x="839" 
d="M420 -17q-182 0 -260.5 76.5t-80.5 254.5q-4 320 -4 643.5t4 642.5h216q-3 -213 -4 -437.5t0 -449t3 -437.5q0 -57 32 -85.5t94 -28.5q63 0 93.5 28.5t30.5 85.5q2 213 3 437.5t0.5 449t-3.5 437.5h216q5 -319 5 -642.5t-5 -643.5q-2 -178 -80.5 -254.5t-259.5 -76.5z
M644 1484q-8 0 -18.5 1t-24.5 3l-1 112h27h17q61 1 85.5 32.5t28.5 110.5q1 19 1.5 53t0 68t-1.5 53h126q1 -19 1.5 -53t0 -68t-1.5 -53q-8 -135 -64.5 -197t-175.5 -62z" />
    <glyph glyph-name="uhorn" unicode="&#x1b0;" horiz-adv-x="867" 
d="M321 -17q-109 0 -171 67t-62 221v929h216v-947q0 -57 23.5 -83t73.5 -26q47 0 91.5 27.5t62.5 76.5v952h216v-1200h-216v118h-32q-38 -70 -86.5 -102.5t-115.5 -32.5zM659 1084q-8 0 -18.5 1t-24.5 3l-1 112h27h17q61 1 85.5 32.5t28.5 110.5q1 19 1.5 53t0 68t-1.5 53
h126q1 -19 1.5 -53t0 -68t-1.5 -53q-8 -135 -64.5 -197t-175.5 -62z" />
    <glyph glyph-name="uni01C4" unicode="&#x1c4;" horiz-adv-x="1554" 
d="M93 0v1600h331q181 0 262 -78.5t84 -259.5q3 -165 4 -313t0 -296.5t-4 -313.5q-3 -181 -84 -260t-263 -79h-330zM309 192h114q66 0 98 30.5t33 92.5q3 122 4 243.5t1 242.5t-1 242.5t-4 243.5q-1 61 -33 91t-97 30h-115v-1216zM872 0v179l416 1229h-393v192h624v-183
l-430 -1225h397v-192h-614zM1134 1682l-147 252h130l75 -141l75 141h130l-147 -252h-116z" />
    <glyph glyph-name="uni01C5" unicode="&#x1c5;" horiz-adv-x="1536" 
d="M93 0v1600h331q181 0 262 -78.5t84 -259.5q3 -165 4 -313t0 -296.5t-4 -313.5q-3 -181 -84 -260t-263 -79h-330zM309 192h114q66 0 98 30.5t33 92.5q3 122 4 243.5t1 242.5t-1 242.5t-4 243.5q-1 61 -33 91t-97 30h-115v-1216zM893 0v138l375 900l-367 -1v162l598 1v-142
l-380 -896h373v-162h-599zM1138 1282l-147 252h130l75 -141l75 141h130l-147 -252h-116z" />
    <glyph glyph-name="uni01C6" unicode="&#x1c6;" horiz-adv-x="1541" 
d="M311 -17q-110 0 -166.5 67t-63.5 221q-2 66 -3 150.5t-1 174.5t1 176t3 157q7 155 65.5 221.5t167.5 66.5q82 0 124 -34.5t78 -100.5h33v518h216v-1600h-216v118h-34q-36 -65 -79 -100t-125 -35zM395 144q49 0 92 26.5t62 77.5v704q-19 52 -62 78t-92 26t-72 -26t-25 -83
q-5 -112 -6 -235t0 -241.5t6 -217.5q2 -57 24.5 -83t72.5 -26zM899 0v138l375 900l-367 -1v162l598 1v-142l-380 -896h373v-162h-599zM1143 1282l-147 252h130l75 -141l75 141h130l-147 -252h-116z" />
    <glyph glyph-name="uni01C7" unicode="&#x1c7;" horiz-adv-x="1472" 
d="M93 0v1600h216v-1408h357v-192h-573zM1064 -17q-119 0 -189.5 33.5t-102 107t-34.5 192.5q-2 66 -2 136.5t2 136.5h204q-2 -45 -2.5 -100.5t0 -110.5t2.5 -100q2 -59 30.5 -87.5t91.5 -28.5t90 28.5t27 87.5v1322h216v-1284q0 -178 -75 -255.5t-258 -77.5z" />
    <glyph glyph-name="uni01C8" unicode="&#x1c8;" horiz-adv-x="1101" 
d="M93 0v1600h216v-1408h357v-192h-573zM769 1407v193h255v-193h-255zM674 -418q-30 0 -66 4t-67 9v163q26 -3 64.5 -4.5t67.5 -1.5q58 0 86.5 27t28.5 86v1335h216v-1319q0 -159 -80 -229t-250 -70z" />
    <glyph glyph-name="uni01C9" unicode="&#x1c9;" horiz-adv-x="817" 
d="M96 0v1600h216v-1600h-216zM486 1407v193h255v-193h-255zM391 -418q-30 0 -66 4t-67 9v163q26 -3 64.5 -4.5t67.5 -1.5q58 0 86.5 27t28.5 86v1335h216v-1319q0 -159 -80 -229t-250 -70z" />
    <glyph glyph-name="uni01CA" unicode="&#x1ca;" horiz-adv-x="1727" 
d="M93 0v1600h330l104 -508l123 -900h49l-40 782l-16 626h210v-1600h-345l-110 549l-98 860h-52l37 -803l17 -606h-209zM1319 -17q-119 0 -189.5 33.5t-102 107t-34.5 192.5q-2 66 -2 136.5t2 136.5h204q-2 -45 -2.5 -100.5t0 -110.5t2.5 -100q2 -59 30.5 -87.5t91.5 -28.5
t90 28.5t27 87.5v1322h216v-1284q0 -178 -75 -255.5t-258 -77.5z" />
    <glyph glyph-name="uni01CB" unicode="&#x1cb;" horiz-adv-x="1355" 
d="M93 0v1600h330l104 -508l123 -900h49l-40 782l-16 626h210v-1600h-345l-110 549l-98 860h-52l37 -803l17 -606h-209zM1024 1407v193h255v-193h-255zM929 -418q-30 0 -66 4t-67 9v163q26 -3 64.5 -4.5t67.5 -1.5q58 0 86.5 27t28.5 86v1335h216v-1319q0 -159 -80 -229
t-250 -70z" />
    <glyph glyph-name="uni01CC" unicode="&#x1cc;" horiz-adv-x="1282" 
d="M96 0v1200h216v-118h40q35 65 78.5 100t123.5 35q110 0 168.5 -66.5t59.5 -221.5v-929h-216v947q-1 57 -25.5 83t-74.5 26q-46 0 -90.5 -27.5t-63.5 -76.5v-952h-216zM951 1407v193h255v-193h-255zM856 -418q-30 0 -66 4t-67 9v163q26 -3 64.5 -4.5t67.5 -1.5
q58 0 86.5 27t28.5 86v1335h216v-1319q0 -159 -80 -229t-250 -70z" />
    <glyph glyph-name="uni01CD" unicode="&#x1cd;" horiz-adv-x="816" 
d="M32 0l196 1600h360l196 -1600h-221l-38 399h-234l-37 -399h-222zM312 591h193l-34 352l-35 465h-56l-34 -465zM350 1682l-147 252h130l75 -141l75 141h130l-147 -252h-116z" />
    <glyph glyph-name="uni01CE" unicode="&#x1ce;" horiz-adv-x="823" 
d="M302 -14q-115 0 -169.5 60.5t-65.5 196.5q-1 22 -1.5 48t0.5 47q6 76 31.5 133t79.5 102t145 86q48 22 96.5 40.5t98.5 34.5v205q0 57 -22 85t-84 28q-53 0 -76.5 -23.5t-26.5 -82.5q-1 -19 -1.5 -53t0 -69.5t1.5 -58.5h-210q-1 25 -2 73t0 85q4 103 36 168t101 95.5
t184 30.5q120 0 188.5 -33.5t97.5 -105.5t29 -188l-1 -890h-216v119h-30q-29 -67 -69.5 -100t-113.5 -33zM387 144q45 0 77.5 26t51.5 72v342q-35 -11 -70 -25.5t-71 -38.5q-55 -33 -73.5 -78.5t-21.5 -103.5q-1 -19 -1 -39t1 -40q5 -56 32.5 -85.5t74.5 -29.5zM357 1282
l-147 252h130l75 -141l75 141h130l-147 -252h-116z" />
    <glyph glyph-name="uni01CF" unicode="&#x1cf;" horiz-adv-x="402" 
d="M93 0v1600h216v-1600h-216zM142 1682l-147 252h130l75 -141l75 141h130l-147 -252h-116z" />
    <glyph glyph-name="uni01D0" unicode="&#x1d0;" horiz-adv-x="408" 
d="M96 0v1200h216v-1200h-216zM145 1282l-147 252h130l75 -141l75 141h130l-147 -252h-116z" />
    <glyph glyph-name="uni01D1" unicode="&#x1d1;" horiz-adv-x="856" 
d="M428 -17q-180 0 -259.5 76.5t-82.5 254.5q-3 120 -4 242t-1 244.5t1 244t4 242.5q3 177 82.5 253.5t259.5 76.5t258.5 -76.5t82.5 -253.5q4 -122 5.5 -244t1.5 -244t-1.5 -243.5t-5.5 -241.5q-4 -178 -82.5 -254.5t-258.5 -76.5zM428 162q64 0 94 27.5t31 86.5
q5 124 6.5 257.5t1.5 269.5t-2 268t-6 254q-1 59 -31.5 86.5t-93.5 27.5t-93.5 -27.5t-32.5 -86.5q-4 -122 -6.5 -254t-2 -268t2.5 -269.5t6 -257.5q2 -59 32.5 -86.5t93.5 -27.5zM371 1682l-147 252h130l75 -141l75 141h130l-147 -252h-116z" />
    <glyph glyph-name="uni01D2" unicode="&#x1d2;" horiz-adv-x="835" 
d="M418 -17q-120 0 -191.5 33t-104.5 106t-40 192q-2 57 -3.5 131t-1.5 153t1.5 154t3.5 135q7 118 40 190.5t104.5 106t191.5 33.5q122 0 192.5 -33.5t103.5 -106t39 -190.5q2 -58 3 -131.5t1 -153t-1 -154t-3 -134.5q-6 -118 -39 -191t-103.5 -106.5t-192.5 -33.5z
M418 148q63 0 90 27t28 87q3 88 4.5 172t1.5 167t-1.5 166.5t-4.5 171.5q-1 59 -27.5 86t-90.5 27q-62 0 -90 -27t-30 -86q-2 -88 -3.5 -172t-1.5 -167t1.5 -167t3.5 -171q2 -60 30 -87t90 -27zM359 1282l-147 252h130l75 -141l75 141h130l-147 -252h-116z" />
    <glyph glyph-name="uni01D3" unicode="&#x1d3;" horiz-adv-x="839" 
d="M420 -17q-182 0 -260.5 76.5t-80.5 254.5q-4 320 -4 643.5t4 642.5h216q-3 -213 -4 -437.5t0 -449t3 -437.5q0 -57 32 -85.5t94 -28.5q63 0 93.5 28.5t30.5 85.5q2 213 3 437.5t0.5 449t-3.5 437.5h216q5 -319 5 -642.5t-5 -643.5q-2 -178 -80.5 -254.5t-259.5 -76.5z
M361 1682l-147 252h130l75 -141l75 141h130l-147 -252h-116z" />
    <glyph glyph-name="uni01D4" unicode="&#x1d4;" horiz-adv-x="867" 
d="M321 -17q-109 0 -171 67t-62 221v929h216v-947q0 -57 23.5 -83t73.5 -26q47 0 91.5 27.5t62.5 76.5v952h216v-1200h-216v118h-32q-38 -70 -86.5 -102.5t-115.5 -32.5zM368 1282l-147 252h130l75 -141l75 141h130l-147 -252h-116z" />
    <glyph glyph-name="uni01D5" unicode="&#x1d5;" horiz-adv-x="839" 
d="M420 -17q-182 0 -260.5 76.5t-80.5 254.5q-4 320 -4 643.5t4 642.5h216q-3 -213 -4 -437.5t0 -449t3 -437.5q0 -57 32 -85.5t94 -28.5q63 0 93.5 28.5t30.5 85.5q2 213 3 437.5t0.5 449t-3.5 437.5h216q5 -319 5 -642.5t-5 -643.5q-2 -178 -80.5 -254.5t-259.5 -76.5z
M466 1710v154h154v-154h-154zM220 1710v154h153v-154h-153zM141 2008h556v-104h-556v104z" />
    <glyph glyph-name="uni01D6" unicode="&#x1d6;" horiz-adv-x="867" 
d="M321 -17q-109 0 -171 67t-62 221v929h216v-947q0 -57 23.5 -83t73.5 -26q47 0 91.5 27.5t62.5 76.5v952h216v-1200h-216v118h-32q-38 -70 -86.5 -102.5t-115.5 -32.5zM473 1310v154h154v-154h-154zM227 1310v154h153v-154h-153zM148 1608h556v-104h-556v104z" />
    <glyph glyph-name="uni01D7" unicode="&#x1d7;" horiz-adv-x="839" 
d="M420 -17q-182 0 -260.5 76.5t-80.5 254.5q-4 320 -4 643.5t4 642.5h216q-3 -213 -4 -437.5t0 -449t3 -437.5q0 -57 32 -85.5t94 -28.5q63 0 93.5 28.5t30.5 85.5q2 213 3 437.5t0.5 449t-3.5 437.5h216q5 -319 5 -642.5t-5 -643.5q-2 -178 -80.5 -254.5t-259.5 -76.5z
M466 1710v154h154v-154h-154zM220 1710v154h153v-154h-153zM356 1915l167 252h146l-174 -252h-139z" />
    <glyph glyph-name="uni01D8" unicode="&#x1d8;" horiz-adv-x="867" 
d="M321 -17q-109 0 -171 67t-62 221v929h216v-947q0 -57 23.5 -83t73.5 -26q47 0 91.5 27.5t62.5 76.5v952h216v-1200h-216v118h-32q-38 -70 -86.5 -102.5t-115.5 -32.5zM473 1310v154h154v-154h-154zM227 1310v154h153v-154h-153zM363 1515l167 252h146l-174 -252h-139z
" />
    <glyph glyph-name="uni01D9" unicode="&#x1d9;" horiz-adv-x="839" 
d="M420 -17q-182 0 -260.5 76.5t-80.5 254.5q-4 320 -4 643.5t4 642.5h216q-3 -213 -4 -437.5t0 -449t3 -437.5q0 -57 32 -85.5t94 -28.5q63 0 93.5 28.5t30.5 85.5q2 213 3 437.5t0.5 449t-3.5 437.5h216q5 -319 5 -642.5t-5 -643.5q-2 -178 -80.5 -254.5t-259.5 -76.5z
M466 1710v154h154v-154h-154zM220 1710v154h153v-154h-153zM361 1917l-147 252h130l75 -141l75 141h130l-147 -252h-116z" />
    <glyph glyph-name="uni01DA" unicode="&#x1da;" horiz-adv-x="867" 
d="M321 -17q-109 0 -171 67t-62 221v929h216v-947q0 -57 23.5 -83t73.5 -26q47 0 91.5 27.5t62.5 76.5v952h216v-1200h-216v118h-32q-38 -70 -86.5 -102.5t-115.5 -32.5zM473 1310v154h154v-154h-154zM227 1310v154h153v-154h-153zM368 1517l-147 252h130l75 -141l75 141
h130l-147 -252h-116z" />
    <glyph glyph-name="uni01DB" unicode="&#x1db;" horiz-adv-x="839" 
d="M420 -17q-182 0 -260.5 76.5t-80.5 254.5q-4 320 -4 643.5t4 642.5h216q-3 -213 -4 -437.5t0 -449t3 -437.5q0 -57 32 -85.5t94 -28.5q63 0 93.5 28.5t30.5 85.5q2 213 3 437.5t0.5 449t-3.5 437.5h216q5 -319 5 -642.5t-5 -643.5q-2 -178 -80.5 -254.5t-259.5 -76.5z
M466 1710v154h154v-154h-154zM220 1710v154h153v-154h-153zM329 1915l-160 252h145l154 -252h-139z" />
    <glyph glyph-name="uni01DC" unicode="&#x1dc;" horiz-adv-x="867" 
d="M321 -17q-109 0 -171 67t-62 221v929h216v-947q0 -57 23.5 -83t73.5 -26q47 0 91.5 27.5t62.5 76.5v952h216v-1200h-216v118h-32q-38 -70 -86.5 -102.5t-115.5 -32.5zM473 1310v154h154v-154h-154zM227 1310v154h153v-154h-153zM336 1515l-160 252h145l154 -252h-139z
" />
    <glyph glyph-name="uni01DD" unicode="&#x1dd;" horiz-adv-x="801" 
d="M388 1217q171 0 248 -69.5t84 -230.5q2 -57 3.5 -139.5t1.5 -173t-1.5 -174.5t-3.5 -144q-9 -162 -85.5 -232.5t-243.5 -70.5q-165 0 -239 68.5t-82 225.5q-1 27 -2 85t-0.5 131t4.5 146h435q0 74 -1 148t-3 152q-1 63 -27.5 88t-86.5 25q-56 0 -80 -25t-27 -88
q-1 -30 -1 -75.5t1 -102.5h-210q-2 28 -2.5 74t0.5 82q8 161 80.5 230.5t237.5 69.5zM507 484h-227v-96t0.5 -82.5t1.5 -51.5q3 -57 28 -81.5t81 -24.5q59 0 85 24.5t27 81.5q2 62 3 118.5t1 111.5z" />
    <glyph glyph-name="Gcaron" unicode="&#x1e6;" horiz-adv-x="842" 
d="M428 -17q-122 0 -195.5 33.5t-108 107t-38.5 192.5q-3 110 -4 232.5t-1 248t1 247t4 230.5q5 124 40 199.5t108.5 109.5t192.5 34q171 0 249.5 -77t88.5 -254q3 -62 3 -131.5t-3 -131.5h-216q3 68 3 150.5t-3 150.5q-3 58 -33.5 86.5t-88.5 28.5q-61 0 -91.5 -28.5
t-33.5 -86.5q-4 -125 -6.5 -257t-2.5 -266t2.5 -266t6.5 -257q3 -59 33.5 -87.5t92.5 -28.5t96 28.5t37 87.5q1 38 1.5 84.5t0 92t-1.5 84.5h-122v189h333q3 -84 2.5 -190t-4.5 -222q-7 -178 -86.5 -255.5t-255.5 -77.5zM362 1682l-147 252h130l75 -141l75 141h130
l-147 -252h-116z" />
    <glyph glyph-name="gcaron" unicode="&#x1e7;" horiz-adv-x="865" 
d="M403 -364q-154 0 -235.5 44t-94.5 132q-2 11 -3.5 27t-0.5 32q5 51 39.5 86t88.5 42v34q-49 11 -77.5 38.5t-34.5 71.5q-1 12 -1 23.5t1 25.5q5 43 40 70.5t86 34.5v34q-70 32 -103.5 97t-40.5 170q-1 49 -2 87t-1 72.5t1 72.5t2 84q6 106 39.5 172.5t105 98.5t190.5 32
q116 0 183.5 -30.5t102.5 -96.5h34q7 57 41 83.5t100 26.5v-166h-32q-45 0 -70 -27.5t-26 -91.5l-1 -84q1 -31 1 -58v-53.5t-0.5 -55.5t-2.5 -66q-6 -109 -40.5 -176t-104.5 -96.5t-187 -29.5q-85 1 -118.5 -15t-33.5 -52v-9q0 -23 10.5 -36.5t43 -19.5t99.5 -8
q176 -4 261 -56.5t100 -165.5q2 -17 2 -35t-2 -40q-8 -80 -51 -129t-120 -71.5t-188 -22.5zM408 -211q52 0 89.5 8.5t59 27.5t26.5 49q4 14 3.5 26.5t-4.5 25.5q-6 32 -27.5 49t-58 24t-87.5 8q-78 2 -117 -16.5t-47 -64.5q-3 -13 -3 -26.5t2 -25.5q5 -32 24.5 -50.5
t54.5 -26.5t85 -8zM400 460q67 0 91.5 27.5t28.5 82.5q2 37 3 84.5t1 98.5t-1 100t-3 88q-4 59 -30 85t-90 26q-65 0 -92 -26t-29 -87q-2 -53 -3 -103t-1 -96t1 -87.5t3 -78.5q3 -54 27.5 -84t93.5 -30zM344 1282l-147 252h130l75 -141l75 141h130l-147 -252h-116z" />
    <glyph glyph-name="uni01EA" unicode="&#x1ea;" horiz-adv-x="856" 
d="M428 -17q-180 0 -259.5 76.5t-82.5 254.5q-3 120 -4 242t-1 244.5t1 244t4 242.5q3 177 82.5 253.5t259.5 76.5t258.5 -76.5t82.5 -253.5q4 -122 5.5 -244t1.5 -244t-1.5 -243.5t-5.5 -241.5q-4 -178 -82.5 -254.5t-258.5 -76.5zM428 162q64 0 94 27.5t31 86.5
q5 124 6.5 257.5t1.5 269.5t-2 268t-6 254q-1 59 -31.5 86.5t-93.5 27.5t-93.5 -27.5t-32.5 -86.5q-4 -122 -6.5 -254t-2 -268t2.5 -269.5t6 -257.5q2 -59 32.5 -86.5t93.5 -27.5zM732 -288h-61q-120 0 -171 48.5t-35 155.5l16 95h116l-16 -95q-7 -52 14.5 -74.5t75.5 -22.5
h61v-107z" />
    <glyph glyph-name="uni01EB" unicode="&#x1eb;" horiz-adv-x="835" 
d="M418 -17q-120 0 -191.5 33t-104.5 106t-40 192q-2 57 -3.5 131t-1.5 153t1.5 154t3.5 135q7 118 40 190.5t104.5 106t191.5 33.5q122 0 192.5 -33.5t103.5 -106t39 -190.5q2 -58 3 -131.5t1 -153t-1 -154t-3 -134.5q-6 -118 -39 -191t-103.5 -106.5t-192.5 -33.5z
M418 148q63 0 90 27t28 87q3 88 4.5 172t1.5 167t-1.5 166.5t-4.5 171.5q-1 59 -27.5 86t-90.5 27q-62 0 -90 -27t-30 -86q-2 -88 -3.5 -172t-1.5 -167t1.5 -167t3.5 -171q2 -60 30 -87t90 -27zM727 -288h-61q-120 0 -171 48.5t-35 155.5l16 95h116l-16 -95
q-7 -52 14.5 -74.5t75.5 -22.5h61v-107z" />
    <glyph glyph-name="Aringacute" unicode="&#x1fa;" horiz-adv-x="816" 
d="M32 0l196 1600h360l196 -1600h-221l-38 399h-234l-37 -399h-222zM312 591h193l-34 352l-35 465h-56l-34 -465zM408 1672q-71 0 -122.5 51t-51.5 124q0 72 51.5 123t122.5 51q73 0 124 -51t51 -123q0 -73 -51 -124t-124 -51zM408 1789q25 0 42 16.5t17 41.5q0 24 -17 41
t-42 17q-24 0 -40.5 -17t-16.5 -41q0 -25 16.5 -41.5t40.5 -16.5zM345 2103l167 252h146l-174 -252h-139z" />
    <glyph glyph-name="aringacute" unicode="&#x1fb;" horiz-adv-x="823" 
d="M302 -14q-115 0 -169.5 60.5t-65.5 196.5q-1 22 -1.5 48t0.5 47q6 76 31.5 133t79.5 102t145 86q48 22 96.5 40.5t98.5 34.5v205q0 57 -22 85t-84 28q-53 0 -76.5 -23.5t-26.5 -82.5q-1 -19 -1.5 -53t0 -69.5t1.5 -58.5h-210q-1 25 -2 73t0 85q4 103 36 168t101 95.5
t184 30.5q120 0 188.5 -33.5t97.5 -105.5t29 -188l-1 -890h-216v119h-30q-29 -67 -69.5 -100t-113.5 -33zM387 144q45 0 77.5 26t51.5 72v342q-35 -11 -70 -25.5t-71 -38.5q-55 -33 -73.5 -78.5t-21.5 -103.5q-1 -19 -1 -39t1 -40q5 -56 32.5 -85.5t74.5 -29.5zM416 1272
q-71 0 -122.5 51t-51.5 124q0 72 51.5 123t122.5 51q73 0 124 -51t51 -123q0 -73 -51 -124t-124 -51zM416 1389q25 0 42 16.5t17 41.5q0 24 -17 41t-42 17q-24 0 -40.5 -17t-16.5 -41q0 -25 16.5 -41.5t40.5 -16.5zM352 1703l167 252h146l-174 -252h-139z" />
    <glyph glyph-name="AEacute" unicode="&#x1fc;" horiz-adv-x="1159" 
d="M32 0l297 1600h785v-192h-356v-502h336v-192h-336v-522h356v-192h-572v399h-202l-73 -399h-235zM379 591h163v817h-48l-59 -520zM611 1680l167 252h146l-174 -252h-139z" />
    <glyph glyph-name="aeacute" unicode="&#x1fd;" horiz-adv-x="1239" 
d="M302 -14q-105 0 -165.5 60.5t-69.5 196.5q-1 22 -1.5 48t0.5 47q9 105 69 174.5t187 123.5q48 23 96.5 42.5t98.5 35.5v75.5v74.5v75t-9 63t-32.5 37.5t-64.5 12.5q-53 0 -76.5 -23.5t-26.5 -82.5q-1 -19 -1.5 -53t0 -69.5t1.5 -58.5h-210q-1 16 -2 44t-1 58.5t1 55.5
q4 103 36 168t101 95.5t184 30.5q73 0 125.5 -12.5t87.5 -39.5q39 28 93.5 40t125.5 12q164 0 238.5 -68.5t81.5 -225.5q1 -20 1.5 -57t1 -85t-0.5 -102t-4 -109h-436v-154.5v-154.5q0 -63 29.5 -88t89.5 -25q56 0 80.5 25t27.5 88q2 30 1.5 76t-2.5 102h210
q3 -27 3.5 -73.5t-1.5 -82.5q-7 -160 -80 -230t-238 -70q-117 0 -190.5 32.5t-108.5 103.5h-18q-30 -68 -91.5 -100.5t-140.5 -32.5zM387 144q29 0 59.5 14t51.5 56.5t21 126.5q0 50 -1 106t-1 114q-31 -11 -67.5 -26t-74.5 -40q-50 -29 -70.5 -66t-24.5 -91
q-1 -18 -1 -38.5t1 -40.5q5 -56 32.5 -85.5t74.5 -29.5zM731 724h228q1 64 0.5 126.5t-1.5 95.5q-2 57 -28 81.5t-81 24.5q-60 0 -89 -24.5t-29 -81.5v-114v-108zM572 1280l167 252h146l-174 -252h-139z" />
    <glyph glyph-name="Oslashacute" unicode="&#x1fe;" horiz-adv-x="856" 
d="M428 -17q-180 0 -259.5 76.5t-82.5 254.5q-3 120 -4 242t-1 244.5t1 244t4 242.5q3 177 82.5 253.5t259.5 76.5t258.5 -76.5t82.5 -253.5q4 -122 5.5 -244t1.5 -244t-1.5 -243.5t-5.5 -241.5q-4 -178 -82.5 -254.5t-258.5 -76.5zM428 162q64 0 94 27.5t31 86.5
q4 95 5.5 191t2 193.5t-0.5 197.5l-262 -395q0 -46 1.5 -93t2.5 -94q2 -59 32.5 -86.5t93.5 -27.5zM294 705l265 391q-1 57 -2.5 114t-3.5 115q-1 59 -31.5 86.5t-93.5 27.5t-93.5 -27.5t-32.5 -86.5q-3 -98 -5 -200.5t-3 -207.5t0 -212zM366 1680l167 252h146l-174 -252
h-139z" />
    <glyph glyph-name="oslashacute" unicode="&#x1ff;" horiz-adv-x="835" 
d="M134 360l513 569l70 -91l-507 -560zM418 -17q-120 0 -191.5 33t-104.5 106t-40 192q-2 57 -3.5 131t-1.5 153t1.5 154t3.5 135q7 118 40 190.5t104.5 106t191.5 33.5q122 0 192.5 -33.5t103.5 -106t39 -190.5q2 -58 3 -131.5t1 -153t-1 -154t-3 -134.5q-6 -118 -39 -191
t-103.5 -106.5t-192.5 -33.5zM418 148q63 0 90 27t28 87q3 88 4.5 172t1.5 167t-1.5 166.5t-4.5 171.5q-1 59 -27.5 86t-90.5 27q-62 0 -90 -27t-30 -86q-2 -88 -3.5 -172t-1.5 -167t1.5 -167t3.5 -171q2 -60 30 -87t90 -27zM354 1280l167 252h146l-174 -252h-139z" />
    <glyph glyph-name="uni0200" unicode="&#x200;" horiz-adv-x="816" 
d="M32 0l196 1600h360l196 -1600h-221l-38 399h-234l-37 -399h-222zM312 591h193l-34 352l-35 465h-56l-34 -465zM447 1680l-163 252h146l163 -252h-146zM206 1680l-163 252h145l163 -252h-145z" />
    <glyph glyph-name="uni0201" unicode="&#x201;" horiz-adv-x="823" 
d="M302 -14q-115 0 -169.5 60.5t-65.5 196.5q-1 22 -1.5 48t0.5 47q6 76 31.5 133t79.5 102t145 86q48 22 96.5 40.5t98.5 34.5v205q0 57 -22 85t-84 28q-53 0 -76.5 -23.5t-26.5 -82.5q-1 -19 -1.5 -53t0 -69.5t1.5 -58.5h-210q-1 25 -2 73t0 85q4 103 36 168t101 95.5
t184 30.5q120 0 188.5 -33.5t97.5 -105.5t29 -188l-1 -890h-216v119h-30q-29 -67 -69.5 -100t-113.5 -33zM387 144q45 0 77.5 26t51.5 72v342q-35 -11 -70 -25.5t-71 -38.5q-55 -33 -73.5 -78.5t-21.5 -103.5q-1 -19 -1 -39t1 -40q5 -56 32.5 -85.5t74.5 -29.5zM455 1280
l-163 252h146l163 -252h-146zM214 1280l-163 252h145l163 -252h-145z" />
    <glyph glyph-name="uni0202" unicode="&#x202;" horiz-adv-x="816" 
d="M409 1925q130 0 189 -58.5t67 -194.5h-132q-1 75 -29.5 107.5t-94.5 32.5q-67 0 -95.5 -32.5t-28.5 -107.5h-133q7 136 66.5 194.5t190.5 58.5zM32 0l196 1600h360l196 -1600h-221l-38 399h-234l-37 -399h-222zM312 591h193l-34 352l-35 465h-56l-34 -465z" />
    <glyph glyph-name="uni0203" unicode="&#x203;" horiz-adv-x="823" 
d="M416 1525q130 0 189 -58.5t67 -194.5h-132q-1 75 -29.5 107.5t-94.5 32.5q-67 0 -95.5 -32.5t-28.5 -107.5h-133q7 136 66.5 194.5t190.5 58.5zM302 -14q-115 0 -169.5 60.5t-65.5 196.5q-1 22 -1.5 48t0.5 47q6 76 31.5 133t79.5 102t145 86q48 22 96.5 40.5t98.5 34.5
v205q0 57 -22 85t-84 28q-53 0 -76.5 -23.5t-26.5 -82.5q-1 -19 -1.5 -53t0 -69.5t1.5 -58.5h-210q-1 25 -2 73t0 85q4 103 36 168t101 95.5t184 30.5q120 0 188.5 -33.5t97.5 -105.5t29 -188l-1 -890h-216v119h-30q-29 -67 -69.5 -100t-113.5 -33zM387 144q45 0 77.5 26
t51.5 72v342q-35 -11 -70 -25.5t-71 -38.5q-55 -33 -73.5 -78.5t-21.5 -103.5q-1 -19 -1 -39t1 -40q5 -56 32.5 -85.5t74.5 -29.5z" />
    <glyph glyph-name="uni0204" unicode="&#x204;" horiz-adv-x="709" 
d="M93 0v1600h571v-192h-355v-502h335v-192h-335v-522h355v-192h-571zM403 1680l-163 252h146l163 -252h-146zM162 1680l-163 252h145l163 -252h-145z" />
    <glyph glyph-name="uni0205" unicode="&#x205;" horiz-adv-x="801" 
d="M413 -17q-170 0 -246.5 70t-85.5 230q-2 57 -3 139.5t-1 173t1 174.5t3 144q11 163 87 233t243 70q164 0 238.5 -68.5t82.5 -225.5q1 -27 1.5 -84.5t0 -131t-3.5 -146.5h-436q0 -73 1.5 -147.5t2.5 -152.5q2 -63 28.5 -88t85.5 -25q56 0 80 25t27 88q2 30 2 76t-2 102
h211q2 -27 3 -73.5t-1 -82.5q-8 -160 -80.5 -230t-238.5 -70zM294 716h227q1 49 1 96t-1 82.5t-2 51.5q-3 57 -27.5 81.5t-80.5 24.5q-59 0 -85 -24.5t-28 -81.5q-1 -61 -2 -118t-2 -112zM446 1280l-163 252h146l163 -252h-146zM205 1280l-163 252h145l163 -252h-145z" />
    <glyph glyph-name="uni0206" unicode="&#x206;" horiz-adv-x="709" 
d="M365 1925q130 0 189 -58.5t67 -194.5h-132q-1 75 -29.5 107.5t-94.5 32.5q-67 0 -95.5 -32.5t-28.5 -107.5h-133q7 136 66.5 194.5t190.5 58.5zM93 0v1600h571v-192h-355v-502h335v-192h-335v-522h355v-192h-571z" />
    <glyph glyph-name="uni0207" unicode="&#x207;" horiz-adv-x="801" 
d="M407 1525q130 0 189.5 -58.5t66.5 -194.5h-132q0 75 -29 107.5t-95 32.5t-95 -32.5t-29 -107.5h-132q6 136 65.5 194.5t190.5 58.5zM413 -17q-170 0 -246.5 70t-85.5 230q-2 57 -3 139.5t-1 173t1 174.5t3 144q11 163 87 233t243 70q164 0 238.5 -68.5t82.5 -225.5
q1 -27 1.5 -84.5t0 -131t-3.5 -146.5h-436q0 -73 1.5 -147.5t2.5 -152.5q2 -63 28.5 -88t85.5 -25q56 0 80 25t27 88q2 30 2 76t-2 102h211q2 -27 3 -73.5t-1 -82.5q-8 -160 -80.5 -230t-238.5 -70zM294 716h227q1 49 1 96t-1 82.5t-2 51.5q-3 57 -27.5 81.5t-80.5 24.5
q-59 0 -85 -24.5t-28 -81.5q-1 -61 -2 -118t-2 -112z" />
    <glyph glyph-name="uni0208" unicode="&#x208;" horiz-adv-x="402" 
d="M93 0v1600h216v-1600h-216zM240 1680l-163 252h146l163 -252h-146zM-1 1680l-163 252h145l163 -252h-145z" />
    <glyph glyph-name="uni0209" unicode="&#x209;" horiz-adv-x="408" 
d="M96 0v1200h216v-1200h-216zM243 1280l-163 252h146l163 -252h-146zM2 1280l-163 252h145l163 -252h-145z" />
    <glyph glyph-name="uni020A" unicode="&#x20a;" horiz-adv-x="402" 
d="M201 1925q130 0 189.5 -58.5t66.5 -194.5h-132q0 75 -28.5 107.5t-95.5 32.5q-66 0 -94.5 -32.5t-29.5 -107.5h-132q7 136 66.5 194.5t189.5 58.5zM93 0v1600h216v-1600h-216z" />
    <glyph glyph-name="uni020B" unicode="&#x20b;" horiz-adv-x="408" 
d="M204 1525q130 0 189.5 -58.5t66.5 -194.5h-132q0 75 -29 107.5t-95 32.5t-95 -32.5t-29 -107.5h-132q6 136 65.5 194.5t190.5 58.5zM96 0v1200h216v-1200h-216z" />
    <glyph glyph-name="uni020C" unicode="&#x20c;" horiz-adv-x="856" 
d="M428 -17q-180 0 -259.5 76.5t-82.5 254.5q-3 120 -4 242t-1 244.5t1 244t4 242.5q3 177 82.5 253.5t259.5 76.5t258.5 -76.5t82.5 -253.5q4 -122 5.5 -244t1.5 -244t-1.5 -243.5t-5.5 -241.5q-4 -178 -82.5 -254.5t-258.5 -76.5zM428 162q64 0 94 27.5t31 86.5
q5 124 6.5 257.5t1.5 269.5t-2 268t-6 254q-1 59 -31.5 86.5t-93.5 27.5t-93.5 -27.5t-32.5 -86.5q-4 -122 -6.5 -254t-2 -268t2.5 -269.5t6 -257.5q2 -59 32.5 -86.5t93.5 -27.5zM468 1680l-163 252h146l163 -252h-146zM227 1680l-163 252h145l163 -252h-145z" />
    <glyph glyph-name="uni020D" unicode="&#x20d;" horiz-adv-x="835" 
d="M418 -17q-120 0 -191.5 33t-104.5 106t-40 192q-2 57 -3.5 131t-1.5 153t1.5 154t3.5 135q7 118 40 190.5t104.5 106t191.5 33.5q122 0 192.5 -33.5t103.5 -106t39 -190.5q2 -58 3 -131.5t1 -153t-1 -154t-3 -134.5q-6 -118 -39 -191t-103.5 -106.5t-192.5 -33.5z
M418 148q63 0 90 27t28 87q3 88 4.5 172t1.5 167t-1.5 166.5t-4.5 171.5q-1 59 -27.5 86t-90.5 27q-62 0 -90 -27t-30 -86q-2 -88 -3.5 -172t-1.5 -167t1.5 -167t3.5 -171q2 -60 30 -87t90 -27zM457 1280l-163 252h146l163 -252h-146zM216 1280l-163 252h145l163 -252h-145z
" />
    <glyph glyph-name="uni020E" unicode="&#x20e;" horiz-adv-x="856" 
d="M430 1925q130 0 189 -58.5t67 -194.5h-132q-1 75 -29.5 107.5t-94.5 32.5q-67 0 -95.5 -32.5t-28.5 -107.5h-133q7 136 66.5 194.5t190.5 58.5zM428 -17q-180 0 -259.5 76.5t-82.5 254.5q-3 120 -4 242t-1 244.5t1 244t4 242.5q3 177 82.5 253.5t259.5 76.5t258.5 -76.5
t82.5 -253.5q4 -122 5.5 -244t1.5 -244t-1.5 -243.5t-5.5 -241.5q-4 -178 -82.5 -254.5t-258.5 -76.5zM428 162q64 0 94 27.5t31 86.5q5 124 6.5 257.5t1.5 269.5t-2 268t-6 254q-1 59 -31.5 86.5t-93.5 27.5t-93.5 -27.5t-32.5 -86.5q-4 -122 -6.5 -254t-2 -268t2.5 -269.5
t6 -257.5q2 -59 32.5 -86.5t93.5 -27.5z" />
    <glyph glyph-name="uni020F" unicode="&#x20f;" horiz-adv-x="835" 
d="M418 1525q130 0 189.5 -58.5t66.5 -194.5h-132q0 75 -28.5 107.5t-95.5 32.5q-66 0 -94.5 -32.5t-29.5 -107.5h-132q7 136 66.5 194.5t189.5 58.5zM418 -17q-120 0 -191.5 33t-104.5 106t-40 192q-2 57 -3.5 131t-1.5 153t1.5 154t3.5 135q7 118 40 190.5t104.5 106
t191.5 33.5q122 0 192.5 -33.5t103.5 -106t39 -190.5q2 -58 3 -131.5t1 -153t-1 -154t-3 -134.5q-6 -118 -39 -191t-103.5 -106.5t-192.5 -33.5zM418 148q63 0 90 27t28 87q3 88 4.5 172t1.5 167t-1.5 166.5t-4.5 171.5q-1 59 -27.5 86t-90.5 27q-62 0 -90 -27t-30 -86
q-2 -88 -3.5 -172t-1.5 -167t1.5 -167t3.5 -171q2 -60 30 -87t90 -27z" />
    <glyph glyph-name="uni0210" unicode="&#x210;" horiz-adv-x="825" 
d="M93 0v1600h315q179 0 259.5 -75t86.5 -249q3 -73 3.5 -133.5t0 -119t-3.5 -123.5q-3 -113 -38.5 -183.5t-109.5 -104.5l175 -612h-230l-149 576h-93v-576h-216zM309 767h98q65 0 96.5 30.5t34.5 91.5q3 64 4 131.5t0 135t-4 131.5q-3 61 -34 91t-96 30h-99v-641z
M444 1680l-163 252h146l163 -252h-146zM203 1680l-163 252h145l163 -252h-145z" />
    <glyph glyph-name="uni0211" unicode="&#x211;" horiz-adv-x="598" 
d="M96 0v1200h216v-132h40q13 77 52.5 107t104.5 30q21 0 41.5 -1t32.5 -2v-168h-72q-99 0 -142.5 -33t-56.5 -98v-903h-216zM370 1280l-163 252h146l163 -252h-146zM129 1280l-163 252h145l163 -252h-145z" />
    <glyph glyph-name="uni0212" unicode="&#x212;" horiz-adv-x="825" 
d="M405 1925q130 0 189 -58.5t67 -194.5h-132q-1 75 -29.5 107.5t-94.5 32.5q-67 0 -95.5 -32.5t-28.5 -107.5h-133q7 136 66.5 194.5t190.5 58.5zM93 0v1600h315q179 0 259.5 -75t86.5 -249q3 -73 3.5 -133.5t0 -119t-3.5 -123.5q-3 -113 -38.5 -183.5t-109.5 -104.5
l175 -612h-230l-149 576h-93v-576h-216zM309 767h98q65 0 96.5 30.5t34.5 91.5q3 64 4 131.5t0 135t-4 131.5q-3 61 -34 91t-96 30h-99v-641z" />
    <glyph glyph-name="uni0213" unicode="&#x213;" horiz-adv-x="598" 
d="M331 1525q130 0 189.5 -58.5t66.5 -194.5h-132q0 75 -28.5 107.5t-95.5 32.5q-66 0 -94.5 -32.5t-29.5 -107.5h-132q7 136 66.5 194.5t189.5 58.5zM96 0v1200h216v-132h40q13 77 52.5 107t104.5 30q21 0 41.5 -1t32.5 -2v-168h-72q-99 0 -142.5 -33t-56.5 -98v-903h-216z
" />
    <glyph glyph-name="uni0214" unicode="&#x214;" horiz-adv-x="839" 
d="M420 -17q-182 0 -260.5 76.5t-80.5 254.5q-4 320 -4 643.5t4 642.5h216q-3 -213 -4 -437.5t0 -449t3 -437.5q0 -57 32 -85.5t94 -28.5q63 0 93.5 28.5t30.5 85.5q2 213 3 437.5t0.5 449t-3.5 437.5h216q5 -319 5 -642.5t-5 -643.5q-2 -178 -80.5 -254.5t-259.5 -76.5z
M459 1680l-163 252h146l163 -252h-146zM218 1680l-163 252h145l163 -252h-145z" />
    <glyph glyph-name="uni0215" unicode="&#x215;" horiz-adv-x="867" 
d="M321 -17q-109 0 -171 67t-62 221v929h216v-947q0 -57 23.5 -83t73.5 -26q47 0 91.5 27.5t62.5 76.5v952h216v-1200h-216v118h-32q-38 -70 -86.5 -102.5t-115.5 -32.5zM466 1280l-163 252h146l163 -252h-146zM225 1280l-163 252h145l163 -252h-145z" />
    <glyph glyph-name="uni0216" unicode="&#x216;" horiz-adv-x="839" 
d="M420 1925q130 0 189.5 -58.5t66.5 -194.5h-132q0 75 -29 107.5t-95 32.5t-95 -32.5t-29 -107.5h-132q6 136 65.5 194.5t190.5 58.5zM420 -17q-182 0 -260.5 76.5t-80.5 254.5q-4 320 -4 643.5t4 642.5h216q-3 -213 -4 -437.5t0 -449t3 -437.5q0 -57 32 -85.5t94 -28.5
q63 0 93.5 28.5t30.5 85.5q2 213 3 437.5t0.5 449t-3.5 437.5h216q5 -319 5 -642.5t-5 -643.5q-2 -178 -80.5 -254.5t-259.5 -76.5z" />
    <glyph glyph-name="uni0217" unicode="&#x217;" horiz-adv-x="867" 
d="M427 1525q130 0 189.5 -58.5t66.5 -194.5h-132q0 75 -29 107.5t-95 32.5t-95 -32.5t-29 -107.5h-132q6 136 65.5 194.5t190.5 58.5zM321 -17q-109 0 -171 67t-62 221v929h216v-947q0 -57 23.5 -83t73.5 -26q47 0 91.5 27.5t62.5 76.5v952h216v-1200h-216v118h-32
q-38 -70 -86.5 -102.5t-115.5 -32.5z" />
    <glyph glyph-name="uni0218" unicode="&#x218;" horiz-adv-x="815" 
d="M410 -17q-179 0 -256 77.5t-84 255.5q-1 47 -1.5 91.5t1 89.5t5.5 92h204q-4 -80 -4.5 -160t4.5 -151q4 -59 35 -87.5t95 -28.5q63 0 91 28.5t34 87.5q3 45 4 84t0 79t-4 88q-4 59 -24 101t-73 56l-134 34q-90 23 -141 67.5t-73 113.5t-25 165q-1 54 -0.5 110t1.5 111
q4 118 38.5 190.5t109 106t196.5 33.5q173 0 250.5 -77t84.5 -254q2 -49 1 -120.5t-4 -142.5h-208q3 75 3.5 150.5t-2.5 150.5q-1 58 -33 86.5t-93 28.5q-64 0 -93 -28.5t-34 -86.5q-5 -64 -4.5 -129t4.5 -129t25 -103t76 -53l121 -29q95 -22 148 -68.5t75 -117t25 -166.5
q2 -42 2 -76t-1 -66.5t-2 -70.5q-7 -178 -84.5 -255.5t-255.5 -77.5zM333 -403l59 139h-86v184h218v-163l-80 -160h-111z" />
    <glyph glyph-name="uni0219" unicode="&#x219;" horiz-adv-x="759" 
d="M373 -17q-161 0 -229.5 70t-74.5 230q-1 36 -0.5 82t2.5 74h190q-1 -56 -1 -101.5t1 -76.5q2 -63 29 -88t83 -25q65 0 93.5 25t29.5 88v40.5t0.5 26t-0.5 37.5q0 52 -16 82.5t-59 43.5l-118 36q-79 25 -132 61.5t-79.5 94.5t-27.5 146v42t1 42q1 163 71.5 233.5
t247.5 70.5q163 0 229.5 -68.5t73.5 -226.5q1 -36 0.5 -82.5t-2.5 -74.5h-197q1 25 1.5 60t0 68t-1.5 53q-2 59 -24.5 82.5t-79.5 23.5q-60 0 -83 -23.5t-25 -82.5q-1 -29 -2 -46.5t0 -53.5q0 -56 14 -92t66 -52l106 -29q119 -30 178 -97.5t59 -199.5q0 -23 -0.5 -49
t-1.5 -50q-1 -157 -74.5 -225.5t-247.5 -68.5zM303 -403l59 139h-86v184h218v-163l-80 -160h-111z" />
    <glyph glyph-name="uni021A" unicode="&#x21a;" horiz-adv-x="699" 
d="M241 0v1408h-230v192h677v-192h-230v-1408h-217zM275 -403l59 139h-86v184h218v-163l-80 -160h-111z" />
    <glyph glyph-name="uni021B" unicode="&#x21b;" horiz-adv-x="588" 
d="M473 -17q-184 0 -260.5 70t-76.5 230v751h-98v166h100v340h217v-340h191v-166h-194v-775q0 -63 22.5 -87.5t99.5 -24.5q26 0 46 1t46 3v-158q-21 -5 -44.5 -7.5t-48.5 -2.5zM291 -403l59 139h-86v184h218v-163l-80 -160h-111z" />
    <glyph glyph-name="uni022A" unicode="&#x22a;" horiz-adv-x="856" 
d="M428 -17q-180 0 -259.5 76.5t-82.5 254.5q-3 120 -4 242t-1 244.5t1 244t4 242.5q3 177 82.5 253.5t259.5 76.5t258.5 -76.5t82.5 -253.5q4 -122 5.5 -244t1.5 -244t-1.5 -243.5t-5.5 -241.5q-4 -178 -82.5 -254.5t-258.5 -76.5zM428 162q64 0 94 27.5t31 86.5
q5 124 6.5 257.5t1.5 269.5t-2 268t-6 254q-1 59 -31.5 86.5t-93.5 27.5t-93.5 -27.5t-32.5 -86.5q-4 -122 -6.5 -254t-2 -268t2.5 -269.5t6 -257.5q2 -59 32.5 -86.5t93.5 -27.5zM476 1710v154h154v-154h-154zM230 1710v154h153v-154h-153zM151 2008h556v-104h-556v104z
" />
    <glyph glyph-name="uni022B" unicode="&#x22b;" horiz-adv-x="835" 
d="M418 -17q-120 0 -191.5 33t-104.5 106t-40 192q-2 57 -3.5 131t-1.5 153t1.5 154t3.5 135q7 118 40 190.5t104.5 106t191.5 33.5q122 0 192.5 -33.5t103.5 -106t39 -190.5q2 -58 3 -131.5t1 -153t-1 -154t-3 -134.5q-6 -118 -39 -191t-103.5 -106.5t-192.5 -33.5z
M418 148q63 0 90 27t28 87q3 88 4.5 172t1.5 167t-1.5 166.5t-4.5 171.5q-1 59 -27.5 86t-90.5 27q-62 0 -90 -27t-30 -86q-2 -88 -3.5 -172t-1.5 -167t1.5 -167t3.5 -171q2 -60 30 -87t90 -27zM464 1310v154h154v-154h-154zM218 1310v154h153v-154h-153zM139 1608h556v-104
h-556v104z" />
    <glyph glyph-name="uni022C" unicode="&#x22c;" horiz-adv-x="856" 
d="M428 -17q-180 0 -259.5 76.5t-82.5 254.5q-3 120 -4 242t-1 244.5t1 244t4 242.5q3 177 82.5 253.5t259.5 76.5t258.5 -76.5t82.5 -253.5q4 -122 5.5 -244t1.5 -244t-1.5 -243.5t-5.5 -241.5q-4 -178 -82.5 -254.5t-258.5 -76.5zM428 162q64 0 94 27.5t31 86.5
q5 124 6.5 257.5t1.5 269.5t-2 268t-6 254q-1 59 -31.5 86.5t-93.5 27.5t-93.5 -27.5t-32.5 -86.5q-4 -122 -6.5 -254t-2 -268t2.5 -269.5t6 -257.5q2 -59 32.5 -86.5t93.5 -27.5zM564 1862h88q-3 -92 -36 -136.5t-94 -44.5q-38 0 -60.5 13t-38 29.5t-32 29t-43.5 12.5
q-26 0 -36.5 -19.5t-14.5 -54.5h-88q8 98 42.5 143t96.5 45q39 0 62.5 -12.5t39.5 -29t31.5 -29t39.5 -12.5t33 17t10 49zM148 2051h556v-104h-556v104z" />
    <glyph glyph-name="uni022D" unicode="&#x22d;" horiz-adv-x="835" 
d="M418 -17q-120 0 -191.5 33t-104.5 106t-40 192q-2 57 -3.5 131t-1.5 153t1.5 154t3.5 135q7 118 40 190.5t104.5 106t191.5 33.5q122 0 192.5 -33.5t103.5 -106t39 -190.5q2 -58 3 -131.5t1 -153t-1 -154t-3 -134.5q-6 -118 -39 -191t-103.5 -106.5t-192.5 -33.5z
M418 148q63 0 90 27t28 87q3 88 4.5 172t1.5 167t-1.5 166.5t-4.5 171.5q-1 59 -27.5 86t-90.5 27q-62 0 -90 -27t-30 -86q-2 -88 -3.5 -172t-1.5 -167t1.5 -167t3.5 -171q2 -60 30 -87t90 -27zM552 1462h88q-3 -92 -36 -136.5t-94 -44.5q-38 0 -60.5 13t-38 29.5t-32 29
t-43.5 12.5q-26 0 -36.5 -19.5t-14.5 -54.5h-88q8 98 42.5 143t96.5 45q39 0 62.5 -12.5t39.5 -29t31.5 -29t39.5 -12.5t33 17t10 49zM137 1651h556v-104h-556v104z" />
    <glyph glyph-name="uni0230" unicode="&#x230;" horiz-adv-x="856" 
d="M428 -17q-180 0 -259.5 76.5t-82.5 254.5q-3 120 -4 242t-1 244.5t1 244t4 242.5q3 177 82.5 253.5t259.5 76.5t258.5 -76.5t82.5 -253.5q4 -122 5.5 -244t1.5 -244t-1.5 -243.5t-5.5 -241.5q-4 -178 -82.5 -254.5t-258.5 -76.5zM428 162q64 0 94 27.5t31 86.5
q5 124 6.5 257.5t1.5 269.5t-2 268t-6 254q-1 59 -31.5 86.5t-93.5 27.5t-93.5 -27.5t-32.5 -86.5q-4 -122 -6.5 -254t-2 -268t2.5 -269.5t6 -257.5q2 -59 32.5 -86.5t93.5 -27.5zM353 1680v154h153v-154h-153zM151 2008h556v-104h-556v104z" />
    <glyph glyph-name="uni0231" unicode="&#x231;" horiz-adv-x="835" 
d="M418 -17q-120 0 -191.5 33t-104.5 106t-40 192q-2 57 -3.5 131t-1.5 153t1.5 154t3.5 135q7 118 40 190.5t104.5 106t191.5 33.5q122 0 192.5 -33.5t103.5 -106t39 -190.5q2 -58 3 -131.5t1 -153t-1 -154t-3 -134.5q-6 -118 -39 -191t-103.5 -106.5t-192.5 -33.5z
M418 148q63 0 90 27t28 87q3 88 4.5 172t1.5 167t-1.5 166.5t-4.5 171.5q-1 59 -27.5 86t-90.5 27q-62 0 -90 -27t-30 -86q-2 -88 -3.5 -172t-1.5 -167t1.5 -167t3.5 -171q2 -60 30 -87t90 -27zM341 1280v154h153v-154h-153zM139 1608h556v-104h-556v104z" />
    <glyph glyph-name="uni0232" unicode="&#x232;" horiz-adv-x="791" 
d="M287 0v400v2l-259 1198h221l81 -420l42 -464h46l41 464l82 420h222l-260 -1199v-2v-399h-216zM109 1773h556v-104h-556v104z" />
    <glyph glyph-name="uni0233" unicode="&#x233;" horiz-adv-x="769" 
d="M197 -414q-30 0 -69 3.5t-70 8.5v163q26 -2 67.5 -4t70.5 -2q77 0 105.5 25.5t36.5 88.5l17 131h-129l-190 1200h220l61 -564l52 -474h61l37 474l53 564h219l-185 -1315q-15 -106 -52.5 -172t-110.5 -96.5t-194 -30.5zM114 1373h556v-104h-556v104z" />
    <glyph glyph-name="uni0237" unicode="&#x237;" horiz-adv-x="410" 
d="M-17 -418q-30 0 -66 4t-67 9v163q26 -3 64.5 -4.5t67.5 -1.5q58 0 86.5 27t28.5 86v1335h216v-1319q0 -159 -80 -229t-250 -70z" />
    <glyph glyph-name="uni0259" unicode="&#x259;" horiz-adv-x="801" 
d="M388 1217q171 0 248 -69.5t84 -230.5q2 -57 3.5 -139.5t1.5 -173t-1.5 -174.5t-3.5 -144q-9 -162 -85.5 -232.5t-243.5 -70.5q-165 0 -239 68.5t-82 225.5q-1 27 -2 85t-0.5 131t4.5 146h435q0 74 -1 148t-3 152q-1 63 -27.5 88t-86.5 25q-56 0 -80 -25t-27 -88
q-1 -30 -1 -75.5t1 -102.5h-210q-2 28 -2.5 74t0.5 82q8 161 80.5 230.5t237.5 69.5zM507 484h-227v-96t0.5 -82.5t1.5 -51.5q3 -57 28 -81.5t81 -24.5q59 0 85 24.5t27 81.5q2 62 3 118.5t1 111.5z" />
    <glyph glyph-name="uni02B9" unicode="&#x2b9;" horiz-adv-x="369" 
d="M132 1111l-40 250v239h183v-239l-39 -250h-104z" />
    <glyph glyph-name="uni02BA" unicode="&#x2ba;" horiz-adv-x="685" 
d="M132 1111l-40 250v239h183v-239l-39 -250h-104zM448 1111l-39 250v239h182v-239l-39 -250h-104z" />
    <glyph glyph-name="uni02BB" unicode="&#x2bb;" horiz-adv-x="404" 
d="M283 1619l-59 -140h87v-184h-218v163l80 161h110z" />
    <glyph glyph-name="uni02BC" unicode="&#x2bc;" horiz-adv-x="369" 
d="M132 1111l-40 250v239h183v-239l-39 -250h-104z" />
    <glyph glyph-name="uni02BE" unicode="&#x2be;" horiz-adv-x="418" 
d="M93 1151v117q48 0 81.5 33.5t33.5 81.5t-33.5 81.5t-81.5 33.5v117q64 0 116.5 -31.5t84 -84t31.5 -116.5t-31.5 -117t-84 -84t-116.5 -31z" />
    <glyph glyph-name="uni02BF" unicode="&#x2bf;" horiz-adv-x="418" 
d="M325 1151q-64 0 -116.5 31t-84 84t-31.5 117t31.5 116.5t84 84t116.5 31.5v-117q-47 0 -81 -33.5t-34 -81.5t34 -81.5t81 -33.5v-117z" />
    <glyph glyph-name="circumflex" unicode="&#x2c6;" horiz-adv-x="609" 
d="M93 1282l147 252h130l146 -252h-145l-66 126l-67 -126h-145z" />
    <glyph glyph-name="caron" unicode="&#x2c7;" horiz-adv-x="596" 
d="M240 1282l-147 252h130l75 -141l75 141h130l-147 -252h-116z" />
    <glyph glyph-name="uni02C8" unicode="&#x2c8;" horiz-adv-x="368" 
d="M93 1600h182v-744h-182v744z" />
    <glyph glyph-name="uni02C9" unicode="&#x2c9;" horiz-adv-x="829" 
d="M127 1373h556v-104h-556v104z" />
    <glyph glyph-name="uni02CA" unicode="&#x2ca;" horiz-adv-x="564" 
d="M204 1111h-111l195 489h183z" />
    <glyph glyph-name="uni02CB" unicode="&#x2cb;" horiz-adv-x="564" 
d="M360 1111l-267 489h183l195 -489h-111z" />
    <glyph glyph-name="uni02CC" unicode="&#x2cc;" horiz-adv-x="368" 
d="M93 376h182v-776h-182v776z" />
    <glyph glyph-name="breve" unicode="&#x2d8;" horiz-adv-x="698" 
d="M349 1272q-130 0 -189.5 58.5t-66.5 194.5h132q1 -75 29.5 -107.5t94.5 -32.5q67 0 95.5 32.5t28.5 107.5h132q-7 -136 -66.5 -194.5t-189.5 -58.5z" />
    <glyph glyph-name="dotaccent" unicode="&#x2d9;" horiz-adv-x="366" 
d="M101 1280v154h153v-154h-153z" />
    <glyph glyph-name="ring" unicode="&#x2da;" horiz-adv-x="650" 
d="M255 1272q-71 0 -122.5 51t-51.5 124q0 72 51.5 123t122.5 51q73 0 124 -51t51 -123q0 -73 -51 -124t-124 -51zM255 1389q25 0 42 16.5t17 41.5q0 24 -17 41t-42 17q-24 0 -40.5 -17t-16.5 -41q0 -25 16.5 -41.5t40.5 -16.5z" />
    <glyph glyph-name="ogonek" unicode="&#x2db;" horiz-adv-x="433" 
d="M347 -299h-61q-120 0 -171 48.5t-35 155.5l16 95h116l-16 -95q-7 -52 14.5 -74.5t75.5 -22.5h61v-107z" />
    <glyph glyph-name="tilde" unicode="&#x2dc;" horiz-adv-x="731" 
d="M476 1456h88q-3 -92 -36 -136.5t-94 -44.5q-38 0 -60.5 13t-38 29.5t-32 29t-43.5 12.5q-26 0 -36.5 -19.5t-14.5 -54.5h-88q8 98 42.5 143t96.5 45q39 0 62.5 -12.5t39.5 -29t31.5 -29t39.5 -12.5t33 17t10 49z" />
    <glyph glyph-name="hungarumlaut" unicode="&#x2dd;" horiz-adv-x="746" 
d="M79 1282l193 252h152l-193 -252h-152zM321 1282l193 252h152l-193 -252h-152z" />
    <glyph glyph-name="gravecomb" unicode="&#x300;" horiz-adv-x="0" 
d="M255 1280l-160 252h145l154 -252h-139z" />
    <glyph glyph-name="acutecomb" unicode="&#x301;" horiz-adv-x="0" 
d="M85 1280l167 252h146l-174 -252h-139z" />
    <glyph glyph-name="uni0302" unicode="&#x302;" horiz-adv-x="0" 
d="M93 1282l147 252h130l146 -252h-145l-66 126l-67 -126h-145z" />
    <glyph glyph-name="tildecomb" unicode="&#x303;" horiz-adv-x="0" 
d="M476 1456h88q-3 -92 -36 -136.5t-94 -44.5q-38 0 -60.5 13t-38 29.5t-32 29t-43.5 12.5q-26 0 -36.5 -19.5t-14.5 -54.5h-88q8 98 42.5 143t96.5 45q39 0 62.5 -12.5t39.5 -29t31.5 -29t39.5 -12.5t33 17t10 49z" />
    <glyph glyph-name="uni0304" unicode="&#x304;" horiz-adv-x="0" 
d="M127 1373h556v-104h-556v104z" />
    <glyph glyph-name="uni0306" unicode="&#x306;" horiz-adv-x="0" 
d="M349 1272q-130 0 -189.5 58.5t-66.5 194.5h132q1 -75 29.5 -107.5t94.5 -32.5q67 0 95.5 32.5t28.5 107.5h132q-7 -136 -66.5 -194.5t-189.5 -58.5z" />
    <glyph glyph-name="uni0307" unicode="&#x307;" horiz-adv-x="0" 
d="M101 1280v154h153v-154h-153z" />
    <glyph glyph-name="uni0308" unicode="&#x308;" horiz-adv-x="0" 
d="M373 1310v154h154v-154h-154zM127 1310v154h153v-154h-153z" />
    <glyph glyph-name="hookabovecomb" unicode="&#x309;" horiz-adv-x="0" 
d="M202 1259l13 73q12 51 -5.5 68.5t-79.5 17.5h-85v105h85q116 0 169 -45t31 -146l-14 -73h-114z" />
    <glyph glyph-name="uni030A" unicode="&#x30a;" horiz-adv-x="0" 
d="M255 1272q-71 0 -122.5 51t-51.5 124q0 72 51.5 123t122.5 51q73 0 124 -51t51 -123q0 -73 -51 -124t-124 -51zM255 1389q25 0 42 16.5t17 41.5q0 24 -17 41t-42 17q-24 0 -40.5 -17t-16.5 -41q0 -25 16.5 -41.5t40.5 -16.5z" />
    <glyph glyph-name="uni030B" unicode="&#x30b;" horiz-adv-x="0" 
d="M79 1282l193 252h152l-193 -252h-152zM321 1282l193 252h152l-193 -252h-152z" />
    <glyph glyph-name="uni030C" unicode="&#x30c;" horiz-adv-x="0" 
d="M240 1282l-147 252h130l75 -141l75 141h130l-147 -252h-116z" />
    <glyph glyph-name="uni030F" unicode="&#x30f;" horiz-adv-x="0" 
d="M497 1280l-163 252h146l163 -252h-146zM256 1280l-163 252h145l163 -252h-145z" />
    <glyph glyph-name="uni0311" unicode="&#x311;" horiz-adv-x="0" 
d="M349 1525q130 0 189.5 -58.5t66.5 -194.5h-132q0 75 -28.5 107.5t-95.5 32.5q-66 0 -94.5 -32.5t-29.5 -107.5h-132q7 136 66.5 194.5t189.5 58.5z" />
    <glyph glyph-name="uni0312" unicode="&#x312;" horiz-adv-x="0" 
d="M283 1619l-59 -140h87v-184h-218v163l80 161h110z" />
    <glyph glyph-name="uni031B" unicode="&#x31b;" horiz-adv-x="0" 
d="M182 1038q-8 0 -18.5 1t-24.5 3l-1 112h27h17q61 1 85.5 32.5t28.5 110.5q1 19 1.5 53t0 68t-1.5 53h126q1 -19 1.5 -53t0 -68t-1.5 -53q-8 -135 -64.5 -197t-175.5 -62z" />
    <glyph glyph-name="dotbelowcomb" unicode="&#x323;" horiz-adv-x="0" 
d="M99 -234v154h154v-154h-154z" />
    <glyph glyph-name="uni0324" unicode="&#x324;" horiz-adv-x="0" 
d="M373 -204v154h154v-154h-154zM127 -204v154h153v-154h-153z" />
    <glyph glyph-name="uni0326" unicode="&#x326;" horiz-adv-x="0" 
d="M120 -403l59 139h-86v184h218v-163l-80 -160h-111z" />
    <glyph glyph-name="uni0327" unicode="&#x327;" horiz-adv-x="0" 
d="M76 -299v107h61q54 0 76.5 22.5t14.5 74.5l-16 95h116l15 -95q16 -107 -34.5 -155.5t-171.5 -48.5h-61z" />
    <glyph glyph-name="uni0328" unicode="&#x328;" horiz-adv-x="0" 
d="M347 -299h-61q-120 0 -171 48.5t-35 155.5l16 95h116l-16 -95q-7 -52 14.5 -74.5t75.5 -22.5h61v-107z" />
    <glyph glyph-name="uni032E" unicode="&#x32e;" horiz-adv-x="0" 
d="M349 -334q-130 0 -189.5 58.5t-66.5 194.5h132q1 -75 29.5 -107.5t94.5 -32.5q67 0 95.5 32.5t28.5 107.5h132q-7 -136 -66.5 -194.5t-189.5 -58.5z" />
    <glyph glyph-name="uni0331" unicode="&#x331;" horiz-adv-x="0" 
d="M127 -104h556v-104h-556v104z" />
    <glyph glyph-name="uni0335" unicode="&#x335;" horiz-adv-x="0" 
d="M93 799h454v-119h-454v119z" />
    <glyph glyph-name="pi" unicode="&#x3c0;" horiz-adv-x="1232" 
d="M1019 -9q-122 0 -196 30.5t-107.5 96.5t-35.5 173v715h-172v-1006h-216v1006h-172v191h965v-191h-189v-738q2 -63 25 -88t100 -25q25 0 45.5 1t45.5 3v-157q-20 -6 -43.5 -8.5t-49.5 -2.5z" />
    <glyph glyph-name="uni1E08" unicode="&#x1e08;" horiz-adv-x="839" 
d="M425 -17q-182 0 -259.5 77t-80.5 255q-2 112 -3 235t-1 250t1 250.5t3 236.5q2 156 82 242.5t257 86.5q176 0 255 -76.5t85 -254.5q1 -35 1 -83.5t-1 -96t-2 -83.5h-216q1 44 1.5 97t0.5 106.5t-1 97.5q-1 59 -31.5 87t-91.5 28t-91 -28t-32 -87q-4 -127 -5.5 -258.5
t-1.5 -264.5t1.5 -265t5.5 -258q2 -59 32.5 -87.5t91.5 -28.5q65 0 97 28.5t33 87.5q1 45 1.5 100.5t-0.5 110.5t-2 100h217q2 -66 2.5 -136.5t-1.5 -136.5q-6 -178 -86.5 -255t-260.5 -77zM225 -285v107h61q54 0 76.5 22.5t14.5 74.5l-16 95h116l15 -95
q16 -107 -34.5 -155.5t-171.5 -48.5h-61zM354 1680l167 252h146l-174 -252h-139z" />
    <glyph glyph-name="uni1E09" unicode="&#x1e09;" horiz-adv-x="799" 
d="M519 765q1 25 1.5 60t0 68t-0.5 53q-2 59 -27.5 82.5t-83.5 23.5t-83.5 -23.5t-27.5 -82.5q-2 -89 -3 -174.5t-1 -169.5t1 -168.5t3 -172.5q2 -63 28 -88t86 -25q56 0 81 25t27 88q1 31 1 76.5t-2 101.5h211q2 -28 3 -74t-1 -82q-7 -160 -81 -230t-239 -70
q-169 0 -246 70t-85 230q-2 57 -3 139.5t-1 173t1 174.5t3 144q11 163 86.5 233t241.5 70q167 0 242 -68.5t81 -226.5q1 -36 0.5 -82.5t-2.5 -74.5h-211zM206 -285v107h61q54 0 76.5 22.5t14.5 74.5l-16 95h116l15 -95q16 -107 -34.5 -155.5t-171.5 -48.5h-61zM345 1280
l167 252h146l-174 -252h-139z" />
    <glyph glyph-name="uni1E0C" unicode="&#x1e0c;" horiz-adv-x="855" 
d="M93 0v1600h331q181 0 262 -78.5t84 -259.5q3 -165 4 -313t0 -296.5t-4 -313.5q-3 -181 -84 -260t-263 -79h-330zM309 192h114q66 0 98 30.5t33 92.5q3 122 4 243.5t1 242.5t-1 242.5t-4 243.5q-1 61 -33 91t-97 30h-115v-1216zM327 -234v154h154v-154h-154z" />
    <glyph glyph-name="uni1E0D" unicode="&#x1e0d;" horiz-adv-x="861" 
d="M311 -17q-110 0 -166.5 67t-63.5 221q-2 66 -3 150.5t-1 174.5t1 176t3 157q7 155 65.5 221.5t167.5 66.5q82 0 124 -34.5t78 -100.5h33v518h216v-1600h-216v118h-34q-36 -65 -79 -100t-125 -35zM395 144q49 0 92 26.5t62 77.5v704q-19 52 -62 78t-92 26t-72 -26t-25 -83
q-5 -112 -6 -235t0 -241.5t6 -217.5q2 -57 24.5 -83t72.5 -26zM371 -234v154h154v-154h-154z" />
    <glyph glyph-name="uni1E0E" unicode="&#x1e0e;" horiz-adv-x="855" 
d="M93 0v1600h331q181 0 262 -78.5t84 -259.5q3 -165 4 -313t0 -296.5t-4 -313.5q-3 -181 -84 -260t-263 -79h-330zM309 192h114q66 0 98 30.5t33 92.5q3 122 4 243.5t1 242.5t-1 242.5t-4 243.5q-1 61 -33 91t-97 30h-115v-1216zM118 -104h556v-104h-556v104z" />
    <glyph glyph-name="uni1E0F" unicode="&#x1e0f;" horiz-adv-x="861" 
d="M311 -17q-110 0 -166.5 67t-63.5 221q-2 66 -3 150.5t-1 174.5t1 176t3 157q7 155 65.5 221.5t167.5 66.5q82 0 124 -34.5t78 -100.5h33v518h216v-1600h-216v118h-34q-36 -65 -79 -100t-125 -35zM395 144q49 0 92 26.5t62 77.5v704q-19 52 -62 78t-92 26t-72 -26t-25 -83
q-5 -112 -6 -235t0 -241.5t6 -217.5q2 -57 24.5 -83t72.5 -26zM162 -104h556v-104h-556v104z" />
    <glyph glyph-name="uni1E14" unicode="&#x1e14;" horiz-adv-x="709" 
d="M93 0v1600h571v-192h-355v-502h335v-192h-335v-522h355v-192h-571zM86 1773h556v-104h-556v104zM274 1870l-160 252h145l154 -252h-139z" />
    <glyph glyph-name="uni1E15" unicode="&#x1e15;" horiz-adv-x="801" 
d="M413 -17q-170 0 -246.5 70t-85.5 230q-2 57 -3 139.5t-1 173t1 174.5t3 144q11 163 87 233t243 70q164 0 238.5 -68.5t82.5 -225.5q1 -27 1.5 -84.5t0 -131t-3.5 -146.5h-436q0 -73 1.5 -147.5t2.5 -152.5q2 -63 28.5 -88t85.5 -25q56 0 80 25t27 88q2 30 2 76t-2 102
h211q2 -27 3 -73.5t-1 -82.5q-8 -160 -80.5 -230t-238.5 -70zM294 716h227q1 49 1 96t-1 82.5t-2 51.5q-3 57 -27.5 81.5t-80.5 24.5q-59 0 -85 -24.5t-28 -81.5q-1 -61 -2 -118t-2 -112zM128 1373h556v-104h-556v104zM316 1470l-160 252h145l154 -252h-139z" />
    <glyph glyph-name="uni1E16" unicode="&#x1e16;" horiz-adv-x="709" 
d="M93 0v1600h571v-192h-355v-502h335v-192h-335v-522h355v-192h-571zM86 1773h556v-104h-556v104zM301 1870l167 252h146l-174 -252h-139z" />
    <glyph glyph-name="uni1E17" unicode="&#x1e17;" horiz-adv-x="801" 
d="M413 -17q-170 0 -246.5 70t-85.5 230q-2 57 -3 139.5t-1 173t1 174.5t3 144q11 163 87 233t243 70q164 0 238.5 -68.5t82.5 -225.5q1 -27 1.5 -84.5t0 -131t-3.5 -146.5h-436q0 -73 1.5 -147.5t2.5 -152.5q2 -63 28.5 -88t85.5 -25q56 0 80 25t27 88q2 30 2 76t-2 102
h211q2 -27 3 -73.5t-1 -82.5q-8 -160 -80.5 -230t-238.5 -70zM294 716h227q1 49 1 96t-1 82.5t-2 51.5q-3 57 -27.5 81.5t-80.5 24.5q-59 0 -85 -24.5t-28 -81.5q-1 -61 -2 -118t-2 -112zM128 1373h556v-104h-556v104zM343 1470l167 252h146l-174 -252h-139z" />
    <glyph glyph-name="uni1E1C" unicode="&#x1e1c;" horiz-adv-x="709" 
d="M93 0v1600h571v-192h-355v-502h335v-192h-335v-522h355v-192h-571zM173 -285v107h61q54 0 76.5 22.5t14.5 74.5l-16 95h116l15 -95q16 -107 -34.5 -155.5t-171.5 -48.5h-61zM364 1672q-130 0 -189.5 58.5t-66.5 194.5h132q1 -75 29.5 -107.5t94.5 -32.5q67 0 95.5 32.5
t28.5 107.5h132q-7 -136 -66.5 -194.5t-189.5 -58.5z" />
    <glyph glyph-name="uni1E1D" unicode="&#x1e1d;" horiz-adv-x="801" 
d="M413 -17q-170 0 -246.5 70t-85.5 230q-2 57 -3 139.5t-1 173t1 174.5t3 144q11 163 87 233t243 70q164 0 238.5 -68.5t82.5 -225.5q1 -27 1.5 -84.5t0 -131t-3.5 -146.5h-436q0 -73 1.5 -147.5t2.5 -152.5q2 -63 28.5 -88t85.5 -25q56 0 80 25t27 88q2 30 2 76t-2 102
h211q2 -27 3 -73.5t-1 -82.5q-8 -160 -80.5 -230t-238.5 -70zM294 716h227q1 49 1 96t-1 82.5t-2 51.5q-3 57 -27.5 81.5t-80.5 24.5q-59 0 -85 -24.5t-28 -81.5q-1 -61 -2 -118t-2 -112zM214 -285v107h61q54 0 76.5 22.5t14.5 74.5l-16 95h116l15 -95q16 -107 -34.5 -155.5
t-171.5 -48.5h-61zM407 1272q-130 0 -189.5 58.5t-66.5 194.5h132q1 -75 29.5 -107.5t94.5 -32.5q67 0 95.5 32.5t28.5 107.5h132q-7 -136 -66.5 -194.5t-189.5 -58.5z" />
    <glyph glyph-name="uni1E20" unicode="&#x1e20;" horiz-adv-x="842" 
d="M428 -17q-122 0 -195.5 33.5t-108 107t-38.5 192.5q-3 110 -4 232.5t-1 248t1 247t4 230.5q5 124 40 199.5t108.5 109.5t192.5 34q171 0 249.5 -77t88.5 -254q3 -62 3 -131.5t-3 -131.5h-216q3 68 3 150.5t-3 150.5q-3 58 -33.5 86.5t-88.5 28.5q-61 0 -91.5 -28.5
t-33.5 -86.5q-4 -125 -6.5 -257t-2.5 -266t2.5 -266t6.5 -257q3 -59 33.5 -87.5t92.5 -28.5t96 28.5t37 87.5q1 38 1.5 84.5t0 92t-1.5 84.5h-122v189h333q3 -84 2.5 -190t-4.5 -222q-7 -178 -86.5 -255.5t-255.5 -77.5zM141 1773h556v-104h-556v104z" />
    <glyph glyph-name="uni1E21" unicode="&#x1e21;" horiz-adv-x="865" 
d="M403 -364q-154 0 -235.5 44t-94.5 132q-2 11 -3.5 27t-0.5 32q5 51 39.5 86t88.5 42v34q-49 11 -77.5 38.5t-34.5 71.5q-1 12 -1 23.5t1 25.5q5 43 40 70.5t86 34.5v34q-70 32 -103.5 97t-40.5 170q-1 49 -2 87t-1 72.5t1 72.5t2 84q6 106 39.5 172.5t105 98.5t190.5 32
q116 0 183.5 -30.5t102.5 -96.5h34q7 57 41 83.5t100 26.5v-166h-32q-45 0 -70 -27.5t-26 -91.5l-1 -84q1 -31 1 -58v-53.5t-0.5 -55.5t-2.5 -66q-6 -109 -40.5 -176t-104.5 -96.5t-187 -29.5q-85 1 -118.5 -15t-33.5 -52v-9q0 -23 10.5 -36.5t43 -19.5t99.5 -8
q176 -4 261 -56.5t100 -165.5q2 -17 2 -35t-2 -40q-8 -80 -51 -129t-120 -71.5t-188 -22.5zM408 -211q52 0 89.5 8.5t59 27.5t26.5 49q4 14 3.5 26.5t-4.5 25.5q-6 32 -27.5 49t-58 24t-87.5 8q-78 2 -117 -16.5t-47 -64.5q-3 -13 -3 -26.5t2 -25.5q5 -32 24.5 -50.5
t54.5 -26.5t85 -8zM400 460q67 0 91.5 27.5t28.5 82.5q2 37 3 84.5t1 98.5t-1 100t-3 88q-4 59 -30 85t-90 26q-65 0 -92 -26t-29 -87q-2 -53 -3 -103t-1 -96t1 -87.5t3 -78.5q3 -54 27.5 -84t93.5 -30zM123 1373h556v-104h-556v104z" />
    <glyph glyph-name="uni1E24" unicode="&#x1e24;" horiz-adv-x="851" 
d="M93 0v1600h216v-694h233v694h216v-1600h-216v714h-233v-714h-216zM348 -234v154h154v-154h-154z" />
    <glyph glyph-name="uni1E25" unicode="&#x1e25;" horiz-adv-x="873" 
d="M96 0v1600h216v-518h40q36 66 78.5 100.5t123.5 34.5q110 0 169 -66.5t59 -221.5v-929h-216v947q0 57 -25 83t-75 26q-48 0 -91.5 -26t-62.5 -78v-952h-216zM356 -234v154h154v-154h-154z" />
    <glyph glyph-name="uni1E2A" unicode="&#x1e2a;" horiz-adv-x="851" 
d="M93 0v1600h216v-694h233v694h216v-1600h-216v714h-233v-714h-216zM426 -334q-130 0 -189.5 58.5t-66.5 194.5h132q1 -75 29.5 -107.5t94.5 -32.5q67 0 95.5 32.5t28.5 107.5h132q-7 -136 -66.5 -194.5t-189.5 -58.5z" />
    <glyph glyph-name="uni1E2B" unicode="&#x1e2b;" horiz-adv-x="873" 
d="M96 0v1600h216v-518h40q36 66 78.5 100.5t123.5 34.5q110 0 169 -66.5t59 -221.5v-929h-216v947q0 57 -25 83t-75 26q-48 0 -91.5 -26t-62.5 -78v-952h-216zM433 -334q-130 0 -189.5 58.5t-66.5 194.5h132q1 -75 29.5 -107.5t94.5 -32.5q67 0 95.5 32.5t28.5 107.5h132
q-7 -136 -66.5 -194.5t-189.5 -58.5z" />
    <glyph glyph-name="uni1E2E" unicode="&#x1e2e;" horiz-adv-x="402" 
d="M93 0v1600h216v-1600h-216zM247 1710v154h154v-154h-154zM1 1710v154h153v-154h-153zM137 1915l167 252h146l-174 -252h-139z" />
    <glyph glyph-name="uni1E2F" unicode="&#x1e2f;" horiz-adv-x="408" 
d="M96 0v1200h216v-1200h-216zM250 1310v154h154v-154h-154zM4 1310v154h153v-154h-153zM140 1515l167 252h146l-174 -252h-139z" />
    <glyph glyph-name="uni1E36" unicode="&#x1e36;" horiz-adv-x="691" 
d="M93 0v1600h216v-1408h357v-192h-573zM303 -234v154h154v-154h-154z" />
    <glyph glyph-name="uni1E37" unicode="&#x1e37;" horiz-adv-x="408" 
d="M96 0v1600h216v-1600h-216zM126 -234v154h154v-154h-154z" />
    <glyph glyph-name="uni1E3A" unicode="&#x1e3a;" horiz-adv-x="691" 
d="M93 0v1600h216v-1408h357v-192h-573zM94 -104h556v-104h-556v104z" />
    <glyph glyph-name="uni1E3B" unicode="&#x1e3b;" horiz-adv-x="408" 
d="M96 0v1600h216v-1600h-216zM-83 -104h556v-104h-556v104z" />
    <glyph glyph-name="uni1E42" unicode="&#x1e42;" horiz-adv-x="1272" 
d="M93 0v1600h362l114 -630l45 -775h45l43 775l116 630h362v-1600h-217v479l41 929h-50l-95 -942l-98 -463h-250l-96 463l-97 942h-47l38 -929v-479h-216zM559 -234v154h154v-154h-154z" />
    <glyph glyph-name="uni1E43" unicode="&#x1e43;" horiz-adv-x="1333" 
d="M96 0v1200h216v-118h39q36 66 78.5 100.5t124.5 34.5q81 0 133 -35t75 -114h37q36 67 85 108t132 41q109 0 167.5 -66.5t58.5 -221.5v-929h-216v947q0 57 -24 83t-74 26q-46 0 -86.5 -29.5t-60.5 -78.5v-948h-216v947q-1 57 -25 83t-74 26q-48 0 -91.5 -26t-62.5 -78
v-952h-216zM594 -234v154h154v-154h-154z" />
    <glyph glyph-name="uni1E44" unicode="&#x1e44;" horiz-adv-x="946" 
d="M93 0v1600h330l104 -508l123 -900h49l-40 782l-16 626h210v-1600h-345l-110 549l-98 860h-52l37 -803l17 -606h-209zM400 1680v154h153v-154h-153z" />
    <glyph glyph-name="uni1E45" unicode="&#x1e45;" horiz-adv-x="873" 
d="M96 0v1200h216v-118h40q35 65 78.5 100t123.5 35q110 0 168.5 -66.5t59.5 -221.5v-929h-216v947q-1 57 -25.5 83t-74.5 26q-46 0 -90.5 -27.5t-63.5 -76.5v-952h-216zM364 1280v154h153v-154h-153z" />
    <glyph glyph-name="uni1E46" unicode="&#x1e46;" horiz-adv-x="946" 
d="M93 0v1600h330l104 -508l123 -900h49l-40 782l-16 626h210v-1600h-345l-110 549l-98 860h-52l37 -803l17 -606h-209zM395 -234v154h154v-154h-154z" />
    <glyph glyph-name="uni1E47" unicode="&#x1e47;" horiz-adv-x="873" 
d="M96 0v1200h216v-118h40q35 65 78.5 100t123.5 35q110 0 168.5 -66.5t59.5 -221.5v-929h-216v947q-1 57 -25.5 83t-74.5 26q-46 0 -90.5 -27.5t-63.5 -76.5v-952h-216zM363 -234v154h154v-154h-154z" />
    <glyph glyph-name="uni1E48" unicode="&#x1e48;" horiz-adv-x="946" 
d="M93 0v1600h330l104 -508l123 -900h49l-40 782l-16 626h210v-1600h-345l-110 549l-98 860h-52l37 -803l17 -606h-209zM185 -104h556v-104h-556v104z" />
    <glyph glyph-name="uni1E49" unicode="&#x1e49;" horiz-adv-x="873" 
d="M96 0v1200h216v-118h40q35 65 78.5 100t123.5 35q110 0 168.5 -66.5t59.5 -221.5v-929h-216v947q-1 57 -25.5 83t-74.5 26q-46 0 -90.5 -27.5t-63.5 -76.5v-952h-216zM153 -104h556v-104h-556v104z" />
    <glyph glyph-name="uni1E4C" unicode="&#x1e4c;" horiz-adv-x="856" 
d="M428 -17q-180 0 -259.5 76.5t-82.5 254.5q-3 120 -4 242t-1 244.5t1 244t4 242.5q3 177 82.5 253.5t259.5 76.5t258.5 -76.5t82.5 -253.5q4 -122 5.5 -244t1.5 -244t-1.5 -243.5t-5.5 -241.5q-4 -178 -82.5 -254.5t-258.5 -76.5zM428 162q64 0 94 27.5t31 86.5
q5 124 6.5 257.5t1.5 269.5t-2 268t-6 254q-1 59 -31.5 86.5t-93.5 27.5t-93.5 -27.5t-32.5 -86.5q-4 -122 -6.5 -254t-2 -268t2.5 -269.5t6 -257.5q2 -59 32.5 -86.5t93.5 -27.5zM564 1862h88q-3 -92 -36 -136.5t-94 -44.5q-38 0 -60.5 13t-38 29.5t-32 29t-43.5 12.5
q-26 0 -36.5 -19.5t-14.5 -54.5h-88q8 98 42.5 143t96.5 45q39 0 62.5 -12.5t39.5 -29t31.5 -29t39.5 -12.5t33 17t10 49zM363 1958l167 252h146l-174 -252h-139z" />
    <glyph glyph-name="uni1E4D" unicode="&#x1e4d;" horiz-adv-x="835" 
d="M418 -17q-120 0 -191.5 33t-104.5 106t-40 192q-2 57 -3.5 131t-1.5 153t1.5 154t3.5 135q7 118 40 190.5t104.5 106t191.5 33.5q122 0 192.5 -33.5t103.5 -106t39 -190.5q2 -58 3 -131.5t1 -153t-1 -154t-3 -134.5q-6 -118 -39 -191t-103.5 -106.5t-192.5 -33.5z
M418 148q63 0 90 27t28 87q3 88 4.5 172t1.5 167t-1.5 166.5t-4.5 171.5q-1 59 -27.5 86t-90.5 27q-62 0 -90 -27t-30 -86q-2 -88 -3.5 -172t-1.5 -167t1.5 -167t3.5 -171q2 -60 30 -87t90 -27zM552 1462h88q-3 -92 -36 -136.5t-94 -44.5q-38 0 -60.5 13t-38 29.5t-32 29
t-43.5 12.5q-26 0 -36.5 -19.5t-14.5 -54.5h-88q8 98 42.5 143t96.5 45q39 0 62.5 -12.5t39.5 -29t31.5 -29t39.5 -12.5t33 17t10 49zM352 1558l167 252h146l-174 -252h-139z" />
    <glyph glyph-name="uni1E4E" unicode="&#x1e4e;" horiz-adv-x="856" 
d="M428 -17q-180 0 -259.5 76.5t-82.5 254.5q-3 120 -4 242t-1 244.5t1 244t4 242.5q3 177 82.5 253.5t259.5 76.5t258.5 -76.5t82.5 -253.5q4 -122 5.5 -244t1.5 -244t-1.5 -243.5t-5.5 -241.5q-4 -178 -82.5 -254.5t-258.5 -76.5zM428 162q64 0 94 27.5t31 86.5
q5 124 6.5 257.5t1.5 269.5t-2 268t-6 254q-1 59 -31.5 86.5t-93.5 27.5t-93.5 -27.5t-32.5 -86.5q-4 -122 -6.5 -254t-2 -268t2.5 -269.5t6 -257.5q2 -59 32.5 -86.5t93.5 -27.5zM564 1862h88q-3 -92 -36 -136.5t-94 -44.5q-38 0 -60.5 13t-38 29.5t-32 29t-43.5 12.5
q-26 0 -36.5 -19.5t-14.5 -54.5h-88q8 98 42.5 143t96.5 45q39 0 62.5 -12.5t39.5 -29t31.5 -29t39.5 -12.5t33 17t10 49zM473 1988v154h154v-154h-154zM227 1988v154h153v-154h-153z" />
    <glyph glyph-name="uni1E4F" unicode="&#x1e4f;" horiz-adv-x="835" 
d="M418 -17q-120 0 -191.5 33t-104.5 106t-40 192q-2 57 -3.5 131t-1.5 153t1.5 154t3.5 135q7 118 40 190.5t104.5 106t191.5 33.5q122 0 192.5 -33.5t103.5 -106t39 -190.5q2 -58 3 -131.5t1 -153t-1 -154t-3 -134.5q-6 -118 -39 -191t-103.5 -106.5t-192.5 -33.5z
M418 148q63 0 90 27t28 87q3 88 4.5 172t1.5 167t-1.5 166.5t-4.5 171.5q-1 59 -27.5 86t-90.5 27q-62 0 -90 -27t-30 -86q-2 -88 -3.5 -172t-1.5 -167t1.5 -167t3.5 -171q2 -60 30 -87t90 -27zM552 1462h88q-3 -92 -36 -136.5t-94 -44.5q-38 0 -60.5 13t-38 29.5t-32 29
t-43.5 12.5q-26 0 -36.5 -19.5t-14.5 -54.5h-88q8 98 42.5 143t96.5 45q39 0 62.5 -12.5t39.5 -29t31.5 -29t39.5 -12.5t33 17t10 49zM462 1588v154h154v-154h-154zM216 1588v154h153v-154h-153z" />
    <glyph glyph-name="uni1E50" unicode="&#x1e50;" horiz-adv-x="856" 
d="M428 -17q-180 0 -259.5 76.5t-82.5 254.5q-3 120 -4 242t-1 244.5t1 244t4 242.5q3 177 82.5 253.5t259.5 76.5t258.5 -76.5t82.5 -253.5q4 -122 5.5 -244t1.5 -244t-1.5 -243.5t-5.5 -241.5q-4 -178 -82.5 -254.5t-258.5 -76.5zM428 162q64 0 94 27.5t31 86.5
q5 124 6.5 257.5t1.5 269.5t-2 268t-6 254q-1 59 -31.5 86.5t-93.5 27.5t-93.5 -27.5t-32.5 -86.5q-4 -122 -6.5 -254t-2 -268t2.5 -269.5t6 -257.5q2 -59 32.5 -86.5t93.5 -27.5zM151 1773h556v-104h-556v104zM339 1870l-160 252h145l154 -252h-139z" />
    <glyph glyph-name="uni1E51" unicode="&#x1e51;" horiz-adv-x="835" 
d="M418 -17q-120 0 -191.5 33t-104.5 106t-40 192q-2 57 -3.5 131t-1.5 153t1.5 154t3.5 135q7 118 40 190.5t104.5 106t191.5 33.5q122 0 192.5 -33.5t103.5 -106t39 -190.5q2 -58 3 -131.5t1 -153t-1 -154t-3 -134.5q-6 -118 -39 -191t-103.5 -106.5t-192.5 -33.5z
M418 148q63 0 90 27t28 87q3 88 4.5 172t1.5 167t-1.5 166.5t-4.5 171.5q-1 59 -27.5 86t-90.5 27q-62 0 -90 -27t-30 -86q-2 -88 -3.5 -172t-1.5 -167t1.5 -167t3.5 -171q2 -60 30 -87t90 -27zM139 1373h556v-104h-556v104zM328 1470l-160 252h145l154 -252h-139z" />
    <glyph glyph-name="uni1E52" unicode="&#x1e52;" horiz-adv-x="856" 
d="M428 -17q-180 0 -259.5 76.5t-82.5 254.5q-3 120 -4 242t-1 244.5t1 244t4 242.5q3 177 82.5 253.5t259.5 76.5t258.5 -76.5t82.5 -253.5q4 -122 5.5 -244t1.5 -244t-1.5 -243.5t-5.5 -241.5q-4 -178 -82.5 -254.5t-258.5 -76.5zM428 162q64 0 94 27.5t31 86.5
q5 124 6.5 257.5t1.5 269.5t-2 268t-6 254q-1 59 -31.5 86.5t-93.5 27.5t-93.5 -27.5t-32.5 -86.5q-4 -122 -6.5 -254t-2 -268t2.5 -269.5t6 -257.5q2 -59 32.5 -86.5t93.5 -27.5zM151 1773h556v-104h-556v104zM366 1870l167 252h146l-174 -252h-139z" />
    <glyph glyph-name="uni1E53" unicode="&#x1e53;" horiz-adv-x="835" 
d="M418 -17q-120 0 -191.5 33t-104.5 106t-40 192q-2 57 -3.5 131t-1.5 153t1.5 154t3.5 135q7 118 40 190.5t104.5 106t191.5 33.5q122 0 192.5 -33.5t103.5 -106t39 -190.5q2 -58 3 -131.5t1 -153t-1 -154t-3 -134.5q-6 -118 -39 -191t-103.5 -106.5t-192.5 -33.5z
M418 148q63 0 90 27t28 87q3 88 4.5 172t1.5 167t-1.5 166.5t-4.5 171.5q-1 59 -27.5 86t-90.5 27q-62 0 -90 -27t-30 -86q-2 -88 -3.5 -172t-1.5 -167t1.5 -167t3.5 -171q2 -60 30 -87t90 -27zM139 1373h556v-104h-556v104zM354 1470l167 252h146l-174 -252h-139z" />
    <glyph glyph-name="uni1E5A" unicode="&#x1e5a;" horiz-adv-x="825" 
d="M93 0v1600h315q179 0 259.5 -75t86.5 -249q3 -73 3.5 -133.5t0 -119t-3.5 -123.5q-3 -113 -38.5 -183.5t-109.5 -104.5l175 -612h-230l-149 576h-93v-576h-216zM309 767h98q65 0 96.5 30.5t34.5 91.5q3 64 4 131.5t0 135t-4 131.5q-3 61 -34 91t-96 30h-99v-641z
M356 -234v154h154v-154h-154z" />
    <glyph glyph-name="uni1E5B" unicode="&#x1e5b;" horiz-adv-x="598" 
d="M96 0v1200h216v-132h40q13 77 52.5 107t104.5 30q21 0 41.5 -1t32.5 -2v-168h-72q-99 0 -142.5 -33t-56.5 -98v-903h-216zM126 -234v154h154v-154h-154z" />
    <glyph glyph-name="uni1E5E" unicode="&#x1e5e;" horiz-adv-x="825" 
d="M93 0v1600h315q179 0 259.5 -75t86.5 -249q3 -73 3.5 -133.5t0 -119t-3.5 -123.5q-3 -113 -38.5 -183.5t-109.5 -104.5l175 -612h-230l-149 576h-93v-576h-216zM309 767h98q65 0 96.5 30.5t34.5 91.5q3 64 4 131.5t0 135t-4 131.5q-3 61 -34 91t-96 30h-99v-641z
M146 -104h556v-104h-556v104z" />
    <glyph glyph-name="uni1E5F" unicode="&#x1e5f;" horiz-adv-x="598" 
d="M96 0v1200h216v-132h40q13 77 52.5 107t104.5 30q21 0 41.5 -1t32.5 -2v-168h-72q-99 0 -142.5 -33t-56.5 -98v-903h-216zM-83 -104h556v-104h-556v104z" />
    <glyph glyph-name="uni1E60" unicode="&#x1e60;" horiz-adv-x="815" 
d="M410 -17q-179 0 -256 77.5t-84 255.5q-1 47 -1.5 91.5t1 89.5t5.5 92h204q-4 -80 -4.5 -160t4.5 -151q4 -59 35 -87.5t95 -28.5q63 0 91 28.5t34 87.5q3 45 4 84t0 79t-4 88q-4 59 -24 101t-73 56l-134 34q-90 23 -141 67.5t-73 113.5t-25 165q-1 54 -0.5 110t1.5 111
q4 118 38.5 190.5t109 106t196.5 33.5q173 0 250.5 -77t84.5 -254q2 -49 1 -120.5t-4 -142.5h-208q3 75 3.5 150.5t-2.5 150.5q-1 58 -33 86.5t-93 28.5q-64 0 -93 -28.5t-34 -86.5q-5 -64 -4.5 -129t4.5 -129t25 -103t76 -53l121 -29q95 -22 148 -68.5t75 -117t25 -166.5
q2 -42 2 -76t-1 -66.5t-2 -70.5q-7 -178 -84.5 -255.5t-255.5 -77.5zM330 1680v154h153v-154h-153z" />
    <glyph glyph-name="uni1E61" unicode="&#x1e61;" horiz-adv-x="759" 
d="M373 -17q-161 0 -229.5 70t-74.5 230q-1 36 -0.5 82t2.5 74h190q-1 -56 -1 -101.5t1 -76.5q2 -63 29 -88t83 -25q65 0 93.5 25t29.5 88v40.5t0.5 26t-0.5 37.5q0 52 -16 82.5t-59 43.5l-118 36q-79 25 -132 61.5t-79.5 94.5t-27.5 146v42t1 42q1 163 71.5 233.5
t247.5 70.5q163 0 229.5 -68.5t73.5 -226.5q1 -36 0.5 -82.5t-2.5 -74.5h-197q1 25 1.5 60t0 68t-1.5 53q-2 59 -24.5 82.5t-79.5 23.5q-60 0 -83 -23.5t-25 -82.5q-1 -29 -2 -46.5t0 -53.5q0 -56 14 -92t66 -52l106 -29q119 -30 178 -97.5t59 -199.5q0 -23 -0.5 -49
t-1.5 -50q-1 -157 -74.5 -225.5t-247.5 -68.5zM300 1280v154h153v-154h-153z" />
    <glyph glyph-name="uni1E62" unicode="&#x1e62;" horiz-adv-x="815" 
d="M410 -17q-179 0 -256 77.5t-84 255.5q-1 47 -1.5 91.5t1 89.5t5.5 92h204q-4 -80 -4.5 -160t4.5 -151q4 -59 35 -87.5t95 -28.5q63 0 91 28.5t34 87.5q3 45 4 84t0 79t-4 88q-4 59 -24 101t-73 56l-134 34q-90 23 -141 67.5t-73 113.5t-25 165q-1 54 -0.5 110t1.5 111
q4 118 38.5 190.5t109 106t196.5 33.5q173 0 250.5 -77t84.5 -254q2 -49 1 -120.5t-4 -142.5h-208q3 75 3.5 150.5t-2.5 150.5q-1 58 -33 86.5t-93 28.5q-64 0 -93 -28.5t-34 -86.5q-5 -64 -4.5 -129t4.5 -129t25 -103t76 -53l121 -29q95 -22 148 -68.5t75 -117t25 -166.5
q2 -42 2 -76t-1 -66.5t-2 -70.5q-7 -178 -84.5 -255.5t-255.5 -77.5zM329 -234v154h154v-154h-154z" />
    <glyph glyph-name="uni1E63" unicode="&#x1e63;" horiz-adv-x="759" 
d="M373 -17q-161 0 -229.5 70t-74.5 230q-1 36 -0.5 82t2.5 74h190q-1 -56 -1 -101.5t1 -76.5q2 -63 29 -88t83 -25q65 0 93.5 25t29.5 88v40.5t0.5 26t-0.5 37.5q0 52 -16 82.5t-59 43.5l-118 36q-79 25 -132 61.5t-79.5 94.5t-27.5 146v42t1 42q1 163 71.5 233.5
t247.5 70.5q163 0 229.5 -68.5t73.5 -226.5q1 -36 0.5 -82.5t-2.5 -74.5h-197q1 25 1.5 60t0 68t-1.5 53q-2 59 -24.5 82.5t-79.5 23.5q-60 0 -83 -23.5t-25 -82.5q-1 -29 -2 -46.5t0 -53.5q0 -56 14 -92t66 -52l106 -29q119 -30 178 -97.5t59 -199.5q0 -23 -0.5 -49
t-1.5 -50q-1 -157 -74.5 -225.5t-247.5 -68.5zM299 -234v154h154v-154h-154z" />
    <glyph glyph-name="uni1E64" unicode="&#x1e64;" horiz-adv-x="815" 
d="M410 -17q-179 0 -256 77.5t-84 255.5q-1 47 -1.5 91.5t1 89.5t5.5 92h204q-4 -80 -4.5 -160t4.5 -151q4 -59 35 -87.5t95 -28.5q63 0 91 28.5t34 87.5q3 45 4 84t0 79t-4 88q-4 59 -24 101t-73 56l-134 34q-90 23 -141 67.5t-73 113.5t-25 165q-1 54 -0.5 110t1.5 111
q4 118 38.5 190.5t109 106t196.5 33.5q173 0 250.5 -77t84.5 -254q2 -49 1 -120.5t-4 -142.5h-208q3 75 3.5 150.5t-2.5 150.5q-1 58 -33 86.5t-93 28.5q-64 0 -93 -28.5t-34 -86.5q-5 -64 -4.5 -129t4.5 -129t25 -103t76 -53l121 -29q95 -22 148 -68.5t75 -117t25 -166.5
q2 -42 2 -76t-1 -66.5t-2 -70.5q-7 -178 -84.5 -255.5t-255.5 -77.5zM343 1680l167 252h146l-174 -252h-139zM330 2014v154h153v-154h-153z" />
    <glyph glyph-name="uni1E65" unicode="&#x1e65;" horiz-adv-x="759" 
d="M373 -17q-161 0 -229.5 70t-74.5 230q-1 36 -0.5 82t2.5 74h190q-1 -56 -1 -101.5t1 -76.5q2 -63 29 -88t83 -25q65 0 93.5 25t29.5 88v40.5t0.5 26t-0.5 37.5q0 52 -16 82.5t-59 43.5l-118 36q-79 25 -132 61.5t-79.5 94.5t-27.5 146v42t1 42q1 163 71.5 233.5
t247.5 70.5q163 0 229.5 -68.5t73.5 -226.5q1 -36 0.5 -82.5t-2.5 -74.5h-197q1 25 1.5 60t0 68t-1.5 53q-2 59 -24.5 82.5t-79.5 23.5q-60 0 -83 -23.5t-25 -82.5q-1 -29 -2 -46.5t0 -53.5q0 -56 14 -92t66 -52l106 -29q119 -30 178 -97.5t59 -199.5q0 -23 -0.5 -49
t-1.5 -50q-1 -157 -74.5 -225.5t-247.5 -68.5zM313 1280l167 252h146l-174 -252h-139zM300 1614v154h153v-154h-153z" />
    <glyph glyph-name="uni1E66" unicode="&#x1e66;" horiz-adv-x="815" 
d="M410 -17q-179 0 -256 77.5t-84 255.5q-1 47 -1.5 91.5t1 89.5t5.5 92h204q-4 -80 -4.5 -160t4.5 -151q4 -59 35 -87.5t95 -28.5q63 0 91 28.5t34 87.5q3 45 4 84t0 79t-4 88q-4 59 -24 101t-73 56l-134 34q-90 23 -141 67.5t-73 113.5t-25 165q-1 54 -0.5 110t1.5 111
q4 118 38.5 190.5t109 106t196.5 33.5q173 0 250.5 -77t84.5 -254q2 -49 1 -120.5t-4 -142.5h-208q3 75 3.5 150.5t-2.5 150.5q-1 58 -33 86.5t-93 28.5q-64 0 -93 -28.5t-34 -86.5q-5 -64 -4.5 -129t4.5 -129t25 -103t76 -53l121 -29q95 -22 148 -68.5t75 -117t25 -166.5
q2 -42 2 -76t-1 -66.5t-2 -70.5q-7 -178 -84.5 -255.5t-255.5 -77.5zM348 1682l-147 252h130l75 -141l75 141h130l-147 -252h-116zM330 2014v154h153v-154h-153z" />
    <glyph glyph-name="uni1E67" unicode="&#x1e67;" horiz-adv-x="759" 
d="M373 -17q-161 0 -229.5 70t-74.5 230q-1 36 -0.5 82t2.5 74h190q-1 -56 -1 -101.5t1 -76.5q2 -63 29 -88t83 -25q65 0 93.5 25t29.5 88v40.5t0.5 26t-0.5 37.5q0 52 -16 82.5t-59 43.5l-118 36q-79 25 -132 61.5t-79.5 94.5t-27.5 146v42t1 42q1 163 71.5 233.5
t247.5 70.5q163 0 229.5 -68.5t73.5 -226.5q1 -36 0.5 -82.5t-2.5 -74.5h-197q1 25 1.5 60t0 68t-1.5 53q-2 59 -24.5 82.5t-79.5 23.5q-60 0 -83 -23.5t-25 -82.5q-1 -29 -2 -46.5t0 -53.5q0 -56 14 -92t66 -52l106 -29q119 -30 178 -97.5t59 -199.5q0 -23 -0.5 -49
t-1.5 -50q-1 -157 -74.5 -225.5t-247.5 -68.5zM318 1282l-147 252h130l75 -141l75 141h130l-147 -252h-116zM300 1614v154h153v-154h-153z" />
    <glyph glyph-name="uni1E68" unicode="&#x1e68;" horiz-adv-x="815" 
d="M410 -17q-179 0 -256 77.5t-84 255.5q-1 47 -1.5 91.5t1 89.5t5.5 92h204q-4 -80 -4.5 -160t4.5 -151q4 -59 35 -87.5t95 -28.5q63 0 91 28.5t34 87.5q3 45 4 84t0 79t-4 88q-4 59 -24 101t-73 56l-134 34q-90 23 -141 67.5t-73 113.5t-25 165q-1 54 -0.5 110t1.5 111
q4 118 38.5 190.5t109 106t196.5 33.5q173 0 250.5 -77t84.5 -254q2 -49 1 -120.5t-4 -142.5h-208q3 75 3.5 150.5t-2.5 150.5q-1 58 -33 86.5t-93 28.5q-64 0 -93 -28.5t-34 -86.5q-5 -64 -4.5 -129t4.5 -129t25 -103t76 -53l121 -29q95 -22 148 -68.5t75 -117t25 -166.5
q2 -42 2 -76t-1 -66.5t-2 -70.5q-7 -178 -84.5 -255.5t-255.5 -77.5zM329 -234v154h154v-154h-154zM330 1680v154h153v-154h-153z" />
    <glyph glyph-name="uni1E69" unicode="&#x1e69;" horiz-adv-x="759" 
d="M373 -17q-161 0 -229.5 70t-74.5 230q-1 36 -0.5 82t2.5 74h190q-1 -56 -1 -101.5t1 -76.5q2 -63 29 -88t83 -25q65 0 93.5 25t29.5 88v40.5t0.5 26t-0.5 37.5q0 52 -16 82.5t-59 43.5l-118 36q-79 25 -132 61.5t-79.5 94.5t-27.5 146v42t1 42q1 163 71.5 233.5
t247.5 70.5q163 0 229.5 -68.5t73.5 -226.5q1 -36 0.5 -82.5t-2.5 -74.5h-197q1 25 1.5 60t0 68t-1.5 53q-2 59 -24.5 82.5t-79.5 23.5q-60 0 -83 -23.5t-25 -82.5q-1 -29 -2 -46.5t0 -53.5q0 -56 14 -92t66 -52l106 -29q119 -30 178 -97.5t59 -199.5q0 -23 -0.5 -49
t-1.5 -50q-1 -157 -74.5 -225.5t-247.5 -68.5zM299 -234v154h154v-154h-154zM300 1280v154h153v-154h-153z" />
    <glyph glyph-name="uni1E6C" unicode="&#x1e6c;" horiz-adv-x="699" 
d="M241 0v1408h-230v192h677v-192h-230v-1408h-217zM271 -234v154h154v-154h-154z" />
    <glyph glyph-name="uni1E6D" unicode="&#x1e6d;" horiz-adv-x="588" 
d="M473 -17q-184 0 -260.5 70t-76.5 230v751h-98v166h100v340h217v-340h191v-166h-194v-775q0 -63 22.5 -87.5t99.5 -24.5q26 0 46 1t46 3v-158q-21 -5 -44.5 -7.5t-48.5 -2.5zM287 -234v154h154v-154h-154z" />
    <glyph glyph-name="uni1E6E" unicode="&#x1e6e;" horiz-adv-x="699" 
d="M241 0v1408h-230v192h677v-192h-230v-1408h-217zM62 -104h556v-104h-556v104z" />
    <glyph glyph-name="uni1E6F" unicode="&#x1e6f;" horiz-adv-x="588" 
d="M473 -17q-184 0 -260.5 70t-76.5 230v751h-98v166h100v340h217v-340h191v-166h-194v-775q0 -63 22.5 -87.5t99.5 -24.5q26 0 46 1t46 3v-158q-21 -5 -44.5 -7.5t-48.5 -2.5zM78 -104h556v-104h-556v104z" />
    <glyph glyph-name="uni1E78" unicode="&#x1e78;" horiz-adv-x="839" 
d="M420 -17q-182 0 -260.5 76.5t-80.5 254.5q-4 320 -4 643.5t4 642.5h216q-3 -213 -4 -437.5t0 -449t3 -437.5q0 -57 32 -85.5t94 -28.5q63 0 93.5 28.5t30.5 85.5q2 213 3 437.5t0.5 449t-3.5 437.5h216q5 -319 5 -642.5t-5 -643.5q-2 -178 -80.5 -254.5t-259.5 -76.5z
M554 1862h88q-3 -92 -36 -136.5t-94 -44.5q-38 0 -60.5 13t-38 29.5t-32 29t-43.5 12.5q-26 0 -36.5 -19.5t-14.5 -54.5h-88q8 98 42.5 143t96.5 45q39 0 62.5 -12.5t39.5 -29t31.5 -29t39.5 -12.5t33 17t10 49zM353 1958l167 252h146l-174 -252h-139z" />
    <glyph glyph-name="uni1E79" unicode="&#x1e79;" horiz-adv-x="867" 
d="M321 -17q-109 0 -171 67t-62 221v929h216v-947q0 -57 23.5 -83t73.5 -26q47 0 91.5 27.5t62.5 76.5v952h216v-1200h-216v118h-32q-38 -70 -86.5 -102.5t-115.5 -32.5zM561 1462h88q-3 -92 -36 -136.5t-94 -44.5q-38 0 -60.5 13t-38 29.5t-32 29t-43.5 12.5
q-26 0 -36.5 -19.5t-14.5 -54.5h-88q8 98 42.5 143t96.5 45q39 0 62.5 -12.5t39.5 -29t31.5 -29t39.5 -12.5t33 17t10 49zM360 1558l167 252h146l-174 -252h-139z" />
    <glyph glyph-name="uni1E7A" unicode="&#x1e7a;" horiz-adv-x="839" 
d="M420 -17q-182 0 -260.5 76.5t-80.5 254.5q-4 320 -4 643.5t4 642.5h216q-3 -213 -4 -437.5t0 -449t3 -437.5q0 -57 32 -85.5t94 -28.5q63 0 93.5 28.5t30.5 85.5q2 213 3 437.5t0.5 449t-3.5 437.5h216q5 -319 5 -642.5t-5 -643.5q-2 -178 -80.5 -254.5t-259.5 -76.5z
M141 1773h556v-104h-556v104zM466 1900v154h154v-154h-154zM220 1900v154h153v-154h-153z" />
    <glyph glyph-name="uni1E7B" unicode="&#x1e7b;" horiz-adv-x="867" 
d="M321 -17q-109 0 -171 67t-62 221v929h216v-947q0 -57 23.5 -83t73.5 -26q47 0 91.5 27.5t62.5 76.5v952h216v-1200h-216v118h-32q-38 -70 -86.5 -102.5t-115.5 -32.5zM148 1373h556v-104h-556v104zM473 1500v154h154v-154h-154zM227 1500v154h153v-154h-153z" />
    <glyph glyph-name="Wgrave" unicode="&#x1e80;" horiz-adv-x="1331" 
d="M180 0l-131 1600h218l44 -667l36 -741h49l20 741l97 657h306l98 -657l17 -741h48l38 741l44 667h217l-131 -1600h-365l-60 486l-34 919h-51l-35 -919l-60 -486h-365zM575 1680l-160 252h145l154 -252h-139z" />
    <glyph glyph-name="wgrave" unicode="&#x1e81;" horiz-adv-x="1288" 
d="M171 0l-140 1200h217l50 -604l24 -434h66l18 434l54 601h365l52 -601l18 -434h66l25 434l52 604h218l-143 -1200h-377l-35 464l-24 571h-70l-25 -571l-35 -464h-376zM551 1280l-160 252h145l154 -252h-139z" />
    <glyph glyph-name="Wacute" unicode="&#x1e82;" horiz-adv-x="1331" 
d="M180 0l-131 1600h218l44 -667l36 -741h49l20 741l97 657h306l98 -657l17 -741h48l38 741l44 667h217l-131 -1600h-365l-60 486l-34 919h-51l-35 -919l-60 -486h-365zM602 1680l167 252h146l-174 -252h-139z" />
    <glyph glyph-name="wacute" unicode="&#x1e83;" horiz-adv-x="1288" 
d="M171 0l-140 1200h217l50 -604l24 -434h66l18 434l54 601h365l52 -601l18 -434h66l25 434l52 604h218l-143 -1200h-377l-35 464l-24 571h-70l-25 -571l-35 -464h-376zM578 1280l167 252h146l-174 -252h-139z" />
    <glyph glyph-name="Wdieresis" unicode="&#x1e84;" horiz-adv-x="1331" 
d="M180 0l-131 1600h218l44 -667l36 -741h49l20 741l97 657h306l98 -657l17 -741h48l38 741l44 667h217l-131 -1600h-365l-60 486l-34 919h-51l-35 -919l-60 -486h-365zM712 1710v154h154v-154h-154zM466 1710v154h153v-154h-153z" />
    <glyph glyph-name="wdieresis" unicode="&#x1e85;" horiz-adv-x="1288" 
d="M171 0l-140 1200h217l50 -604l24 -434h66l18 434l54 601h365l52 -601l18 -434h66l25 434l52 604h218l-143 -1200h-377l-35 464l-24 571h-70l-25 -571l-35 -464h-376zM688 1310v154h154v-154h-154zM442 1310v154h153v-154h-153z" />
    <glyph glyph-name="uni1E8E" unicode="&#x1e8e;" horiz-adv-x="791" 
d="M287 0v400v2l-259 1198h221l81 -420l42 -464h46l41 464l82 420h222l-260 -1199v-2v-399h-216zM311 1680v154h153v-154h-153z" />
    <glyph glyph-name="uni1E8F" unicode="&#x1e8f;" horiz-adv-x="769" 
d="M197 -414q-30 0 -69 3.5t-70 8.5v163q26 -2 67.5 -4t70.5 -2q77 0 105.5 25.5t36.5 88.5l17 131h-129l-190 1200h220l61 -564l52 -474h61l37 474l53 564h219l-185 -1315q-15 -106 -52.5 -172t-110.5 -96.5t-194 -30.5zM316 1280v154h153v-154h-153z" />
    <glyph glyph-name="uni1E92" unicode="&#x1e92;" horiz-adv-x="716" 
d="M34 0v179l416 1229h-393v192h624v-183l-430 -1225h397v-192h-614zM277 -234v154h154v-154h-154z" />
    <glyph glyph-name="uni1E93" unicode="&#x1e93;" horiz-adv-x="681" 
d="M38 0v138l375 900l-367 -1v162l598 1v-142l-380 -896h373v-162h-599zM263 -234v154h154v-154h-154z" />
    <glyph glyph-name="uni1E97" unicode="&#x1e97;" horiz-adv-x="588" 
d="M473 -17q-184 0 -260.5 70t-76.5 230v751h-98v166h100v340h217v-340h191v-166h-194v-775q0 -63 22.5 -87.5t99.5 -24.5q26 0 46 1t46 3v-158q-21 -5 -44.5 -7.5t-48.5 -2.5zM320 1667v154h154v-154h-154zM74 1667v154h153v-154h-153z" />
    <glyph glyph-name="uni1E9E" unicode="&#x1e9e;" horiz-adv-x="923" 
d="M93 0v1271q0 177 81.5 253t261.5 76l369 1v-163l-197 -550q119 -31 166.5 -112t52.5 -217q1 -38 1.5 -73t-0.5 -70.5t-2 -76.5q-7 -182 -85.5 -260.5t-261.5 -78.5h-102v178h102q65 0 95 30.5t35 92.5q6 67 6 129t-6 129q-4 63 -28 105t-80 42h-102l-3 170l182 547
l-142 -1q-63 -1 -95 -28t-32 -86v-1308h-216z" />
    <glyph glyph-name="uni1EA0" unicode="&#x1ea0;" horiz-adv-x="816" 
d="M32 0l196 1600h360l196 -1600h-221l-38 399h-234l-37 -399h-222zM312 591h193l-34 352l-35 465h-56l-34 -465zM331 -234v154h154v-154h-154z" />
    <glyph glyph-name="uni1EA1" unicode="&#x1ea1;" horiz-adv-x="823" 
d="M302 -14q-115 0 -169.5 60.5t-65.5 196.5q-1 22 -1.5 48t0.5 47q6 76 31.5 133t79.5 102t145 86q48 22 96.5 40.5t98.5 34.5v205q0 57 -22 85t-84 28q-53 0 -76.5 -23.5t-26.5 -82.5q-1 -19 -1.5 -53t0 -69.5t1.5 -58.5h-210q-1 25 -2 73t0 85q4 103 36 168t101 95.5
t184 30.5q120 0 188.5 -33.5t97.5 -105.5t29 -188l-1 -890h-216v119h-30q-29 -67 -69.5 -100t-113.5 -33zM387 144q45 0 77.5 26t51.5 72v342q-35 -11 -70 -25.5t-71 -38.5q-55 -33 -73.5 -78.5t-21.5 -103.5q-1 -19 -1 -39t1 -40q5 -56 32.5 -85.5t74.5 -29.5zM324 -234
v154h154v-154h-154z" />
    <glyph glyph-name="uni1EA2" unicode="&#x1ea2;" horiz-adv-x="816" 
d="M32 0l196 1600h360l196 -1600h-221l-38 399h-234l-37 -399h-222zM312 591h193l-34 352l-35 465h-56l-34 -465zM416 1683l13 73q12 51 -5.5 68.5t-79.5 17.5h-85v105h85q116 0 169 -45t31 -146l-14 -73h-114z" />
    <glyph glyph-name="uni1EA3" unicode="&#x1ea3;" horiz-adv-x="823" 
d="M302 -14q-115 0 -169.5 60.5t-65.5 196.5q-1 22 -1.5 48t0.5 47q6 76 31.5 133t79.5 102t145 86q48 22 96.5 40.5t98.5 34.5v205q0 57 -22 85t-84 28q-53 0 -76.5 -23.5t-26.5 -82.5q-1 -19 -1.5 -53t0 -69.5t1.5 -58.5h-210q-1 25 -2 73t0 85q4 103 36 168t101 95.5
t184 30.5q120 0 188.5 -33.5t97.5 -105.5t29 -188l-1 -890h-216v119h-30q-29 -67 -69.5 -100t-113.5 -33zM387 144q45 0 77.5 26t51.5 72v342q-35 -11 -70 -25.5t-71 -38.5q-55 -33 -73.5 -78.5t-21.5 -103.5q-1 -19 -1 -39t1 -40q5 -56 32.5 -85.5t74.5 -29.5zM396 1283
l13 73q12 51 -5.5 68.5t-79.5 17.5h-85v105h85q116 0 169 -45t31 -146l-14 -73h-114z" />
    <glyph glyph-name="uni1EA4" unicode="&#x1ea4;" horiz-adv-x="816" 
d="M32 0l196 1600h360l196 -1600h-221l-38 399h-234l-37 -399h-222zM312 591h193l-34 352l-35 465h-56l-34 -465zM196 1682l147 252h130l146 -252h-145l-66 126l-67 -126h-145zM592 1910l167 252h146l-174 -252h-139z" />
    <glyph glyph-name="uni1EA5" unicode="&#x1ea5;" horiz-adv-x="823" 
d="M302 -14q-115 0 -169.5 60.5t-65.5 196.5q-1 22 -1.5 48t0.5 47q6 76 31.5 133t79.5 102t145 86q48 22 96.5 40.5t98.5 34.5v205q0 57 -22 85t-84 28q-53 0 -76.5 -23.5t-26.5 -82.5q-1 -19 -1.5 -53t0 -69.5t1.5 -58.5h-210q-1 25 -2 73t0 85q4 103 36 168t101 95.5
t184 30.5q120 0 188.5 -33.5t97.5 -105.5t29 -188l-1 -890h-216v119h-30q-29 -67 -69.5 -100t-113.5 -33zM387 144q45 0 77.5 26t51.5 72v342q-35 -11 -70 -25.5t-71 -38.5q-55 -33 -73.5 -78.5t-21.5 -103.5q-1 -19 -1 -39t1 -40q5 -56 32.5 -85.5t74.5 -29.5zM203 1282
l147 252h130l146 -252h-145l-66 126l-67 -126h-145zM599 1510l167 252h146l-174 -252h-139z" />
    <glyph glyph-name="uni1EA6" unicode="&#x1ea6;" horiz-adv-x="816" 
d="M32 0l196 1600h360l196 -1600h-221l-38 399h-234l-37 -399h-222zM312 591h193l-34 352l-35 465h-56l-34 -465zM196 1682l147 252h130l146 -252h-145l-66 126l-67 -126h-145zM640 1910l-160 252h145l154 -252h-139z" />
    <glyph glyph-name="uni1EA7" unicode="&#x1ea7;" horiz-adv-x="823" 
d="M302 -14q-115 0 -169.5 60.5t-65.5 196.5q-1 22 -1.5 48t0.5 47q6 76 31.5 133t79.5 102t145 86q48 22 96.5 40.5t98.5 34.5v205q0 57 -22 85t-84 28q-53 0 -76.5 -23.5t-26.5 -82.5q-1 -19 -1.5 -53t0 -69.5t1.5 -58.5h-210q-1 25 -2 73t0 85q4 103 36 168t101 95.5
t184 30.5q120 0 188.5 -33.5t97.5 -105.5t29 -188l-1 -890h-216v119h-30q-29 -67 -69.5 -100t-113.5 -33zM387 144q45 0 77.5 26t51.5 72v342q-35 -11 -70 -25.5t-71 -38.5q-55 -33 -73.5 -78.5t-21.5 -103.5q-1 -19 -1 -39t1 -40q5 -56 32.5 -85.5t74.5 -29.5zM203 1282
l147 252h130l146 -252h-145l-66 126l-67 -126h-145zM647 1510l-160 252h145l154 -252h-139z" />
    <glyph glyph-name="uni1EA8" unicode="&#x1ea8;" horiz-adv-x="816" 
d="M32 0l196 1600h360l196 -1600h-221l-38 399h-234l-37 -399h-222zM312 591h193l-34 352l-35 465h-56l-34 -465zM196 1682l147 252h130l146 -252h-145l-66 126l-67 -126h-145zM591 1898l13 73q12 51 -5.5 68.5t-79.5 17.5h-85v105h85q116 0 169 -45t31 -146l-14 -73h-114z
" />
    <glyph glyph-name="uni1EA9" unicode="&#x1ea9;" horiz-adv-x="823" 
d="M302 -14q-115 0 -169.5 60.5t-65.5 196.5q-1 22 -1.5 48t0.5 47q6 76 31.5 133t79.5 102t145 86q48 22 96.5 40.5t98.5 34.5v205q0 57 -22 85t-84 28q-53 0 -76.5 -23.5t-26.5 -82.5q-1 -19 -1.5 -53t0 -69.5t1.5 -58.5h-210q-1 25 -2 73t0 85q4 103 36 168t101 95.5
t184 30.5q120 0 188.5 -33.5t97.5 -105.5t29 -188l-1 -890h-216v119h-30q-29 -67 -69.5 -100t-113.5 -33zM387 144q45 0 77.5 26t51.5 72v342q-35 -11 -70 -25.5t-71 -38.5q-55 -33 -73.5 -78.5t-21.5 -103.5q-1 -19 -1 -39t1 -40q5 -56 32.5 -85.5t74.5 -29.5zM203 1282
l147 252h130l146 -252h-145l-66 126l-67 -126h-145zM599 1498l13 73q12 51 -5.5 68.5t-79.5 17.5h-85v105h85q116 0 169 -45t31 -146l-14 -73h-114z" />
    <glyph glyph-name="uni1EAA" unicode="&#x1eaa;" horiz-adv-x="816" 
d="M32 0l196 1600h360l196 -1600h-221l-38 399h-234l-37 -399h-222zM312 591h193l-34 352l-35 465h-56l-34 -465zM196 1682l147 252h130l146 -252h-145l-66 126l-67 -126h-145zM560 2170h88q-3 -92 -36 -136.5t-94 -44.5q-38 0 -60.5 13t-38 29.5t-32 29t-43.5 12.5
q-26 0 -36.5 -19.5t-14.5 -54.5h-88q8 98 42.5 143t96.5 45q39 0 62.5 -12.5t39.5 -29t31.5 -29t39.5 -12.5t33 17t10 49z" />
    <glyph glyph-name="uni1EAB" unicode="&#x1eab;" horiz-adv-x="823" 
d="M302 -14q-115 0 -169.5 60.5t-65.5 196.5q-1 22 -1.5 48t0.5 47q6 76 31.5 133t79.5 102t145 86q48 22 96.5 40.5t98.5 34.5v205q0 57 -22 85t-84 28q-53 0 -76.5 -23.5t-26.5 -82.5q-1 -19 -1.5 -53t0 -69.5t1.5 -58.5h-210q-1 25 -2 73t0 85q4 103 36 168t101 95.5
t184 30.5q120 0 188.5 -33.5t97.5 -105.5t29 -188l-1 -890h-216v119h-30q-29 -67 -69.5 -100t-113.5 -33zM387 144q45 0 77.5 26t51.5 72v342q-35 -11 -70 -25.5t-71 -38.5q-55 -33 -73.5 -78.5t-21.5 -103.5q-1 -19 -1 -39t1 -40q5 -56 32.5 -85.5t74.5 -29.5zM203 1282
l147 252h130l146 -252h-145l-66 126l-67 -126h-145zM567 1770h88q-3 -92 -36 -136.5t-94 -44.5q-38 0 -60.5 13t-38 29.5t-32 29t-43.5 12.5q-26 0 -36.5 -19.5t-14.5 -54.5h-88q8 98 42.5 143t96.5 45q39 0 62.5 -12.5t39.5 -29t31.5 -29t39.5 -12.5t33 17t10 49z" />
    <glyph glyph-name="uni1EAC" unicode="&#x1eac;" horiz-adv-x="816" 
d="M32 0l196 1600h360l196 -1600h-221l-38 399h-234l-37 -399h-222zM312 591h193l-34 352l-35 465h-56l-34 -465zM331 -234v154h154v-154h-154zM196 1682l147 252h130l146 -252h-145l-66 126l-67 -126h-145z" />
    <glyph glyph-name="uni1EAD" unicode="&#x1ead;" horiz-adv-x="823" 
d="M302 -14q-115 0 -169.5 60.5t-65.5 196.5q-1 22 -1.5 48t0.5 47q6 76 31.5 133t79.5 102t145 86q48 22 96.5 40.5t98.5 34.5v205q0 57 -22 85t-84 28q-53 0 -76.5 -23.5t-26.5 -82.5q-1 -19 -1.5 -53t0 -69.5t1.5 -58.5h-210q-1 25 -2 73t0 85q4 103 36 168t101 95.5
t184 30.5q120 0 188.5 -33.5t97.5 -105.5t29 -188l-1 -890h-216v119h-30q-29 -67 -69.5 -100t-113.5 -33zM387 144q45 0 77.5 26t51.5 72v342q-35 -11 -70 -25.5t-71 -38.5q-55 -33 -73.5 -78.5t-21.5 -103.5q-1 -19 -1 -39t1 -40q5 -56 32.5 -85.5t74.5 -29.5zM324 -234
v154h154v-154h-154zM203 1282l147 252h130l146 -252h-145l-66 126l-67 -126h-145z" />
    <glyph glyph-name="uni1EAE" unicode="&#x1eae;" horiz-adv-x="816" 
d="M32 0l196 1600h360l196 -1600h-221l-38 399h-234l-37 -399h-222zM312 591h193l-34 352l-35 465h-56l-34 -465zM408 1672q-130 0 -189.5 58.5t-66.5 194.5h132q1 -75 29.5 -107.5t94.5 -32.5q67 0 95.5 32.5t28.5 107.5h132q-7 -136 -66.5 -194.5t-189.5 -58.5zM345 1985
l167 252h146l-174 -252h-139z" />
    <glyph glyph-name="uni1EAF" unicode="&#x1eaf;" horiz-adv-x="823" 
d="M302 -14q-115 0 -169.5 60.5t-65.5 196.5q-1 22 -1.5 48t0.5 47q6 76 31.5 133t79.5 102t145 86q48 22 96.5 40.5t98.5 34.5v205q0 57 -22 85t-84 28q-53 0 -76.5 -23.5t-26.5 -82.5q-1 -19 -1.5 -53t0 -69.5t1.5 -58.5h-210q-1 25 -2 73t0 85q4 103 36 168t101 95.5
t184 30.5q120 0 188.5 -33.5t97.5 -105.5t29 -188l-1 -890h-216v119h-30q-29 -67 -69.5 -100t-113.5 -33zM387 144q45 0 77.5 26t51.5 72v342q-35 -11 -70 -25.5t-71 -38.5q-55 -33 -73.5 -78.5t-21.5 -103.5q-1 -19 -1 -39t1 -40q5 -56 32.5 -85.5t74.5 -29.5zM416 1272
q-130 0 -189.5 58.5t-66.5 194.5h132q1 -75 29.5 -107.5t94.5 -32.5q67 0 95.5 32.5t28.5 107.5h132q-7 -136 -66.5 -194.5t-189.5 -58.5zM352 1585l167 252h146l-174 -252h-139z" />
    <glyph glyph-name="uni1EB0" unicode="&#x1eb0;" horiz-adv-x="816" 
d="M32 0l196 1600h360l196 -1600h-221l-38 399h-234l-37 -399h-222zM312 591h193l-34 352l-35 465h-56l-34 -465zM408 1672q-130 0 -189.5 58.5t-66.5 194.5h132q1 -75 29.5 -107.5t94.5 -32.5q67 0 95.5 32.5t28.5 107.5h132q-7 -136 -66.5 -194.5t-189.5 -58.5zM318 1985
l-160 252h145l154 -252h-139z" />
    <glyph glyph-name="uni1EB1" unicode="&#x1eb1;" horiz-adv-x="823" 
d="M302 -14q-115 0 -169.5 60.5t-65.5 196.5q-1 22 -1.5 48t0.5 47q6 76 31.5 133t79.5 102t145 86q48 22 96.5 40.5t98.5 34.5v205q0 57 -22 85t-84 28q-53 0 -76.5 -23.5t-26.5 -82.5q-1 -19 -1.5 -53t0 -69.5t1.5 -58.5h-210q-1 25 -2 73t0 85q4 103 36 168t101 95.5
t184 30.5q120 0 188.5 -33.5t97.5 -105.5t29 -188l-1 -890h-216v119h-30q-29 -67 -69.5 -100t-113.5 -33zM387 144q45 0 77.5 26t51.5 72v342q-35 -11 -70 -25.5t-71 -38.5q-55 -33 -73.5 -78.5t-21.5 -103.5q-1 -19 -1 -39t1 -40q5 -56 32.5 -85.5t74.5 -29.5zM416 1272
q-130 0 -189.5 58.5t-66.5 194.5h132q1 -75 29.5 -107.5t94.5 -32.5q67 0 95.5 32.5t28.5 107.5h132q-7 -136 -66.5 -194.5t-189.5 -58.5zM325 1585l-160 252h145l154 -252h-139z" />
    <glyph glyph-name="uni1EB2" unicode="&#x1eb2;" horiz-adv-x="816" 
d="M32 0l196 1600h360l196 -1600h-221l-38 399h-234l-37 -399h-222zM312 591h193l-34 352l-35 465h-56l-34 -465zM408 1672q-130 0 -189.5 58.5t-66.5 194.5h132q1 -75 29.5 -107.5t94.5 -32.5q67 0 95.5 32.5t28.5 107.5h132q-7 -136 -66.5 -194.5t-189.5 -58.5zM353 1964
l13 73q12 51 -5.5 68.5t-79.5 17.5h-85v105h85q116 0 169 -45t31 -146l-14 -73h-114z" />
    <glyph glyph-name="uni1EB3" unicode="&#x1eb3;" horiz-adv-x="823" 
d="M302 -14q-115 0 -169.5 60.5t-65.5 196.5q-1 22 -1.5 48t0.5 47q6 76 31.5 133t79.5 102t145 86q48 22 96.5 40.5t98.5 34.5v205q0 57 -22 85t-84 28q-53 0 -76.5 -23.5t-26.5 -82.5q-1 -19 -1.5 -53t0 -69.5t1.5 -58.5h-210q-1 25 -2 73t0 85q4 103 36 168t101 95.5
t184 30.5q120 0 188.5 -33.5t97.5 -105.5t29 -188l-1 -890h-216v119h-30q-29 -67 -69.5 -100t-113.5 -33zM387 144q45 0 77.5 26t51.5 72v342q-35 -11 -70 -25.5t-71 -38.5q-55 -33 -73.5 -78.5t-21.5 -103.5q-1 -19 -1 -39t1 -40q5 -56 32.5 -85.5t74.5 -29.5zM416 1272
q-130 0 -189.5 58.5t-66.5 194.5h132q1 -75 29.5 -107.5t94.5 -32.5q67 0 95.5 32.5t28.5 107.5h132q-7 -136 -66.5 -194.5t-189.5 -58.5zM360 1564l13 73q12 51 -5.5 68.5t-79.5 17.5h-85v105h85q116 0 169 -45t31 -146l-14 -73h-114z" />
    <glyph glyph-name="uni1EB4" unicode="&#x1eb4;" horiz-adv-x="816" 
d="M32 0l196 1600h360l196 -1600h-221l-38 399h-234l-37 -399h-222zM312 591h193l-34 352l-35 465h-56l-34 -465zM408 1672q-130 0 -189.5 58.5t-66.5 194.5h132q1 -75 29.5 -107.5t94.5 -32.5q67 0 95.5 32.5t28.5 107.5h132q-7 -136 -66.5 -194.5t-189.5 -58.5zM542 2188
h88q-3 -92 -36 -136.5t-94 -44.5q-38 0 -60.5 13t-38 29.5t-32 29t-43.5 12.5q-26 0 -36.5 -19.5t-14.5 -54.5h-88q8 98 42.5 143t96.5 45q39 0 62.5 -12.5t39.5 -29t31.5 -29t39.5 -12.5t33 17t10 49z" />
    <glyph glyph-name="uni1EB5" unicode="&#x1eb5;" horiz-adv-x="823" 
d="M302 -14q-115 0 -169.5 60.5t-65.5 196.5q-1 22 -1.5 48t0.5 47q6 76 31.5 133t79.5 102t145 86q48 22 96.5 40.5t98.5 34.5v205q0 57 -22 85t-84 28q-53 0 -76.5 -23.5t-26.5 -82.5q-1 -19 -1.5 -53t0 -69.5t1.5 -58.5h-210q-1 25 -2 73t0 85q4 103 36 168t101 95.5
t184 30.5q120 0 188.5 -33.5t97.5 -105.5t29 -188l-1 -890h-216v119h-30q-29 -67 -69.5 -100t-113.5 -33zM387 144q45 0 77.5 26t51.5 72v342q-35 -11 -70 -25.5t-71 -38.5q-55 -33 -73.5 -78.5t-21.5 -103.5q-1 -19 -1 -39t1 -40q5 -56 32.5 -85.5t74.5 -29.5zM416 1272
q-130 0 -189.5 58.5t-66.5 194.5h132q1 -75 29.5 -107.5t94.5 -32.5q67 0 95.5 32.5t28.5 107.5h132q-7 -136 -66.5 -194.5t-189.5 -58.5zM549 1788h88q-3 -92 -36 -136.5t-94 -44.5q-38 0 -60.5 13t-38 29.5t-32 29t-43.5 12.5q-26 0 -36.5 -19.5t-14.5 -54.5h-88
q8 98 42.5 143t96.5 45q39 0 62.5 -12.5t39.5 -29t31.5 -29t39.5 -12.5t33 17t10 49z" />
    <glyph glyph-name="uni1EB6" unicode="&#x1eb6;" horiz-adv-x="816" 
d="M32 0l196 1600h360l196 -1600h-221l-38 399h-234l-37 -399h-222zM312 591h193l-34 352l-35 465h-56l-34 -465zM331 -234v154h154v-154h-154zM408 1672q-130 0 -189.5 58.5t-66.5 194.5h132q1 -75 29.5 -107.5t94.5 -32.5q67 0 95.5 32.5t28.5 107.5h132
q-7 -136 -66.5 -194.5t-189.5 -58.5z" />
    <glyph glyph-name="uni1EB7" unicode="&#x1eb7;" horiz-adv-x="823" 
d="M302 -14q-115 0 -169.5 60.5t-65.5 196.5q-1 22 -1.5 48t0.5 47q6 76 31.5 133t79.5 102t145 86q48 22 96.5 40.5t98.5 34.5v205q0 57 -22 85t-84 28q-53 0 -76.5 -23.5t-26.5 -82.5q-1 -19 -1.5 -53t0 -69.5t1.5 -58.5h-210q-1 25 -2 73t0 85q4 103 36 168t101 95.5
t184 30.5q120 0 188.5 -33.5t97.5 -105.5t29 -188l-1 -890h-216v119h-30q-29 -67 -69.5 -100t-113.5 -33zM387 144q45 0 77.5 26t51.5 72v342q-35 -11 -70 -25.5t-71 -38.5q-55 -33 -73.5 -78.5t-21.5 -103.5q-1 -19 -1 -39t1 -40q5 -56 32.5 -85.5t74.5 -29.5zM324 -234
v154h154v-154h-154zM416 1272q-130 0 -189.5 58.5t-66.5 194.5h132q1 -75 29.5 -107.5t94.5 -32.5q67 0 95.5 32.5t28.5 107.5h132q-7 -136 -66.5 -194.5t-189.5 -58.5z" />
    <glyph glyph-name="uni1EB8" unicode="&#x1eb8;" horiz-adv-x="709" 
d="M93 0v1600h571v-192h-355v-502h335v-192h-335v-522h355v-192h-571zM288 -234v154h154v-154h-154z" />
    </font>
</defs>
</svg>
